<svg xmlns="http://www.w3.org/2000/svg" version="1.1" width="600px" height="600px" xlink="http://www.w3.org/1999/xlink" style="overflow:hidden!important;"><g id="svga-group-wrapper" transform="scale(3 3)"><g id="svga-group-backs-single"><path id="SvgjsPath6214" d="M225 225H-25V-25h250V225z" fill="#ffffff" stroke-width="none" opacity="1" stroke="none"></path></g><g id="svga-group-subwrapper" transform="matrix(0.84999948 0 0 0.84999948 13.996848277335587 15.502559807389673)"><g id="svga-group-hair-back" ><path id="SvgjsPath6085" d="M100.5,100.5h-1v-1h1V100.5z" fill="#2a232b" stroke-width="none" opacity="1" stroke="none"></path></g><g id="svga-group-humanbody-single"><path id="SvgjsPath5933" d="M190.858 199.866c-6.008-10.158-13.474-11.973-19.628-13.936 -6.323-2.016-19.346-3.178-26.449-4.6 -6.86-1.373-23.153-5.789-23.339-13.488 -0.192-8.066 4.291-40.09 4.291-40.09H74.005c0 0 4.487 32.023 4.294 40.09 -0.184 7.699-16.48 12.115-23.341 13.488 -7.104 1.422-20.125 2.584-26.448 4.6 -6.156 1.963-13.624 3.777-19.632 13.936 -3.644 6.16-6.008 16.133-6.008 27.133h194C196.869 215.999 194.509 206.026 190.858 199.866z" fill="#93614a" stroke-width="none" opacity="1" stroke="none"></path><path id="SvgjsPath5934" d="M121.442 167.843c2.495 10.929 18.165 13.698 26.293 15.325 21.909 4.379 33.772 5.134 42.297 19.539 2.903 4.916 5.459 15.864 5.962 24.153 1.835 0.291 0.531-17.432-5.136-26.994 -9.742-16.472-29.089-15.135-46.077-18.535C137.921 179.958 121.628 175.542 121.442 167.843L121.442 167.843zM78.558 167.843c-0.186 7.699-16.479 12.115-23.339 13.488 -16.988 3.4-36.335 2.063-46.077 18.535 -5.667 9.563-6.971 27.285-5.136 26.994 0.503-8.289 3.059-19.237 5.962-24.153 8.524-14.405 20.388-15.16 42.297-19.539C60.393 181.541 76.063 178.771 78.558 167.843L78.558 167.843z" fill="#a27662" stroke-width="none" opacity="1" stroke="none"></path><path id="SvgjsPath5935" d="M51.206 189.513c0 0 28.641 0.299 33.473 1.885 2.314 0.758 8.372 5.633 8.372 5.633s-6.556-3.17-8.658-3.758C79.51 191.909 51.206 189.513 51.206 189.513zM99.795 199.999c2.053-0.041 7.887-3.799 7.887-3.799s-5.574 2.059-7.342 2.16c-1.491 0.086-6.366-1.238-6.366-1.238S98.112 200.032 99.795 199.999zM117.008 192.757c6.75-1.818 29.786-3.23 29.786-3.23s-23.791-0.516-30.51 1.725c-2.252 0.752-7.562 5.16-7.562 5.16S114.786 193.354 117.008 192.757z" fill="#844e35" stroke-width="none" opacity="1" stroke="none"></path><path id="SvgjsPath5936" d="M190.858 199.866c-9.741-16.471-29.122-15.142-46.077-18.535 -6.86-1.373-23.153-5.789-23.339-13.488 -0.192-8.066 4.291-40.09 4.291-40.09H74.005c0 0 4.487 32.023 4.294 40.09 -0.184 7.699-16.48 12.115-23.341 13.488 -7.104 1.422-20.125 2.584-26.448 4.6 -6.156 1.963-13.624 3.777-19.632 13.936 -3.644 6.16-6.008 16.133-6.008 27.133h194C196.869 215.999 194.509 206.026 190.858 199.866z" fill="none" stroke="#652e15" stroke-width="1.5" opacity="1"></path></g><g id="svga-group-chinshadow-single"><path id="SvgjsPath6254" d="M100.021 171.27c5.607-0.009 13.53-3.627 20.967-8.478 0.485-6.84 1.756-17.341 2.758-25.098 -13.972-1.825-33.828-1.785-47.741 0.101 0.995 7.702 2.249 18.065 2.739 24.877C86.278 167.593 94.344 171.279 100.021 171.27z" fill="url(#SvgjsLinearGradient6255)" opacity="1"></path></g><g id="svga-group-clothes-single" ><path id="SvgjsPath6248" d="M103.441 229.899c-18.333 0-36.705-0.539-54.995-1.778 -15.203-1.031-30.378-2.423-45.577-3.513 -0.395 0.562-0.339-0.934-0.358-1.242 -0.063-1.019-0.104-2.04-0.108-3.061 -0.009-2.058 0.125-4.13 0.574-6.143 0.412-1.843 1.173-3.577 1.822-5.344 0.053-0.144-1.718-1.102-2-1.258 0.727-1.272 1.67-2.456 2.597-3.584 -1.756-1.127-3.547-2.263-5.246-3.476 2.355-2.815 5.602-4.512 8.114-7.131 -1.025-0.663-2.03-1.359-2.985-2.12 -0.249-0.198-0.494-0.4-0.739-0.604 -0.398-0.33-0.075-0.435 0.216-0.759 0.425-0.499 0.867-0.984 1.325-1.454 1.696-1.742 3.599-3.279 5.626-4.62 4.417-2.919 9.418-4.918 14.568-6.104 1.312-0.303 2.636-0.552 3.968-0.749 0.461-0.08 0.925-0.19 1.351-0.075 0.531 0.144 1.088 0.551 1.586 0.79 2.117 1.021 4.265 1.973 6.442 2.859 4.636 1.888 9.383 3.491 14.194 4.869 20.634 5.908 42.528 7.305 63.728 3.957 10.546-1.665 20.96-4.469 30.987-8.119 2.774-1.011 5.52-2.112 8.219-3.31 1.013-0.449 2.021-0.91 3.02-1.389 0.744-0.356 1.186-0.409 2.011-0.421 1.568-0.021 3.148-0.094 4.706 0.141 1.621 0.243 3.188 0.774 4.719 1.343 5.999 2.224 11.475 5.193 16.34 9.392 -0.431 0.458-0.87 0.913-1.323 1.35 1.913 1.457 3.546 3.266 5.062 5.121 0.879 1.077 1.694 2.196 2.517 3.315 0.321 0.438 0.049 2.004 0.067 2.573 0.1 3.061 0.932 5.686 2.035 8.515 0.77 1.973 1.441 3.979 1.761 6.08 0.436 2.859 0.07 5.589-0.246 8.435 -0.124 1.114-0.213 2.231-0.309 3.348 -0.022 0.256-0.044 0.512-0.071 0.768 -0.883 0-1.768 0.036-2.65 0.053 -4.932 0.09-9.864 0.194-14.795 0.344 -13.384 0.405-26.743 1.258-40.132 1.603 -6.907 0.178-13.815 0.343-20.715 0.725C113.639 229.509 108.56 229.899 103.441 229.899z" fill="#ffbb33" stroke-width="none" opacity="1" stroke="none"></path><path id="SvgjsPath6249" d="M77.072 191.553c-1.295 1.902-2.474 3.882-3.612 5.878 0.287-2.083 0.496-4.185 0.693-6.286C75.123 191.296 76.092 191.433 77.072 191.553zM63.583 189.148c-1.714 3.7-3.554 7.359-4.999 11.145 2.029-3.547 4.106-7.188 5.76-10.973 2.949 0.654 5.948 1.226 8.976 1.7 -0.287 2.577-0.464 5.174-0.613 7.761 -0.95 1.683-1.88 3.374-2.84 5.041 -3.623 6.266-4.811 11.162-5.662 14.774 -1.625-0.151-2.969-0.323-3.7-0.436 -4.553-0.704-6.474-1.493-7.751-2.169 1.157-4.26 2.227-8.547 2.989-12.896 0.891-5.067 1.316-10.248 2.384-15.28C59.92 188.301 61.742 188.749 63.583 189.148zM43.154 182.938c-2.722 2.521-4.514 4.708-9.047 10.241 1.425-3.317 3.316-7.444 5.79-11.571C40.966 182.064 42.045 182.513 43.154 182.938zM187.52 189.909c0.012 0.01 0.028 0.027 0.049 0.049 2.069 1.976 4.257 4.631 6.019 6.931v0.009 0.011c-1.635 1.455-2.939 2.823-4.098 3.442 -0.674-0.798-1.366-1.588-2.059-2.398 -1.444-1.682-2.653-3.582-4.147-5.218 -0.079-0.087-0.16-0.183-0.238-0.268 -0.139-0.142-0.275-0.285-0.417-0.418 0.725-0.684 1.427-1.379 2.131-2.074 0.116-0.112 0.225-0.227 0.334-0.34 0.338-0.325 0.664-0.658 0.991-0.99C186.55 189.016 187.024 189.443 187.52 189.909zM173.05 206.446c1.269 1.824 3.257 4.154 5.147 6.285 -2.17 1.178-3.633 2.176-4.634 2.853 -1.474-1.827-3.256-3.832-6.097-7.256 0.149-0.076 0.298-0.151 0.445-0.229 1.682-0.901 2.84-1.862 4.356-2.852 0.206 0.353 0.452 0.741 0.752 1.151C173.021 206.407 173.029 206.426 173.05 206.446zM163.229 180.506c4.891 4.801 9.126 9.662 13.956 16.971 1.199-1.139 2.438-2.243 3.713-3.315 0.588-0.491 1.192-0.973 1.814-1.437 -6.55-6.479-13.323-12.555-22.224-14.804C161.277 178.646 162.18 179.49 163.229 180.506zM148.026 182.634c6.139 7.397 15.392 15.233 18.885 19.114 -4.039-5.621-12.343-13.122-18.212-19.37 2.318-0.885 4.585-1.836 6.823-2.86 6.084 7.7 14.174 19.093 17.991 24.551 -0.493 0.246-0.94 0.486-1.367 0.731 -0.03 0.021-0.057 0.037-0.086 0.058 -1.407 0.848-2.594 1.787-4.702 2.957 -0.071 0.037-0.148 0.076-0.218 0.115 -0.07 0.038-0.129 0.065-0.188 0.096 -1.481 0.768-2.979 1.243-4.653 1.604 -0.791 0.161-1.592 0.334-2.385 0.553 -3.394-4.488-6.057-9.527-9.213-14.169 -2.019-2.978-4.374-5.782-6.257-8.834 -0.535-0.875-1.058-1.797-1.633-2.689C144.574 183.909 146.317 183.29 148.026 182.634zM118.851 190.394c1.889 4.355 2.661 5.896 5.682 15.928 -0.495-2.482-0.931-4.964-1.693-7.379 -0.922-2.899-1.782-5.278-3.324-8.662 2.769-0.506 5.492-1.046 8.153-1.644 2.407 2.69 4.283 6.083 9.641 13.158 2.721 3.549 5.434 7.114 7.739 10.907 -1.166 0.617-2.384 1.141-3.654 1.454 -18.623 5.486-11.567 3.48-20.01 5.041 -0.148 0.026-0.347 0.057-0.565 0.085 -0.583-2.891-1.513-6.551-3.432-12.752 -2.307-7.427-4.168-11.837-5.651-14.986C114.148 191.192 116.515 190.812 118.851 190.394zM106.074 192.247c1.719 4.784 3.046 9.699 4.035 14.692 0.636 3.271 1.181 6.552 1.753 9.822 0.247 1.417 0.477 2.854 0.792 4.271 -4.93 0.818-10.224 0.077-13.531 0.03 0.07-2.283 0.051-2.807 0.189-4.148 0.306-3.042 0.484-6.113 0.802-9.166 0.317-3.178 0.714-6.351 0.671-9.547 -0.029-1.873-0.087-3.748 0.139-5.581C102.649 192.535 104.372 192.409 106.074 192.247zM96.463 192.752c-1.318 4.261-2.733 8.502-3.971 12.79 -0.02-4.279-0.147-8.549-0.386-12.819C93.562 192.761 95.017 192.771 96.463 192.752zM88.019 192.571c-0.396 5.212-0.989 10.394-1.325 15.614 1.197-6.856 1.593-10.974 1.572-15.593 1.17 0.055 2.336 0.104 3.505 0.12 -0.13 5.041-0.1 10.09 0.079 15.129 0 0.01 0 0.01 0 0.01 -1.465 5.439-1.772 9.215-1.841 12.496 -2.801 0.504-5.663 0.741-8.512 0.903 -5.87 0.333-7.988-0.172-10.224-0.353 0.147-0.504 0.316-1.006 0.484-1.513 0.041-0.122 0.09-0.256 0.129-0.379 1.791-5.287 4.147-10.643 5.571-13.475 3.625-7.169 5.316-10.839 6.642-13.228C85.406 192.421 86.713 192.504 88.019 192.571zM52.101 186.085c-0.841 2.995-1.771 7.361-4.414 15.368 -1.138 3.432-2.217 6.847-3.137 10.346 -0.218 0.836-0.327 1.702-0.376 2.577 -1.989-0.78-3.939-1.626-5.889-2.5 -1.218-0.581-2.237-1.087-3.088-1.522 -0.05-0.028-0.109-0.058-0.159-0.087 -0.96-0.492-1.711-0.911-2.326-1.234 2.197-3.14 4.652-6.676 6.77-9.775 3.217-4.688 5.988-9.68 9.433-14.206C49.963 185.4 51.022 185.754 52.101 186.085zM33.762 211.515c-1.861 2.157-3.257 5.315-4.771 8.414 -2.446-0.789-4.911-1.531-7.345-2.357 0.167-0.297 0.335-0.58 0.505-0.877 0.198-0.34 0.396-0.692 0.593-1.055 0.01-0.027 0.02-0.056 0.041-0.084 1.196-2.188 2.405-4.593 3.663-6.344 1.296 0.627 2.72 1.171 4.157 1.599 0.237 0.066 0.484 0.132 0.723 0.199 0.068-0.104 0.148-0.209 0.218-0.313 0.326-0.457 0.652-0.933 0.99-1.417 0.455 0.285 0.939 0.59 1.444 0.903 0.199 0.124 0.416 0.267 0.673 0.408 -0.238 0.229-0.475 0.465-0.691 0.714C33.889 211.37 33.83 211.447 33.762 211.515zM35.532 179.629c-2.483 3.558-4.74 7.324-6.135 11.317 2.098-3.767 4.463-7.37 6.622-11.089 1.108 0.533 2.247 1.046 3.406 1.542 -2.041 2.976-4.188 6.989-6.86 13.683 -2.644 3.319-5.137 6.78-7.295 10.424 -3.583-1.209-8.789-3.045-9.481-3.303 -1.575-0.513-3.713-1.53-5.592-2.528 -0.09-0.048-0.168-0.096-0.259-0.133 -0.959-0.522-1.83-1.026-2.502-1.454 1.099-1.065 2.207-2.113 3.336-3.129 0.168-0.161 0.345-0.322 0.523-0.475 6.623-5.991 13.699-11.251 22.161-15.892C34.126 178.944 34.82 179.288 35.532 179.629zM3.257 202.271c-0.12-0.076-0.248-0.162-0.367-0.237 -0.822-0.53-1.643-1.046-2.435-1.513 1.366-1.501 2.98-2.747 4.494-3.918 0.03-0.026 0.07-0.047 0.1-0.085 1.287-0.979 2.503-1.92 3.404-2.91 0.466 0.287 0.94 0.57 1.406 0.846 -1.039 1.019-2.079 2.085-3.098 3.187 -0.089 0.086-0.169 0.173-0.248 0.267 0.198 0.171 0.406 0.332 0.614 0.485 0.307 0.237 0.634 0.447 0.96 0.628 0.484 0.257 0.96 0.533 1.426 0.817 -1.505 1.103-2.91 2.547-4.069 3.929C4.732 203.27 3.998 202.768 3.257 202.271zM3.108 207.55c0.703-1.01 1.555-2.17 2.494-3.32 0.07-0.077 0.129-0.15 0.188-0.229 1.217-1.454 2.583-2.891 4-4.003 1.009 0.6 2.019 1.206 3.116 1.701 1.744 0.771 3.515 1.455 5.326 2.082 2.197 0.763 4.493 1.531 6.818 2.084 -0.335 0.581-0.661 1.16-0.979 1.75 -0.038 0.058-0.068 0.113-0.099 0.17 0.118 0.077 0.237 0.162 0.357 0.24 0.563 0.37 1.187 0.721 1.85 1.054 -1.296 1.646-2.544 3.966-3.751 6.361 -3.652-1.17-7.304-2.368-10.827-3.841 -1.882-0.828-3.761-1.616-5.583-2.567 -0.098-0.047-0.445-0.229-0.93-0.477 0.238-0.94 0.415-1.891 0.514-2.861 -0.188 0.931-0.465 1.834-0.771 2.729C4.336 208.156 3.722 207.852 3.108 207.55z" fill="#f0a818" stroke-width="none" opacity="1" stroke="none"></path><path id="SvgjsPath6250" d="M194.201 202.214c-0.229-1.597-0.267-3.224-0.257-4.85 0-0.182 0-0.362 0-0.532 0-0.01 0.01-0.01 0.01-0.01 -0.01-0.076-0.01-0.152 0-0.228 -0.041 0.028-0.08 0.057-0.109 0.085 -0.07-0.095-0.141-0.19-0.209-0.294 -1.643-2.292-3.662-4.784-5.621-6.638 0.029-0.02 0.059-0.039 0.09-0.048 -0.031 0.009-0.071 0.019-0.101 0.039 -0.555-0.522-1.1-0.99-1.631-1.399 0.285-0.275 0.563-0.561 0.819-0.846 0.178-0.171 0.339-0.331 0.495-0.504 -0.119-0.105-0.238-0.198-0.355-0.303 -3.525-2.901-7.307-5.517-11.541-7.354 -8.026-3.354-9.216-3.394-13.232-3.318 -0.586 0-1.229 0.021-1.961 0.021 -0.297 0.142-0.604 0.293-0.91 0.436 -0.169 0.077-0.336 0.161-0.505 0.248 -0.159 0.066-0.317 0.143-0.485 0.218 -0.979 0.457-1.979 0.903-3.008 1.352 -0.288 0.114-0.566 0.236-0.854 0.359 -2.225 0.941-4.561 1.866-7.035 2.75 -0.2 0.074-0.396 0.15-0.604 0.219 -1.652 0.59-3.364 1.169-5.137 1.73 -0.156 0.057-0.315 0.104-0.474 0.151 -0.893 0.286-1.811 0.562-2.743 0.837 -0.132 0.038-0.255 0.076-0.386 0.115 -0.82 0.247-1.665 0.484-2.514 0.723 -0.318 0.094-0.644 0.179-0.971 0.266 -1.593 0.437-3.239 0.864-4.917 1.283 -1.041 0.255-2.088 0.505-3.142 0.742 -0.095 0.019-0.195 0.047-0.303 0.067 -2.546 0.559-5.109 1.063-7.68 1.5 -0.21 0.039-0.421 0.067-0.627 0.105 -2.404 0.392-4.83 0.731-7.256 1.007 -0.116 0.013-0.234 0.03-0.355 0.038 -1.632 0.184-3.272 0.333-4.919 0.468 -0.097 0.008-0.188 0.019-0.285 0.019 -1.417 0.104-2.832 0.19-4.257 0.256 -0.07 0-0.128 0.009-0.196 0.009 -1.297 0.06-2.585 0.096-3.881 0.104 -0.061 0.012-0.118 0.012-0.179 0 -0.377 0.012-0.753 0.021-1.129 0.021 -1.296 0.009-2.572 0-3.849-0.03 -0.06 0-0.118 0-0.179 0 -1.207-0.026-2.396-0.065-3.573-0.122 -0.04 0-0.079 0-0.119-0.009 -1.029-0.039-2.049-0.104-3.067-0.174 -0.109 0-0.219-0.009-0.328-0.019 0 0 0 0-0.009 0 -2.129-0.144-4.216-0.33-6.264-0.57 -0.121-0.009-0.248-0.018-0.367-0.037 -1.275-0.142-2.543-0.304-3.791-0.476 -0.268-0.037-0.534-0.076-0.802-0.116 -2.968-0.436-5.849-0.94-8.611-1.5 -0.236-0.048-0.485-0.104-0.721-0.153 -1.98-0.408-3.891-0.854-5.752-1.321 -0.137-0.038-0.277-0.066-0.415-0.104 -1.762-0.448-3.474-0.913-5.117-1.398 -0.15-0.037-0.288-0.084-0.436-0.123 -0.94-0.275-1.86-0.561-2.762-0.846 -0.147-0.047-0.296-0.096-0.435-0.145 -1.632-0.522-3.207-1.056-4.701-1.597 -0.168-0.065-0.336-0.122-0.505-0.19 -1.256-0.455-2.475-0.922-3.632-1.379 -0.138-0.057-0.277-0.114-0.416-0.171 -1.247-0.503-2.425-1.007-3.544-1.491 -0.138-0.066-0.276-0.126-0.405-0.184 -0.594-0.265-1.159-0.531-1.712-0.789 -0.169-0.073-0.338-0.15-0.495-0.234 -0.732-0.346-1.426-0.686-2.079-1.019 -0.109-0.058-0.217-0.117-0.325-0.173 -0.407 0.049-0.813 0.104-1.208 0.173 -11.185 1.655-20.191 6.665-25.547 12.959 -0.188 0.209-0.365 0.419-0.523 0.628 0.178 0.162 0.375 0.323 0.574 0.484 0.989 0.828 2.158 1.665 3.375 2.454 -0.912 0.935-2.158 1.854-3.484 2.873 -0.089-0.049-0.158-0.077-0.178-0.077 -0.04 0 0.01 0.077 0.079 0.153 -1.504 1.15-3.098 2.435-4.375 4.013 -0.049 0.056-0.099 0.113-0.148 0.17 0.089 0.058 0.177 0.123 0.277 0.192 0.703 0.454 1.525 1.007 2.396 1.587 0.109 0.075 0.217 0.153 0.336 0.218 0.722 0.495 1.483 0.998 2.237 1.483 -0.901 1.094-1.644 2.132-2.148 2.911 -0.11 0.162-0.208 0.323-0.307 0.475 -0.051 0.067-0.089 0.142-0.129 0.21 0.099 0.058 0.197 0.124 0.297 0.171 0.614 0.37 1.217 0.742 1.731 1.056 -0.375 1.016-0.782 2.023-1.148 3.063 -1.464 3.907-1.366 8.546-1.04 12.798 0 0.058 0.011 0.105 0.021 0.162 0.148 0 0.297 0 0.455 0 -0.009-0.043-0.009-0.087-0.009-0.13 17.807 1.25 48.215 4.196 69.411 4.714 52.426 1.265 26.427 0.161 65.135-0.779 33.931-0.839 23.727-1.42 59.207-2.037 0.13-0.011 0.269-0.011 0.407-0.011 0-0.063 0.009-0.131 0.019-0.199 0.168-1.844 0.287-3.699 0.564-5.543C199.12 211.467 194.934 207.283 194.201 202.214zM187.52 189.909c0.012 0.01 0.028 0.027 0.049 0.049 2.069 1.976 4.257 4.631 6.019 6.931v0.009 0.011c-1.635 1.455-2.939 2.823-4.098 3.442 -0.674-0.798-1.366-1.588-2.059-2.398 -1.444-1.682-2.653-3.582-4.147-5.218 -0.079-0.087-0.16-0.183-0.238-0.268 -0.139-0.142-0.275-0.285-0.417-0.418 0.725-0.684 1.427-1.379 2.131-2.074 0.116-0.112 0.225-0.227 0.334-0.34 0.338-0.325 0.664-0.658 0.991-0.99C186.55 189.016 187.024 189.443 187.52 189.909zM182.253 206.986c1.221 1.112 2.812 2.712 4.079 4.252 -1.861 1.599-3.563 3.251-5.722 3.756 -0.603-0.742-1.236-1.493-1.869-2.235 -0.071-0.076-0.128-0.143-0.19-0.218 -1.96-2.274-3.919-4.442-5.234-6.115 -0.011-0.01-0.021-0.019-0.021-0.027 -0.356-0.448-0.661-0.866-0.907-1.228 0.404-0.267 0.84-0.543 1.323-0.818 0.446 0.638 0.833 1.189 1.14 1.628 0.028 0.057 0.069 0.112 0.109 0.161 0.188-0.077 0.376-0.145 0.556-0.201 0.019-0.008 0.049-0.008 0.066-0.017 2.297-0.725 3.803-1.495 5.139-2.367 0.067-0.041 0.138-0.088 0.198-0.137 -0.042-0.064-0.073-0.122-0.111-0.177 -1.205-2.008-2.355-3.844-3.474-5.546 1.279-1.074 2.555-2.158 3.832-3.244 0.612-0.502 1.236-1.016 1.868-1.521 1.479 1.808 2.693 3.881 4.219 5.63 0.594 0.675 1.187 1.34 1.77 2.006 0.021 0.02 0.03 0.039 0.05 0.049 0.515 0.587 1.021 1.168 1.504 1.767 -2.671 1.655-5.567 2.892-8.314 4.46 -0.026 0.03-0.068 0.047-0.107 0.068C182.184 206.939 182.215 206.97 182.253 206.986zM173.05 206.446c1.269 1.824 3.257 4.154 5.147 6.285 -2.17 1.178-3.633 2.176-4.634 2.853 -1.474-1.827-3.256-3.832-6.097-7.256 0.149-0.076 0.298-0.151 0.445-0.229 1.682-0.901 2.84-1.862 4.356-2.852 0.206 0.353 0.452 0.741 0.752 1.151C173.021 206.407 173.029 206.426 173.05 206.446zM161.537 176.569c4.921 0.218 11.244 0.911 25.222 10.619 -0.3 0.249-0.595 0.516-0.882 0.8 -0.097 0.076-0.199 0.173-0.288 0.277 -0.356 0.331-0.702 0.685-1.027 1.044 -0.109 0.105-0.21 0.221-0.297 0.325 -0.647 0.71-1.248 1.464-1.804 2.263 -0.059 0.074-0.11 0.141-0.146 0.22 0.036 0.037 0.077 0.083 0.116 0.121 0.13 0.145 0.249 0.275 0.366 0.419 -0.653 0.484-1.284 0.99-1.899 1.504 -1.275 1.072-2.514 2.177-3.713 3.315 -4.83-7.309-9.065-12.17-13.956-16.971 -1.306-1.265-2.393-2.273-3.304-3.1C160.47 177.13 161.003 176.852 161.537 176.569zM159.38 177.681c2.752 2.947 6.721 6.847 10.799 11.875 2.227 2.749 4.376 5.573 6.485 8.427 0.036 0.058 0.075 0.114 0.114 0.171 1.278 1.73 2.545 3.47 3.804 5.21 -2.01 1.087-3.823 1.893-5.17 2.397 -0.056-0.114-0.115-0.239-0.188-0.353 -0.227-0.409-0.503-0.885-0.83-1.417 -0.036-0.074-0.088-0.161-0.147-0.246 -3.374-5.544-11.273-16.992-17.847-24.63C157.401 178.649 158.391 178.174 159.38 177.681zM148.026 182.634c6.139 7.397 15.392 15.233 18.885 19.114 -4.039-5.621-12.343-13.122-18.212-19.37 2.318-0.885 4.585-1.836 6.823-2.86 6.084 7.7 14.174 19.093 17.991 24.551 -0.493 0.246-0.94 0.486-1.367 0.731 -0.03 0.021-0.057 0.037-0.086 0.058 -1.407 0.848-2.594 1.787-4.702 2.957 -0.071 0.037-0.148 0.076-0.218 0.115 -0.07 0.038-0.129 0.065-0.188 0.096 -1.481 0.768-2.979 1.243-4.653 1.604 -0.791 0.161-1.592 0.334-2.385 0.553 -3.394-4.488-6.057-9.527-9.213-14.169 -2.019-2.978-4.374-5.782-6.257-8.834 -0.535-0.875-1.058-1.797-1.633-2.689C144.574 183.909 146.317 183.29 148.026 182.634zM142.24 184.67c0.622 1.188 1.187 2.405 1.811 3.518 1.672 3.025 4.028 5.821 5.978 8.691 3.057 4.526 5.839 9.301 9.49 13.417 0.031 0.048 0.069 0.087 0.109 0.124 0.129-0.028 0.267-0.057 0.405-0.076 1.792-0.313 3.685-0.19 7.226-1.91 1.623 2.178 3.729 4.926 5.81 7.482 0.03 0.047 0.067 0.094 0.108 0.143 0.359 0.447 0.711 0.886 1.06 1.314 -2.039 0.853-4.751 1.567-9.056 2.053 -1.011-1.305-2.138-2.502-3.248-3.709 -1.376-1.484-2.801-2.967-4.047-4.565 -0.355-0.474-0.703-0.949-1.039-1.443 -0.019-0.03-0.039-0.057-0.059-0.097 -0.081 0.019-0.158 0.049-0.238 0.076 -0.583 0.191-1.159 0.41-1.722 0.638 -4.187-7.009-12.672-20.817-13.114-21.576 -0.663-1.111-1.317-2.225-2.04-3.271C140.537 185.222 141.385 184.955 142.24 184.67zM135.783 186.618c3.464 5.05 6.591 10.308 9.72 15.548 -3.789-7.979-6.313-12.135-8.77-15.823 0.819-0.228 1.636-0.466 2.448-0.713 0.661 1.113 1.233 2.283 1.826 3.442 0.99 1.948 8.753 14.776 10.108 16.793 1.088 1.559 2.228 3.08 3.345 4.61 -2.711 1.124-5.284 2.54-8.007 3.663 -0.219-0.505-0.446-0.988-0.692-1.464 -0.039-0.098-0.091-0.191-0.149-0.286 -2.533-5.013-5.601-8.74-7.474-11.185 -5.016-6.606-7.333-10.105-10.028-12.672C130.717 187.952 133.268 187.313 135.783 186.618zM118.851 190.394c1.889 4.355 2.661 5.896 5.682 15.928 -0.495-2.482-0.931-4.964-1.693-7.379 -0.922-2.899-1.782-5.278-3.324-8.662 2.769-0.506 5.492-1.046 8.153-1.644 2.407 2.69 4.283 6.083 9.641 13.158 2.721 3.549 5.434 7.114 7.739 10.907 -1.166 0.617-2.384 1.141-3.654 1.454 -18.623 5.486-11.567 3.48-20.01 5.041 -0.148 0.026-0.347 0.057-0.565 0.085 -0.583-2.891-1.513-6.551-3.432-12.752 -2.307-7.427-4.168-11.837-5.651-14.986C114.148 191.192 116.515 190.812 118.851 190.394zM111.06 191.648c0.05-0.007 0.108-0.017 0.159-0.027 3.276 9.176 6.244 18.428 8.818 27.796 0.03 0.046 0.04 0.105 0.052 0.161 0.255 0.903 0.503 1.814 0.751 2.729 -2.268 0.503-4.534 0.731-6.949 0.637 -0.049 0-0.209-0.009-0.436-0.009 -0.108-0.601-0.207-1.207-0.286-1.817 -0.01-0.055-0.01-0.113-0.021-0.17 -0.196-1.57-0.326-3.149-0.505-4.698 -0.354-3.3-0.931-6.589-1.611-9.842 -1.208-5.829-2.478-9.852-4.505-14.207C108.052 192.049 109.565 191.868 111.06 191.648zM106.074 192.247c1.719 4.784 3.046 9.699 4.035 14.692 0.636 3.271 1.181 6.552 1.753 9.822 0.247 1.417 0.477 2.854 0.792 4.271 -4.93 0.818-10.224 0.077-13.531 0.03 0.07-2.283 0.051-2.807 0.189-4.148 0.306-3.042 0.484-6.113 0.802-9.166 0.317-3.178 0.714-6.351 0.671-9.547 -0.029-1.873-0.087-3.748 0.139-5.581C102.649 192.535 104.372 192.409 106.074 192.247zM100.567 192.63c-0.465 2.156-0.501 4.401-0.621 6.618 -0.198 3.431-0.743 6.854-1.03 10.276 -0.278 3.406-0.604 6.794-0.505 10.214 0 0.066 0.02 0.581 0.039 1.313 0 0.018 0 0.049 0 0.074 0.021 0.476 0.042 1.028 0.061 1.618 -2.664 0.209-5.343 0.058-8.018 0.008 0.07-0.74 0.138-1.501 0.218-2.291 0.01-0.084 0.01-0.161 0.019-0.247 0.258-2.527 0.574-5.344 1.278-8.653 0.138-0.684 0.307-1.387 0.484-2.119 0 0 0-0.01 0-0.021 0.129-0.493 0.258-0.998 0.396-1.521 1.366-5.049 2.792-10.06 3.899-15.155C98.055 192.734 99.313 192.697 100.567 192.63zM96.463 192.752c-1.318 4.261-2.733 8.502-3.971 12.79 -0.02-4.279-0.147-8.549-0.386-12.819C93.562 192.761 95.017 192.771 96.463 192.752zM88.019 192.571c-0.396 5.212-0.989 10.394-1.325 15.614 1.197-6.856 1.593-10.974 1.572-15.593 1.17 0.055 2.336 0.104 3.505 0.12 -0.13 5.041-0.1 10.09 0.079 15.129 0 0.01 0 0.01 0 0.01 -1.465 5.439-1.772 9.215-1.841 12.496 -2.801 0.504-5.663 0.741-8.512 0.903 -5.87 0.333-7.988-0.172-10.224-0.353 0.147-0.504 0.316-1.006 0.484-1.513 0.041-0.122 0.09-0.256 0.129-0.379 1.791-5.287 4.147-10.643 5.571-13.475 3.625-7.169 5.316-10.839 6.642-13.228C85.406 192.421 86.713 192.504 88.019 192.571zM83.596 192.269c-1.694 2.499-3.869 6.446-7.423 13.454 -2.179 4.299-3.959 8.701-5.127 13.275 -2.128-0.021-4.405-0.172-6.346-0.354 1.643-5.267 3.663-10.193 6.247-14.682 0.593-1.027 1.127-1.977 1.612-2.853l0.484-0.864c2.198-4.014 3.356-6.447 4.554-8.614C79.587 191.877 81.587 192.097 83.596 192.269zM77.072 191.553c-1.295 1.902-2.474 3.882-3.612 5.878 0.287-2.083 0.496-4.185 0.693-6.286C75.123 191.296 76.092 191.433 77.072 191.553zM63.583 189.148c-1.714 3.7-3.554 7.359-4.999 11.145 2.029-3.547 4.106-7.188 5.76-10.973 2.949 0.654 5.948 1.226 8.976 1.7 -0.287 2.577-0.464 5.174-0.613 7.761 -0.95 1.683-1.88 3.374-2.84 5.041 -3.623 6.266-4.811 11.162-5.662 14.774 -1.625-0.151-2.969-0.323-3.7-0.436 -4.553-0.704-6.474-1.493-7.751-2.169 1.157-4.26 2.227-8.547 2.989-12.896 0.891-5.067 1.316-10.248 2.384-15.28C59.92 188.301 61.742 188.749 63.583 189.148zM57.624 187.686c-1.415 4.962-2.01 10.117-2.929 15.233 -0.763 4.26-1.663 8.509-2.524 12.75 -0.02 0.068-0.03 0.133-0.04 0.2 -0.159 0.77-0.317 1.54-0.465 2.31 -0.99-0.304-1.99-0.596-2.99-0.894 -0.06-0.018-2.048-0.57-3.979-1.104 0.069-0.513 0.128-0.94 0.178-1.331 0.01-0.065 0.02-0.133 0.029-0.199 0.318-2.206 0.733-3.49 3.812-12.883 1.188-3.615 2.454-7.268 3.087-11.014 0.257-1.502 0.476-3.023 0.791-4.517C54.239 186.743 55.921 187.229 57.624 187.686zM52.101 186.085c-0.841 2.995-1.771 7.361-4.414 15.368 -1.138 3.432-2.217 6.847-3.137 10.346 -0.218 0.836-0.327 1.702-0.376 2.577 -1.989-0.78-3.939-1.626-5.889-2.5 -1.218-0.581-2.237-1.087-3.088-1.522 -0.05-0.028-0.109-0.058-0.159-0.087 -0.96-0.492-1.711-0.911-2.326-1.234 2.197-3.14 4.652-6.676 6.77-9.775 3.217-4.688 5.988-9.68 9.433-14.206C49.963 185.4 51.022 185.754 52.101 186.085zM33.762 211.515c-1.861 2.157-3.257 5.315-4.771 8.414 -2.446-0.789-4.911-1.531-7.345-2.357 0.167-0.297 0.335-0.58 0.505-0.877 0.198-0.34 0.396-0.692 0.593-1.055 0.01-0.027 0.02-0.056 0.041-0.084 1.196-2.188 2.405-4.593 3.663-6.344 1.296 0.627 2.72 1.171 4.157 1.599 0.237 0.066 0.484 0.132 0.723 0.199 0.068-0.104 0.148-0.209 0.218-0.313 0.326-0.457 0.652-0.933 0.99-1.417 0.455 0.285 0.939 0.59 1.444 0.903 0.199 0.124 0.416 0.267 0.673 0.408 -0.238 0.229-0.475 0.465-0.691 0.714C33.889 211.37 33.83 211.447 33.762 211.515zM48.399 184.868c-3.722 4.271-6.631 9.101-9.857 13.799 -1.484 2.159-4.108 6.097-6.572 9.965 -0.038 0.078-0.089 0.152-0.138 0.218 -0.347 0.554-0.683 1.095-1.02 1.626 -1.415-0.436-2.841-0.958-4.158-1.548 -0.088-0.039-0.168-0.078-0.257-0.114 -0.691-0.313-1.336-0.637-1.94-0.98 0.385-0.608 0.792-1.216 1.197-1.825 0.07-0.094 0.139-0.198 0.218-0.303 1.712-2.521 3.554-4.984 5.443-7.399 0.436-0.563 0.881-1.123 1.328-1.683 0.732-0.933 1.483-1.855 2.235-2.775 5.505-6.743 6.702-8.398 8.859-10.681C45.252 183.757 46.806 184.327 48.399 184.868zM43.154 182.938c-2.722 2.521-4.514 4.708-9.047 10.241 1.425-3.317 3.316-7.444 5.79-11.571C40.966 182.064 42.045 182.513 43.154 182.938zM35.532 179.629c-2.483 3.558-4.74 7.324-6.135 11.317 2.098-3.767 4.463-7.37 6.622-11.089 1.108 0.533 2.247 1.046 3.406 1.542 -2.041 2.976-4.188 6.989-6.86 13.683 -2.644 3.319-5.137 6.78-7.295 10.424 -3.583-1.209-8.789-3.045-9.481-3.303 -1.575-0.513-3.713-1.53-5.592-2.528 -0.09-0.048-0.168-0.096-0.259-0.133 -0.959-0.522-1.83-1.026-2.502-1.454 1.099-1.065 2.207-2.113 3.336-3.129 0.168-0.161 0.345-0.322 0.523-0.475 6.623-5.991 13.699-11.251 22.161-15.892C34.126 178.944 34.82 179.288 35.532 179.629zM5.326 190.289c5.265-5.6 13.708-10.716 25.307-13.196 0.743 0.418 1.504 0.826 2.287 1.225 -7.898 3.736-15.372 8.729-22.488 15.577 -0.435-0.313-0.9-0.639-1.366-0.972 -0.098-0.065-0.207-0.143-0.307-0.21C7.552 191.858 6.335 191.004 5.326 190.289zM4.475 196.232c0.029 0.019 0.059 0.049 0.089 0.067 0 0-0.01 0.01-0.021 0.019C4.523 196.281 4.503 196.251 4.475 196.232zM3.257 202.271c-0.12-0.076-0.248-0.162-0.367-0.237 -0.822-0.53-1.643-1.046-2.435-1.513 1.366-1.501 2.98-2.747 4.494-3.918 0.03-0.026 0.07-0.047 0.1-0.085 1.287-0.979 2.503-1.92 3.404-2.91 0.466 0.287 0.94 0.57 1.406 0.846 -1.039 1.019-2.079 2.085-3.098 3.187 -0.089 0.086-0.169 0.173-0.248 0.267 0.198 0.171 0.406 0.332 0.614 0.485 0.307 0.237 0.634 0.447 0.96 0.628 0.484 0.257 0.96 0.533 1.426 0.817 -1.505 1.103-2.91 2.547-4.069 3.929C4.732 203.27 3.998 202.768 3.257 202.271zM3.108 207.55c0.703-1.01 1.555-2.17 2.494-3.32 0.07-0.077 0.129-0.15 0.188-0.229 1.217-1.454 2.583-2.891 4-4.003 1.009 0.6 2.019 1.206 3.116 1.701 1.744 0.771 3.515 1.455 5.326 2.082 2.197 0.763 4.493 1.531 6.818 2.084 -0.335 0.581-0.661 1.16-0.979 1.75 -0.038 0.058-0.068 0.113-0.099 0.17 0.118 0.077 0.237 0.162 0.357 0.24 0.563 0.37 1.187 0.721 1.85 1.054 -1.296 1.646-2.544 3.966-3.751 6.361 -3.652-1.17-7.304-2.368-10.827-3.841 -1.882-0.828-3.761-1.616-5.583-2.567 -0.098-0.047-0.445-0.229-0.93-0.477 0.238-0.94 0.415-1.891 0.514-2.861 -0.188 0.931-0.465 1.834-0.771 2.729C4.336 208.156 3.722 207.852 3.108 207.55zM180.986 226.366c-3.603 0.037-8.088 0.22-13.421 0.419 -6.868 0.267-15.162 0.569-24.814 0.705 -6.083 0.084-12.925 0.388-20.694 0.691 -9.314 0.354-19.982 0.704-32.334 0.647 -6.205-0.018-12.838-0.151-19.934-0.428 -8.324-0.332-17.292-0.864-26.961-1.693 -6.948-0.588-11.887-0.958-15.569-1.188 -9.315-0.574-18.201-0.425-24.288-0.809 0-0.004 0-0.007 0-0.011 -0.068-2.271-0.119-4.543 0.059-6.799 0.099-3.089 1.208-5.961 1.95-8.909 0.594 0.362 1 0.618 1.039 0.637 1.782 1.056 3.722 1.893 5.642 2.663 3.493 1.398 7.047 2.405 10.708 3.263 -0.168 0.342-0.336 0.684-0.503 1.027 -0.029 0.056-0.218 0.425-0.445 0.911 -0.03 0.048-0.06 0.104-0.09 0.162 0.07 0.037 0.139 0.066 0.208 0.094 1.248 0.533 2.515 0.998 3.831 1.418 1.178 0.322 2.355 0.646 3.533 0.95 0.09 0.031 0.178 0.048 0.267 0.066 0.041-0.057 0.071-0.104 0.101-0.161 1.703-3.032 3.058-6.209 4.82-8.452 0.048-0.067 0.098-0.144 0.168-0.209 0.177-0.237 0.375-0.457 0.584-0.666 0.552 0.313 1.216 0.656 1.968 1.018 0.01 0 0.021 0.01 0.039 0.01 2 0.969 4.603 2.033 7.315 2.9 -0.03 0.466-0.04 0.932-0.06 1.396 0 0.105-0.01 0.22-0.01 0.335 0.179 0.067 0.367 0.131 0.555 0.189 2.276 0.741 4.611 1.368 6.947 1.968 0.148 0.038 0.287 0.076 0.436 0.116 0.029-0.096 0.059-0.201 0.089-0.307 0.188-0.685 0.376-1.377 0.563-2.072 1.287 0.874 2.91 1.798 7.712 2.53 1.196 0.179 2.425 0.351 3.661 0.475 0.148 0.019 0.296 0.028 0.435 0.048 2.138 0.199 4.306 0.285 6.434 0.151 -0.119 0.466-0.218 0.932-0.328 1.398 -0.009 0.047-0.019 0.096-0.029 0.152 0.208 0.019 0.425 0.059 0.644 0.085 1.305 0.21 2.613 0.513 3.929 0.695 2.712 0.407 9.304 0.189 14.856-1.15 -0.019 0.722-0.019 1.426-0.029 2.11 0 0.028 0 0.065 0 0.095 0.167 0.019 0.346 0.027 0.514 0.037 2.684 0.229 5.385 0.429 8.037 0.105 0.178-0.019 0.356-0.047 0.545-0.075 0-0.067 0-0.144 0-0.209 0.029-0.573 0.048-1.074 0.048-1.504 0.781 0.085 1.573 0.246 2.337 0.361 1.632 0.267 6.856 0.657 11.239-0.333 0.121 0.572 0.262 1.142 0.42 1.702 0.028 0.095 0.049 0.182 0.074 0.266l0.321 0.021c0.366 0.027 0.632 0.047 0.703 0.057 2.235 0.199 4.502-0.067 6.709-0.629l0.457-0.122c-0.011-0.104-0.029-0.21-0.051-0.314 -0.129-0.866-0.277-1.73-0.456-2.691 0.367-0.029 0.685-0.038 0.901-0.058 8.176-0.809 4.037-0.151 11.987-2.179 5.986-1.521 9.146-2.851 11.471-4.269 0.267 0.438 0.516 0.876 0.771 1.313 0.019 0.048 0.051 0.104 0.08 0.152 0.157-0.048 0.306-0.104 0.466-0.152 2.8-0.97 5.403-2.369 8.075-3.623 0.109-0.047 0.228-0.105 0.336-0.152 0.545-0.257 1.101-0.504 1.664-0.742 1.296 2.272 3.117 4.26 4.929 6.249 1.021 1.102 2.228 2.205 3.128 3.431 0.07 0.097 0.139 0.191 0.198 0.286 0.167-0.01 0.327-0.021 0.484-0.029 3.147-0.207 6.147-0.808 9.036-2.177 0.17-0.084 0.339-0.172 0.507-0.256 -0.042-0.059-0.081-0.115-0.12-0.162 -0.349-0.466-0.693-0.925-1.07-1.38 2.351-1.321 2.844-1.74 4.683-2.814 0.663 0.742 1.307 1.456 1.91 2.103 0.04 0.065 0.099 0.122 0.157 0.179 0.102-0.01 0.211-0.027 0.308-0.047 2.187-0.456 3.901-2.148 5.672-3.813 0.06-0.047 0.109-0.105 0.168-0.161 -0.028-0.037-0.059-0.084-0.1-0.123 -1.198-1.531-2.791-3.071-4.137-4.154 2.998-1.494 5.514-2.341 8.324-4.404 0.108-0.074 0.217-0.162 0.327-0.247 -0.031-0.037-0.062-0.086-0.089-0.125 -0.437-0.579-0.901-1.149-1.375-1.72 1.127-0.522 2.393-1.75 3.998-3.243 -0.179 1.816-0.278 3.634-0.082 5.429 0.625 5.517 4.219 7.049 3.378 18.552 -0.13 1.751-0.109 3.491-0.12 5.23C191.488 226.366 186.232 226.31 180.986 226.366z" fill="#d18b00" stroke-width="none" opacity="1" stroke="none"></path></g><g id="svga-group-head" ><g id="svga-group-ears-left" style="display:none;"><path id="SvgjsPath6190" d="M47.34 82.049c-1.378-2.352-9.403-6.527-11.855-6.357 -4.229 0.292-5.137 5.152-5.446 7.479 -0.609 4.591 0.645 9.778 1.485 12.908 0.687 2.557 2.874 7.41 4.214 9.664 1.197 2.016 4.145 5.663 5.733 7.358 1.398 1.495 4.73 4.215 7.248 3.551 2.769-0.728 6.015-3.857 6.239-5.193C56.165 104.212 50.926 88.167 47.34 82.049z" fill="#93614a" stroke="#652e15" stroke-width="1.5" opacity="1"></path><path id="SvgjsPath6191" d="M42.903 98.548c-0.142-0.572 0.007-1.535 0.151-2.465 0.131-0.848 0.255-1.648 0.18-2.214 -0.284-2.121-1.888-6.15-2.936-8.334 -1.206-2.511-3.157-5.674-5.602-6.492 -1.011-0.338-2.073-0.511-2.145-0.236 -0.611 1.9-0.563 7.178-0.212 11.086 0.987 10.992 10.375 18.911 11.872 20.578 0.276 0.308 0.566 0.49 0.637 0.416 0.072-0.074-0.1-0.379-0.375-0.688 -1.477-1.654-8.314-8.49-9.27-12.807 -1.012-4.581 3-12.111 3.776-13.548 0.397 0.675 0.732 1.322 0.991 1.862 0.204 0.424 0.429 0.92 0.66 1.456 -0.456 0.75-3.656 6.219-2.489 10.596 0.431 1.615 2.379 3.695 3.67 4.266 0.71 0.314 0.978 0.783 1.287 1.325 0.359 0.63 0.765 1.343 1.946 1.861 0.24 0.106 0.457 0.148 0.649 0.148 0.333 0 0.586-0.132 0.773-0.288 0.019 0.275-0.349 2.463-0.357 2.789 -0.012 0.421 0.045 0.77 0.146 0.778 0.101 0.008 0.207-0.327 0.221-0.749 0.016-0.518 0.379-2.992 0.289-3.297 -0.264-0.902-1.073-1.921-1.93-3C43.994 100.53 43.122 99.432 42.903 98.548zM34.428 94.672c-2.316-7.025 1.456-13.179 1.977-14.144 0.906 0.808 1.704 1.89 2.354 2.948C38.286 84.321 34.526 89.947 34.428 94.672zM45.187 104.856c-1.069-0.469-1.427-1.096-1.774-1.704 -0.313-0.549-0.637-1.118-1.458-1.481 -0.179-0.08-0.375-0.199-0.576-0.338 -2.646-6.164 0.289-8.857 1.025-9.411 0.226 0.754 0.394 1.445 0.468 2 0.067 0.509-0.058 1.317-0.179 2.1 -0.149 0.97-0.305 1.973-0.144 2.621 0.239 0.967 1.137 2.098 2.005 3.191 0.771 0.971 1.562 1.97 1.832 2.786C46.271 104.783 45.905 105.173 45.187 104.856z" fill="#652e15" stroke-width="none" opacity="1" stroke="none"></path></g><g id="svga-group-ears-right" style="display:none;"><path id="SvgjsPath6192" d="M152.398 82.049c1.377-2.352 9.402-6.527 11.855-6.357 4.229 0.292 5.137 5.152 5.445 7.479 0.609 4.591-0.645 9.778-1.484 12.908 -0.688 2.557-2.875 7.41-4.215 9.664 -1.197 2.016-4.145 5.663-5.732 7.358 -1.398 1.495-4.73 4.215-7.248 3.551 -2.77-0.728-6.016-3.857-6.238-5.193C143.574 104.212 148.813 88.167 152.398 82.049z" fill="#93614a" stroke="#652e15" stroke-width="1.5" opacity="1"></path><path id="SvgjsPath6193" d="M154.902 101.59c-0.855 1.08-1.666 2.098-1.93 3 -0.09 0.305 0.273 2.779 0.289 3.297 0.014 0.422 0.119 0.757 0.221 0.749 0.102-0.009 0.158-0.357 0.146-0.778 -0.01-0.326-0.377-2.514-0.357-2.789 0.188 0.156 0.439 0.288 0.771 0.288 0.193 0 0.41-0.042 0.65-0.148 1.182-0.518 1.588-1.23 1.945-1.861 0.311-0.542 0.578-1.011 1.287-1.325 1.291-0.571 3.24-2.651 3.67-4.266 1.168-4.376-2.031-9.846-2.488-10.596 0.23-0.536 0.457-1.032 0.66-1.456 0.26-0.54 0.594-1.188 0.99-1.862 0.777 1.437 4.789 8.967 3.777 13.548 -0.955 4.317-7.793 11.153-9.27 12.807 -0.275 0.31-0.447 0.614-0.375 0.688s0.361-0.108 0.637-0.416c1.498-1.667 10.885-9.585 11.873-20.578 0.35-3.908 0.396-9.187-0.213-11.086 -0.072-0.274-1.135-0.102-2.145 0.236 -2.445 0.817-4.396 3.98-5.604 6.492 -1.047 2.185-2.65 6.213-2.936 8.334 -0.076 0.566 0.049 1.366 0.18 2.214 0.145 0.93 0.293 1.893 0.15 2.465C156.617 99.432 155.744 100.53 154.902 101.59zM160.979 83.476c0.65-1.058 1.449-2.14 2.355-2.948 0.52 0.964 4.291 7.119 1.977 14.144C165.211 89.947 161.453 84.321 160.979 83.476zM153.352 104.62c0.271-0.815 1.063-1.814 1.832-2.786 0.869-1.093 1.766-2.224 2.006-3.191 0.16-0.648 0.006-1.651-0.145-2.621 -0.121-0.783-0.246-1.591-0.178-2.1 0.074-0.555 0.242-1.245 0.467-2 0.736 0.553 3.672 3.247 1.025 9.411 -0.201 0.139-0.396 0.258-0.576 0.338 -0.82 0.363-1.145 0.932-1.457 1.481 -0.348 0.608-0.705 1.235-1.775 1.704C153.834 105.173 153.467 104.783 153.352 104.62z" fill="#652e15" stroke-width="none" opacity="1" stroke="none"></path></g><g id="svga-group-faceshape-wrap" ><g id="svga-group-faceshape-single" ><path id="SvgjsPath6251" d="M158.785 76.762l-0.005 0c-0.012 0.053-10.717 44.373-18.919 56.95 -6.452 9.895-28.166 25.54-39.84 25.558 -11.671 0.02-33.437-15.559-39.918-25.433C51.861 121.285 41.017 77 41.005 76.946h-0.001c-1.298-4.911-1.994-10.066-2.002-15.382C38.949 28.09 66.155 0.919 99.773 0.867c33.621-0.052 60.913 27.033 60.964 60.507C160.746 66.69 160.068 71.846 158.785 76.762z" fill="#93614a" stroke-width="none" opacity="1" stroke="none"></path><path id="SvgjsPath6252" d="M125.766 6.622c19.104 10.248 32.075 30.355 32.039 53.476 -0.009 5.316-0.704 10.471-2.003 15.382h-0.001c-0.012 0.053-10.856 44.339-19.099 56.891 -5.946 9.061-24.555 25.121-36.833 25.121 -12.279 0-30.886-16.061-36.833-25.121 -8.242-12.552-19.086-56.837-19.098-56.891h-0.001c-1.298-4.911-1.994-10.066-2.002-15.382C41.898 36.977 54.87 16.87 73.972 6.622 53.277 16.324 38.963 37.28 39.001 61.564c0.008 5.316 0.704 10.471 2.002 15.382h0.001c0.012 0.053 10.856 44.339 19.098 56.891 4.416 6.728 15.922 16.095 26.5 21.382 -0.529-0.226-1.062-0.466-1.599-0.717 5.408 2.875 10.664 4.763 14.713 4.768 0.049 0 0.103-0.005 0.152-0.005s0.103 0.005 0.152 0.005c4.049-0.005 9.305-1.893 14.714-4.768 -0.538 0.253-1.071 0.491-1.601 0.718 10.577-5.287 22.085-14.655 26.501-21.383 8.242-12.552 19.087-56.837 19.098-56.891h0.002c1.298-4.911 1.994-10.066 2.002-15.382C160.775 37.28 146.462 16.324 125.766 6.622z" fill="#8b573f" stroke-width="none" opacity="1" stroke="none"></path><path id="SvgjsPath6253" d="M158.785 76.762l-0.005 0c-0.012 0.053-10.717 44.373-18.919 56.95 -6.452 9.895-28.166 25.54-39.84 25.558 -11.671 0.02-33.437-15.559-39.918-25.433C51.861 121.285 41.017 77 41.005 76.946h-0.001c-1.298-4.911-1.994-10.066-2.002-15.382C38.949 28.09 66.155 0.919 99.773 0.867c33.621-0.052 60.913 27.033 60.964 60.507C160.746 66.69 160.068 71.846 158.785 76.762z" fill="none" stroke="#652e15" stroke-width="1.5" opacity="1"></path></g></g><g id="svga-group-mouth-single" ><path id="SvgjsPath6179" d="M100.002 141.248c-4.158 0-5.133-3.404-5.133-3.404 5.5 2.12 10.267-0.146 10.267-0.146S103.659 141.248 100.002 141.248z" fill="url(#SvgjsLinearGradient6180)" opacity="1"></path><path id="SvgjsPath6183" d="M86.803 131.94c2.756-0.951 6.973-2.692 9.166-2.789 1.133-0.052 2.351 0.87 3.574 1.165 0.851 0.206 3.264-1.156 4.13-1.165 2.272-0.024 7.06 1.838 9.502 2.789 0.135 0.054 0 0 0 0s-5.789 6.953-13.185 6.953C91.618 138.894 86.803 131.94 86.803 131.94S86.666 131.989 86.803 131.94z" fill="#6f147c" stroke="#60076d" stroke-width="0.75" opacity="1"></path><path id="SvgjsPath6184" d="M113.541 131.736c-0.048-0.164-0.482-0.367-0.653-0.359 -0.311 0.017-0.672 0.396-1.313 0.41 -0.742 0.018-4.679 0.61-5.736 0.54 -2.129-0.142-3.824 0.666-5.848 0.666 -2.025 0-3.868-0.882-5.996-0.739 -1.057 0.072-4.847-0.448-5.591-0.467 -0.643-0.015-0.892-0.411-1.166-0.464 -0.192-0.036-0.663 0.166-0.757 0.338 -0.083 0.149 0.092 0.67 0.209 0.794 0.285 0.297 1.136 0.242 1.698 0.256 0.777 0.017 4.577 0.538 5.65 0.466 2.081-0.141 3.936 0.822 5.952 0.822s3.725-0.889 5.806-0.748c1.071 0.071 5.015-0.524 5.793-0.54 0.563-0.014 1.366-0.061 1.654-0.292C113.379 132.311 113.59 131.904 113.541 131.736z" fill="#44004e" stroke-width="none" opacity="1" stroke="none"></path><path id="SvgjsPath6185" d="M99.989 137.352c-3.37 0-6.645-1.153-9.241-3.305 1.307-0.072 2.652-0.277 3.961-0.22 1.613 0.07 3.144 0.707 4.756 0.813 1.742 0.116 3.358-0.487 5.064-0.694 1.422-0.17 3.664-0.674 5.091-0.622C107.068 135.28 103.244 137.352 99.989 137.352zM104.562 131.739c1.314-0.037 3.414-0.532 4.724-0.437 -1.405-0.759-3.657-0.941-5.243-1.247 -1.366-0.266-2.738 0.791-4.081 0.968 -1.514 0.199-2.65-1.239-4.119-1.288 -1.593 0.017-3.233 0.991-4.634 1.65 1.284-0.034 2.607-0.176 3.886-0.012 1.566 0.199 3.069 0.817 4.655 0.87C101.373 132.299 102.939 131.782 104.562 131.739z" fill="#7e248b" stroke-width="none" opacity="1" stroke="none"></path><path id="SvgjsPath6186" d="M99.941 136.4c-2.029 0-4.007-0.702-5.707-2.002 0.38-0.038 0.764-0.067 1.133-0.067 0.117 0 0.234 0.004 0.351 0.011 0.609 0.032 1.209 0.207 1.846 0.393 0.618 0.178 1.256 0.363 1.923 0.42 0.132 0.01 0.264 0.015 0.395 0.015 0.819 0 1.596-0.204 2.348-0.4 0.477-0.125 0.928-0.243 1.392-0.313 0.253-0.04 0.527-0.059 0.837-0.059 0.268 0 0.544 0.015 0.818 0.036C103.862 135.485 102.03 136.4 99.941 136.4z" fill="#8e389b" stroke-width="none" opacity="1" stroke="none"></path></g><g id="svga-group-eyes-left" ><g id="svga-group-eyesback-left"><path id="SvgjsPath6109" d="M79.063 92.229c-4.31 0.755-7.656 0.71-10.688-0.204 -3.127-0.943-7.188-4.825-8.596-8.495 3.715-0.277 11.349-0.597 14.89-0.154 4.688 0.586 9.474 2.406 12.305 5.236 -0.016 0.294-0.053 0.583-0.087 0.872C84.602 91.031 81.366 91.825 79.063 92.229z" fill="url(#SvgjsRadialGradient6110)" opacity="1"></path></g><g id="svga-group-eyesiriswrapper-left" transform="translate(-1 0.5)"><g id="svga-group-eyesiriscontrol-left" ><g id="svga-group-eyesiris-left" ><path id="SvgjsPath6278" d="M83.206 89.25c-1.231 4.522-5.896 7.187-10.429 5.944 -4.528-1.241-7.203-5.918-5.97-10.442 1.23-4.526 5.905-7.19 10.434-5.947C81.768 80.045 84.439 84.723 83.206 89.25z" fill="#4d3623" stroke="#1f1105" stroke-width="0.5" opacity="1"></path><path id="SvgjsPath6279" d="M73.962 81.918l-0.221-0.395c-0.776 0.308-1.524 0.631-2.232 0.973l0.524 1.267 -0.066 0.732 -2.021-1.189c-0.66 0.367-1.273 0.75-1.867 1.14l0.005 0.013 -0.692 0.78 1.107 1.132 -1.491 0.813 0.563 0.931 2.633 0.262 -2.468 1.673 2.641-0.146L68.984 92.3l3.255-1.969 -0.875 3.349 1.883-3.093 0.363 3.319 0.544-2.936 0.5-0.061 0.709 3.329 0.216-0.998c0.284-0.074 1.018 0.997 1.297 0.922l-0.829-3.621 1.817 3.621 -0.737-3.756 2.236 2.905c0.08-0.025 0.278-1.204 0.357-1.228l-1.392-2.081 2.53 0.763 -1.518-1.643 -1.219-1.009 5.083 1.137 -2.83-1.723 2-0.818 -4.329-0.437 4.281-2.27 -3.875 0.988 -1.043-0.565 -0.256-0.501 0.074-1.199 0.086-1.967 -1.768 3.113 -0.156-2.279 -0.222-0.597c-0.354 0.124-0.702 0.245-1.043 0.375L73.962 81.918z" fill="#5c4633" stroke-width="none" opacity="1" stroke="none"></path><path id="SvgjsPath6280" d="M83.303 85.237c-7.429 0.338-11.206 1.927-16.591 3.727 -1.038-4.574 1.839-9.12 6.42-10.149C77.712 77.786 82.267 80.661 83.303 85.237z" fill="#3e2816" stroke-width="none" opacity="0.9" stroke="none"></path><path id="SvgjsPath6281" d="M76.234,84.165c-1.869-0.536-3.777,0.532-4.258,2.395c-0.484,1.853,0.64,3.793,2.51,4.329c1.871,0.537,3.781-0.532,4.264-2.386C79.237,86.639,78.107,84.7,76.234,84.165z" fill="#000000" stroke-width="none" opacity="0.8"></path><path id="SvgjsPath6282" d="M76.234,84.165c-1.869-0.536-3.777,0.532-4.258,2.395c-0.484,1.853,0.64,3.793,2.51,4.329c1.871,0.537,3.781-0.532,4.264-2.386C79.237,86.639,78.107,84.7,76.234,84.165z" fill="none" stroke="#1f1105" stroke-width="0.75" opacity="1"></path><path id="SvgjsPath6283" d="M68.812 92.044c0.868 1.378 2.021 2.416 3.653 2.762 1.879 0.398 2.094-2.101 0.748-2.387 -1.02-0.215-1.667-0.715-2.199-1.561C70.039 89.31 68.029 90.803 68.812 92.044L68.812 92.044z" fill="#ffffff" stroke-width="none" opacity="0.5"></path><path id="SvgjsPath6284" d="M76.468 83.449c1.316 0.265 2.082 1.087 2.747 2.323 1.222 2.272 4.676 0.252 3.453-2.019 -1.073-1.995-2.86-3.703-5.138-4.162C74.615 79.004 74.206 82.993 76.468 83.449L76.468 83.449z" fill="url(#SvgjsLinearGradient6285)" opacity="1"></path></g></g></g><g id="svga-group-eyesfront-left"><path id="SvgjsPath6134" d="M56 88c0 13.808 8.06 24.999 18 24.999S92 101.808 92 88c0-13.809-8.06-25.001-18-25.001S56 74.191 56 88zM59.78 83.53c3.715-0.277 11.349-0.597 14.89-0.154 4.952 0.619 10.04 2.6 12.788 5.71 -2.289 1.82-5.897 2.705-8.395 3.143 -4.31 0.755-7.656 0.71-10.688-0.204C65.249 91.083 61.188 87.2 59.78 83.53z" fill="#93614a" stroke-width="none" opacity="1" stroke="none"></path><path id="SvgjsPath6135" d="M56.143 86.915c0.027 8.284 8.484 14.962 18.902 14.919 10.414-0.047 18.836-6.796 18.813-15.08 -0.027-8.285-8.486-14.963-18.902-14.92C64.539 71.881 56.119 78.63 56.143 86.915zM59.78 83.53c3.715-0.277 11.349-0.597 14.89-0.154 4.952 0.619 10.04 2.6 12.788 5.71 -2.289 1.82-5.897 2.705-8.395 3.143 -4.31 0.755-7.656 0.71-10.688-0.204C65.249 91.083 61.188 87.2 59.78 83.53z" fill="url(#SvgjsRadialGradient6136)" opacity="1"></path><path id="SvgjsPath6140" d="M59.78 83.53c3.715-0.277 11.349-0.597 14.89-0.154 4.952 0.619 10.04 2.6 12.788 5.71 -2.289 1.82-5.897 2.705-8.395 3.143 -4.31 0.755-7.656 0.71-10.688-0.204C65.249 91.083 61.188 87.2 59.78 83.53z" fill="url(#SvgjsRadialGradient6141)" opacity="1"></path><path id="SvgjsPath6144" d="M67.363 79.695c6.133-0.278 8.613 0.088 12.986 1.384 1.662 0.602 1.852 0.772 2.555 1.214C79.119 80.256 68.83 79.641 67.363 79.695zM59.396 86.752c2.854 5.494 4.797 4.894 7.531 6.058 0.025 0.009-1.51-0.579-2.664-1.196C61.273 89.895 60.908 89.163 59.396 86.752z" fill="#652e15" stroke-width="none" opacity="1" stroke="none"></path><path id="SvgjsPath6145" d="M56 81.734c3.096 2.525 4.363 5.953 7.398 8.529 2.037 1.729 5.877 2.717 9.602 2.773 3.844 0.058 8.59-0.434 10.258-0.855 2.838-0.718 3.539-1.278 6.742-1.472 -1.986-3.039-3.836-4.399-6.268-5.841 -2.977-1.764-5.074-2.279-8.719-2.564C70.16 81.924 56 81.734 56 81.734zM60.705 83.826c3.467-0.258 10.59-0.557 13.895-0.144 4.621 0.577 9.369 2.426 11.934 5.328 -2.137 1.699-5.504 2.524-7.834 2.933 -4.021 0.705-7.145 0.663-9.973-0.19C65.809 90.874 62.02 87.251 60.705 83.826z" fill="#131111" stroke-width="none" opacity="1" stroke="none"></path></g></g><g id="svga-group-eyes-right" ><g id="svga-group-eyesback-right"><path id="SvgjsPath6117" d="M120.937 92.229c4.31 0.755 7.656 0.71 10.688-0.204 3.127-0.943 7.188-4.825 8.596-8.495 -3.715-0.277-11.349-0.597-14.89-0.154 -4.688 0.586-9.474 2.406-12.305 5.236 0.016 0.294 0.053 0.583 0.087 0.872C115.398 91.031 118.634 91.825 120.937 92.229z" fill="url(#SvgjsRadialGradient6118)" opacity="1"></path></g><g id="svga-group-eyesiriswrapper-right" transform="translate(1 0.5)"><g id="svga-group-eyesiriscontrol-right" ><g id="svga-group-eyesiris-right" ><path id="SvgjsPath6288" d="M133.199 89.25c-1.231 4.522-5.896 7.187-10.429 5.944 -4.528-1.241-7.203-5.918-5.97-10.442 1.23-4.526 5.905-7.19 10.434-5.947C131.761 80.045 134.433 84.723 133.199 89.25z" fill="#4d3623" stroke="#1f1105" stroke-width="0.5" opacity="1"></path><path id="SvgjsPath6289" d="M123.955 81.918l-0.221-0.395c-0.776 0.308-1.524 0.631-2.232 0.973l0.524 1.267 -0.066 0.732 -2.021-1.189c-0.66 0.367-1.273 0.75-1.867 1.14l0.005 0.013 -0.692 0.78 1.107 1.132L117 87.182l0.563 0.931 2.633 0.262 -2.468 1.673 2.641-0.146 -1.392 2.398 3.255-1.969 -0.875 3.349 1.883-3.093 0.363 3.319 0.544-2.936 0.5-0.061 0.709 3.329 0.216-0.998c0.284-0.074 1.018 0.997 1.297 0.922l-0.829-3.621 1.817 3.621 -0.737-3.756 2.236 2.905c0.08-0.025 0.278-1.204 0.357-1.228l-1.392-2.081 2.53 0.763 -1.518-1.643 -1.219-1.009 5.083 1.137 -2.83-1.723 2-0.818 -4.329-0.437 4.281-2.27 -3.875 0.988 -1.043-0.565 -0.256-0.501 0.074-1.199 0.086-1.967 -1.768 3.113 -0.156-2.279 -0.222-0.597c-0.354 0.124-0.702 0.245-1.043 0.375L123.955 81.918z" fill="#5c4633" stroke-width="none" opacity="1" stroke="none"></path><path id="SvgjsPath6290" d="M133.296 85.237c-7.429 0.338-11.206 1.927-16.591 3.727 -1.038-4.574 1.839-9.12 6.42-10.149C127.705 77.786 132.26 80.661 133.296 85.237z" fill="#3e2816" stroke-width="none" opacity="0.9" stroke="none"></path><path id="SvgjsPath6291" d="M126.229,84.165c-1.869-0.536-3.777,0.532-4.259,2.395c-0.484,1.853,0.641,3.793,2.509,4.329c1.873,0.537,3.78-0.532,4.266-2.386C129.229,86.639,128.101,84.7,126.229,84.165z" fill="#000000" stroke-width="none" opacity="0.8"></path><path id="SvgjsPath6292" d="M126.229,84.165c-1.869-0.536-3.777,0.532-4.259,2.395c-0.484,1.853,0.641,3.793,2.509,4.329c1.873,0.537,3.78-0.532,4.266-2.386C129.229,86.639,128.101,84.7,126.229,84.165z" fill="none" stroke="#1f1105" stroke-width="0.75" opacity="1"></path><path id="SvgjsPath6293" d="M118.805 92.044c0.868 1.378 2.021 2.416 3.653 2.762 1.879 0.398 2.094-2.101 0.748-2.387 -1.02-0.215-1.667-0.715-2.199-1.561C120.032 89.31 118.022 90.803 118.805 92.044L118.805 92.044z" fill="#ffffff" stroke-width="none" opacity="0.5"></path><path id="SvgjsPath6294" d="M126.461 83.449c1.316 0.265 2.082 1.087 2.747 2.323 1.222 2.272 4.676 0.252 3.453-2.019 -1.073-1.995-2.86-3.703-5.138-4.162C124.608 79.004 124.199 82.993 126.461 83.449L126.461 83.449z" fill="url(#SvgjsLinearGradient6295)" opacity="1"></path></g></g></g><g id="svga-group-eyesfront-right"><path id="SvgjsPath6155" d="M126 62.999c-9.94 0-18 11.193-18 25.001 0 13.808 8.06 24.999 18 24.999S144 101.808 144 88C144 74.191 135.94 62.999 126 62.999zM131.624 92.025c-3.031 0.914-6.378 0.959-10.688 0.204 -2.497-0.438-6.105-1.323-8.395-3.143 2.748-3.11 7.836-5.091 12.788-5.71 3.541-0.443 11.175-0.123 14.89 0.154C138.812 87.2 134.751 91.083 131.624 92.025z" fill="#93614a" stroke-width="none" opacity="1" stroke="none"></path><path id="SvgjsPath6156" d="M125.045 71.834c-10.416-0.043-18.875 6.635-18.902 14.92 -0.023 8.284 8.398 15.033 18.813 15.08 10.418 0.043 18.875-6.635 18.902-14.919C143.881 78.63 135.461 71.881 125.045 71.834zM131.624 92.025c-3.031 0.914-6.378 0.959-10.688 0.204 -2.497-0.438-6.105-1.323-8.395-3.143 2.748-3.11 7.836-5.091 12.788-5.71 3.541-0.443 11.175-0.123 14.89 0.154C138.812 87.2 134.751 91.083 131.624 92.025z" fill="url(#SvgjsRadialGradient6157)" opacity="1"></path><path id="SvgjsPath6161" d="M140.22 83.53c-3.715-0.277-11.349-0.597-14.89-0.154 -4.952 0.619-10.04 2.6-12.788 5.71 2.289 1.82 5.897 2.705 8.395 3.143 4.31 0.755 7.656 0.71 10.688-0.204C134.751 91.083 138.812 87.2 140.22 83.53z" fill="url(#SvgjsRadialGradient6162)" opacity="1"></path><path id="SvgjsPath6165" d="M117.096 82.293c0.703-0.442 0.893-0.613 2.555-1.214 4.373-1.295 6.854-1.662 12.986-1.384C131.17 79.641 120.881 80.256 117.096 82.293zM135.736 91.614c-1.154 0.617-2.689 1.205-2.664 1.196 2.734-1.164 4.678-0.564 7.531-6.058C139.092 89.163 138.727 89.895 135.736 91.614z" fill="#652e15" stroke-width="none" opacity="1" stroke="none"></path><path id="SvgjsPath6166" d="M124.986 82.304c-3.645 0.285-5.742 0.8-8.719 2.564 -2.432 1.441-4.281 2.802-6.268 5.841 3.203 0.193 3.904 0.754 6.742 1.472 1.668 0.421 6.414 0.913 10.258 0.855 3.725-0.056 7.564-1.044 9.602-2.773 3.035-2.576 4.303-6.003 7.398-8.529C144 81.734 129.84 81.924 124.986 82.304zM131.273 91.753c-2.828 0.853-5.951 0.895-9.973 0.19 -2.33-0.409-5.697-1.234-7.834-2.933 2.564-2.902 7.313-4.751 11.934-5.328 3.305-0.413 10.428-0.114 13.895 0.144C137.98 87.251 134.191 90.874 131.273 91.753z" fill="#131111" stroke-width="none" opacity="1" stroke="none"></path></g></g><g id="svga-group-facehighlight-single" ><path id="SvgjsPath5925" d="M140.204 113.007c0.035 22.275-17.995 40.365-40.273 40.396 -22.274 0.036-40.361-17.993-40.396-40.272C59.501 90.857 77.53 72.77 99.808 72.735 122.083 72.701 140.171 90.73 140.204 113.007z" fill="url(#SvgjsRadialGradient5926)" opacity="1"></path><path id="SvgjsPath5929" d="M135,55.999c0,19.329-15.671,35-35,35c-19.329,0-35-15.671-35-35s15.671-35,35-35C119.329,20.999,135,36.67,135,55.999z" fill="url(#SvgjsRadialGradient5930)" opacity="1"></path></g><g id="svga-group-eyebrows-left" ><path id="SvgjsPath6215" d="M54.351 74.996c9.743-15.115 36.491 5.148 38.018-1.191 0.299-1.271-0.407-2.015-1.564-2.492C77.184 65.807 59.156 61.18 54.351 74.996z" fill="#2a232b" stroke-width="none" opacity="1"></path></g><g id="svga-group-eyebrows-right" ><path id="SvgjsPath6216" d="M145.649 74.996c-9.743-15.115-36.491 5.148-38.018-1.191 -0.299-1.271 0.407-2.015 1.564-2.492C122.816 65.807 140.844 61.18 145.649 74.996z" fill="#2a232b" stroke-width="none" opacity="1"></path></g><g id="svga-group-nose-single" ><path id="SvgjsPath6187" d="M105.496 114.749c0.889 6.039-4.018 3.352-5.652 3.615 -1.306 0.213-6.255 1.983-5.962-3.694 0.138-2.701 2.768-5.247 5.854-5.247C102.626 109.423 104.913 110.802 105.496 114.749z" fill="#b28e7d" stroke-width="none" opacity="0.2" stroke="none"></path><path id="SvgjsPath6188" d="M103.762 116.205c0.029 0.096-1.657 2.01-1.74 1.93 -0.439 0.316-1.191 0.45-2.019 0.458 -0.558 0.005-1.057-0.47-1.46-0.427 -0.015-0.063-3.645-1.408-3.868-1.931 -0.334 0.075-0.576 0.236-0.672 0.476 -0.248 0.624 0.567 1.547 1.82 2.063 0.619 0.254 1.561 0.434 2.049 0.402 0.331 0.478 0.906 0.743 1.984 0.734 1.189-0.012 2.336-0.283 2.549-0.843 0.292 0.178 1.4-0.069 1.814-0.27 0.457-0.222 1.215-0.857 1.233-1.633C105.467 116.506 104.473 116.081 103.762 116.205z" fill="#844e35" stroke-width="none" opacity="1" stroke="none"></path><path id="SvgjsPath6189" d="M98.529 118.552c-0.074 0.18-0.236 0.309-0.449 0.392 -0.286-0.466-0.875-0.945-1.635-1.278 -0.884-0.384-1.748-0.458-2.27-0.25 -0.182-0.296-0.243-0.583-0.142-0.821 0.26-0.62 1.477-0.68 2.72-0.141C97.995 116.995 98.79 117.936 98.529 118.552zM104.806 117.053c0.154-0.042 0.28 0.012 0.401 0.036 0.072-0.595-0.415-1.023-1.237-1.004 -0.965 0.024-2.019 0.658-2.351 1.417 -0.28 0.645 0.053 1.166 0.751 1.296C102.381 118.693 102.845 117.594 104.806 117.053z" fill="#652e15" stroke-width="none" opacity="1" stroke="none"></path></g><g id="svga-group-hair-front" ><path id="SvgjsPath6087" d="M47.869 62.985c3.513-27.218 48.858-44.766 54.189-42.089 3.002-1.44 59.328 41.036 59.561 62.839 0 0-22.007 19.356-22.043 12.485 -0.167-6.713-13.667-24.08-19.264-31.097 -5.428-6.805-11.027-15.225-14.647-23.392 -4.578 8.854-19.762 23.128-25.737 27.531C67.71 78.266 61 97.833 57.482 108.704c-0.619 1.911-4.764 11.061-5.409 13.031C47.527 110.639 44.016 90.357 47.869 62.985z" fill="#2a232b" stroke-width="none" opacity="0.1" stroke="none"></path><path id="SvgjsPath6088" d="M168.612 36.164c-11.808-25.213-46.156-48.481-67.878-36.371C56.411-23.993-12.496 66.971 47.647 132.54c0.04 0.039 0.068 0.08 0.106 0.117 6.074 6.596 13.227 12.621 20.452 17.504 -7.228-9.984-13.803-23.407-15.666-35.879 5.939-18.021 9.266-33.725 25.459-47.317 11.026-9.255 24.281-19.122 26.669-31.375 8.063 19.831 29.816 38.467 34.742 52.624 0.175 14.627-3.735 28.098-4.854 32.623 0.078-0.156 0.164-0.309 0.252-0.461 2.984-5.375 5.861-10.77 7.771-16.451 0.83 17.059-5.808 30.435-9.904 39.925 -0.024 0.074-0.057 0.152-0.096 0.229 0.096-0.055 0.184-0.117 0.277-0.174 10.322-6.818 20.082-19.361 26.105-31.27 -0.029 6.242-0.487 14.134-0.654 16.42 12.835-17.958 14.087-34.884 15.084-37.911 1.148 5.97 3.297 11.975 4.45 14.41C177.24 88.977 179.117 61.413 168.612 36.164z" fill="#2a232b" stroke-width="none" opacity="1" stroke="none"></path><path id="SvgjsPath6089" d="M51.208 109.438c0-6.093 5.659-15.235 9.328-19.373 -2.775 5.59-9.544 23.984-12.005 36.941 -10.121-26.649-12.492-60.43 1.831-85.612 -7.582 20.698-12.034 42.867-4.909 64.212 -0.282-10.386-3.378-28.761 11.511-52.691C52.404 70.117 49.348 88.952 51.208 109.438zM132.976 143.647c7.391-16.72 11.956-30.775 10.782-43.793 -2.152-25.444-27.056-37.068-38.985-64.839 0.318-1.777 0.471-3.621 0.444-5.539 9.521 17.034 19.978 32.215 32.325 47.389 8.24 11.171 9.617 24.143 9.675 37.368 8.372-21.988 6.938-47.563-1.999-68.982 10.55 22.035 11.512 45.986 7.673 69.938 9.591-21.079 15.347-44.071 9.591-67.063 7.674 15.328 6.716 32.574 4.798 49.817 4.887-15.444 4.245-31.577 4.527-47.23 4.599 17.244 5.055 34.973 5.669 53.032 -1.95-5.682-2.966-10.747-3.828-15.828 -0.933 7.967-8.212 29.021-13.68 36.627 0.328-4.131 1.277-12.111 0.624-15.301 7.063-15.559 9.48-33.147 4.829-48.237 5.855 21.703-3.052 49.26-18.405 68.239C140.26 137.597 132.976 143.647 132.976 143.647zM31.064 89.32c-6.8-45.275 9.097-58.79 13.522-70.31 -29.467 43.476-22.078 83.66 4.453 113.845 -4.957-12.771-8.754-27.238-9.195-40.821 -2.356-23.177 2.663-43.048 16.813-60.129C36.466 39.67 32.89 69.26 31.064 89.32zM61.507 71.393c0.009-0.046 0.054-0.11 0.073-0.151 6.306-13.188 36.734-34.118 34.307-50.216C95.953 36.276 64.273 57.929 61.507 71.393zM144.898 70.541c-6.164-26.016-21.354-29.824-28.256-47.629C121.069 39.346 141.615 56.636 144.898 70.541zM156.993 57.518c-0.429-1-2.813-44.361-41.932-52.052C147.991 14.834 155.178 53.282 156.993 57.518zM54.609 48.921c2.004-8.177 19.884-29.726 44.862-36.666C66.938 18.025 56.496 41.245 54.609 48.921z" fill="#1b141c" stroke-width="none" opacity="1" stroke="none"></path><path id="SvgjsPath6090" d="M139.866 89.507c1.416 4.177 2.241 8.354 2.585 12.531 -1.793 5.488-4.423 10.873-7.097 16.119C138.077 106.88 139.948 98.58 139.866 89.507zM66.029 147.937c-6.774-9.178-12.443-20.299-14.15-31.596 -1.161 3.689-2.178 7.482-3.069 11.373 -0.164 1-7.26-16.94-9.166-35.68 0.441 13.583 3.739 27.053 8.696 39.825C53.527 137.663 59.466 143.026 66.029 147.937z" fill="#0c080c" stroke-width="none" opacity="1" stroke="none"></path><path id="SvgjsPath6091" d="M99.492 21.262c6.403 27.793-34.873 40.474-47.226 76.474C58.369 65.985 105.136 46.985 99.492 21.262zM61.565 55.39c7.799-16.374 20.656-28.475 35.459-38.564C80.005 25.778 68.787 37.707 61.565 55.39zM44.976 31.335C57.328 16.982 73.192 2.764 93.413 6.039 71.708-0.369 56.906 15.907 44.976 31.335zM144.42 40.044c-7.511-14.379-11.145-24.352-28.859-28.113C128.931 15.938 138.894 27.608 144.42 40.044zM160.831 41.313c-8.623-20.082-15.026-37.805-40.267-40.29C140.522 4.832 153.31 23.794 160.831 41.313zM148.999 87.979c-6.548-25.538-31.097-43.208-37.737-69.219C117.109 44.848 140.279 62.557 148.999 87.979z" fill="#3a353a" stroke-width="none" opacity="1" stroke="none"></path><path id="SvgjsPath6092" d="M68.099 150.319c-0.357-0.24-0.713-0.482-1.071-0.742 -7.286-5.061-13.82-10.709-19.416-16.789l-0.105-0.117c-18.576-20.25-26.419-44.969-22.688-71.48C28.485 32.793 56.267-4.408 85.672-4.408c5.168 0 10.234 1.339 15.061 3.98 3.049-1.681 6.354-2.657 9.824-2.902 0.989-0.11 2.008-0.165 3.02-0.165 22.907 0 46.485 20.957 55.21 39.577 10.676 25.664 8.609 53.598 9.244 69.465 -1.773 0.431-4.38-14.611-4.7-13.611 -2.573 15.701-7.636 27.015-15.258 37.785 0.342-5.056 0.642-11.302 0.69-16.279 -5.813 11.226-16.08 24.686-26.651 31.145 0.644-1.295 5.088-11.688 6.555-15.709 2.759-8.625 3.989-16.467 3.762-23.93 -1.189 3.328-7.057 16.209-8.058 15.842 1.29-5.103 5.015-18.297 4.849-32.574 -2.741-7.384-12.181-19.162-16.715-24.847 -6.644-8.33-13.507-16.938-17.777-27.128 -2.516 11.593-15.759 20.462-25.535 29.844l-1.06 1.019C62.619 79.735 58.88 95.656 52.723 114.343c1.617 10.686 6.855 22.955 14.758 34.453l0.317 0.453c0.187 0.271 0.373 0.535 0.563 0.799L68.099 150.319zM85.601-3.042c-27.724 0-51.227 30.485-57.536 57.25 -8.282 38.193 6.515 69.453 37.047 92.8 -5.138-7.166-11.279-17.813-13.293-29.828 -1.255 4.081-2.127 7.559-2.953 11.145 -0.874-1.174-11.19-25.575-9.863-52.053 1.522-30.324 18.792-47.229 19.792-46.254C34.57 56.681 38.052 98.385 48.472 126.302c8.589-43.809 21.73-53.742 30.996-62.736 9.346-9.079 22.174-17.653 24.512-29.297 0.84-3.792 0.87-8.88-0.459-14.422 1-0.263 2.621 8.516 1.45 15.145 4.28 9.938 11.15 18.077 17.798 25.946 11.641 13.784 20.032 24.737 21.18 38.901 1.676 18.497-6.649 34.395-10.519 43.248 9.021-7.685 19.341-20.076 25.357-33.021 12.789-27.033 6.814-49.114 6.814-49.114 4.394 14.256 2.641 31.864-4.81 48.315 0.605 3.115-0.233 10.563-0.574 14.588 4.892-7.168 12.303-27.878 13.241-35.958 0.15-0.004 3.665 14.189 3.777 14.535 -0.797-25.368-1.724-48.296-12.615-70.531 -7.655-16.931-31.764-34.917-52.126-34.917 -5.002 0-10.735 1.879-15.997 6.018l-0.243-0.296c1.055-0.911 2.188-1.744 3.368-2.48C95.049-1.944 90.333-3.042 85.601-3.042zM136.789 112.726c-0.259 1.234-0.548 2.518-0.87 3.895 2.262-4.479 4.684-9.54 6.353-14.64 -0.331-3.818-1.073-7.623-2.217-11.269C139.975 98.485 138.447 105.874 136.789 112.726z" fill="#000000" stroke-width="none" opacity="1" stroke="none"></path></g><g id="svga-group-glasses-single" ><path id="SvgjsPath6057" d="M100,18.13L100,18.13L100,18.13L100,18.13z" fill="#26120b" stroke-width="none" opacity="1"></path></g></g></g><rect id="SvgjsRect5910" width="200" height="15" x="0" y="185" fill="#ecf0f1" opacity="0.5" style="display:none;"></rect><text id="SvgjsText5911" font-family="&quot;Roboto&quot;, &quot;Helvetica Neue&quot;, Helvetica, Arial, sans-serif" style="font-size:0.84em;font-family:&quot;Roboto&quot;, &quot;Helvetica Neue&quot;, Helvetica, Arial, sans-serif;text-anchor:middle;font-weight:400;display:none;" font-size="0.84em" text-anchor="middle" font-weight="400" fill="#000000" x="100" y="185"><tspan id="SvgjsTspan5912" dy="1.2em" x="100" style="font-size:0.84em;font-family:&quot;Roboto&quot;, &quot;Helvetica Neue&quot;, Helvetica, Arial, sans-serif;text-anchor:middle;font-weight:400;">Created on AvatarMaker.com</tspan></text></g><defs id="SvgjsDefs5878"><radialGradient id="SvgjsRadialGradient5926" cx="100" cy="113" r="40" gradientUnits="userSpaceOnUse" class="svga-on-canvas-facehighlight-gradient-single-0"><stop id="SvgjsStop5927" stop-opacity="0.5" stop-color="#a27662" offset="0" ></stop><stop id="SvgjsStop5928" stop-opacity="0" stop-color="#93614a" offset="0.9" ></stop></radialGradient><radialGradient id="SvgjsRadialGradient5930" cx="100" cy="57" r="36" gradientUnits="userSpaceOnUse" class="svga-on-canvas-facehighlight-gradient-single-1"><stop id="SvgjsStop5931" stop-opacity="0.5" stop-color="#a27662" offset="0" ></stop><stop id="SvgjsStop5932" stop-opacity="0" stop-color="#93614a" offset="0.9" ></stop></radialGradient><radialGradient id="SvgjsRadialGradient6015" cx="-565.337" cy="-492.691" r="84.644" gradientTransform="matrix(0.0991 8.856325e-004 -0.0011 0.0991 130.3774 136.3533)" gradientUnits="userSpaceOnUse" class="svga-on-canvas-eyesiris-gradient-left-2"><stop id="SvgjsStop6016" stop-opacity="0.8" stop-color="#ffffff" offset="0" ></stop><stop id="SvgjsStop6017" stop-opacity="0" stop-color="#ffffff" offset="1" ></stop></radialGradient><linearGradient id="SvgjsLinearGradient6021" x1="122.283" y1="93.047" x2="123.61" y2="91.466" gradientTransform="matrix(1 0 0 1 -52 0)" gradientUnits="userSpaceOnUse" class="svga-on-canvas-eyesiris-gradient-left-5"><stop id="SvgjsStop6022" stop-opacity="1" stop-color="#ffffff" offset="0" ></stop><stop id="SvgjsStop6023" stop-opacity="0" stop-color="#ffffff" offset="1" ></stop></linearGradient><linearGradient id="SvgjsLinearGradient6029" x1="130" y1="81" x2="126" y2="85" gradientTransform="matrix(1 0 0 1 -50 0)" gradientUnits="userSpaceOnUse" class="svga-on-canvas-eyesiris-gradient-left-7"><stop id="SvgjsStop6030" stop-opacity="1" stop-color="#ffffff" offset="0" ></stop><stop id="SvgjsStop6031" stop-opacity="0" stop-color="#ffffff" offset="1" ></stop></linearGradient><radialGradient id="SvgjsRadialGradient6038" cx="-584.778" cy="-487.329" r="84.644" gradientTransform="matrix(0.0991 8.856325e-004 -0.0011 0.0991 182.3104 135.839)" gradientUnits="userSpaceOnUse" class="svga-on-canvas-eyesiris-gradient-right-2"><stop id="SvgjsStop6039" stop-opacity="0.8" stop-color="#ffffff" offset="0" ></stop><stop id="SvgjsStop6040" stop-opacity="0" stop-color="#ffffff" offset="1" ></stop></radialGradient><linearGradient id="SvgjsLinearGradient6044" x1="120.284" y1="93.047" x2="121.611" y2="91.467" gradientUnits="userSpaceOnUse" class="svga-on-canvas-eyesiris-gradient-right-5"><stop id="SvgjsStop6045" stop-opacity="1" stop-color="#ffffff" offset="0" ></stop><stop id="SvgjsStop6046" stop-opacity="0" stop-color="#ffffff" offset="1" ></stop></linearGradient><linearGradient id="SvgjsLinearGradient6052" x1="130" y1="81" x2="126" y2="85" gradientUnits="userSpaceOnUse" class="svga-on-canvas-eyesiris-gradient-right-7"><stop id="SvgjsStop6053" stop-opacity="1" stop-color="#ffffff" offset="0" ></stop><stop id="SvgjsStop6054" stop-opacity="0" stop-color="#ffffff" offset="1" ></stop></linearGradient><radialGradient id="SvgjsRadialGradient6110" cx="127" cy="87.834" r="14" gradientTransform="matrix(-1 0 0 1 200 0)" gradientUnits="userSpaceOnUse" class="svga-on-canvas-eyesback-gradient-left-0"><stop id="SvgjsStop6111" stop-opacity="1" stop-color="#ffffff" offset="0" ></stop><stop id="SvgjsStop6112" stop-opacity="1" stop-color="#fdfefe" offset="0.544" ></stop><stop id="SvgjsStop6113" stop-opacity="1" stop-color="#f6f8f9" offset="0.74" ></stop><stop id="SvgjsStop6114" stop-opacity="1" stop-color="#eaeff2" offset="0.879" ></stop><stop id="SvgjsStop6115" stop-opacity="1" stop-color="#d9e3e8" offset="0.992" ></stop><stop id="SvgjsStop6116" stop-opacity="1" stop-color="#d8e2e7" offset="1" ></stop></radialGradient><radialGradient id="SvgjsRadialGradient6118" cx="127" cy="87.834" r="14" gradientUnits="userSpaceOnUse" class="svga-on-canvas-eyesback-gradient-right-0"><stop id="SvgjsStop6119" stop-opacity="1" stop-color="#ffffff" offset="0" ></stop><stop id="SvgjsStop6120" stop-opacity="1" stop-color="#fdfefe" offset="0.544" ></stop><stop id="SvgjsStop6121" stop-opacity="1" stop-color="#f6f8f9" offset="0.74" ></stop><stop id="SvgjsStop6122" stop-opacity="1" stop-color="#eaeff2" offset="0.879" ></stop><stop id="SvgjsStop6123" stop-opacity="1" stop-color="#d9e3e8" offset="0.992" ></stop><stop id="SvgjsStop6124" stop-opacity="1" stop-color="#d8e2e7" offset="1" ></stop></radialGradient><radialGradient id="SvgjsRadialGradient6126" cx="127" cy="87.834" r="14" gradientTransform="matrix(-1 0 0 1 200 0)" gradientUnits="userSpaceOnUse" class="svga-on-canvas-eyesfront-gradient-left-0"><stop id="SvgjsStop6127" stop-opacity="1" stop-color="#ffffff" offset="0" ></stop><stop id="SvgjsStop6128" stop-opacity="1" stop-color="#fdfefe" offset="0.544" ></stop><stop id="SvgjsStop6129" stop-opacity="1" stop-color="#f6f8f9" offset="0.74" ></stop><stop id="SvgjsStop6130" stop-opacity="1" stop-color="#eaeff2" offset="0.879" ></stop><stop id="SvgjsStop6131" stop-opacity="1" stop-color="#d9e3e8" offset="0.992" ></stop><stop id="SvgjsStop6132" stop-opacity="1" stop-color="#d8e2e7" offset="1" ></stop></radialGradient><radialGradient id="SvgjsRadialGradient6136" cx="125.16" cy="86.942" fx="138.734" fy="85.449" r="18.705" gradientTransform="matrix(0.9998 0.0208 0.0131 -0.6281 -51.4298 138.9481)" gradientUnits="userSpaceOnUse" class="svga-on-canvas-eyesfront-gradient-left-3"><stop id="SvgjsStop6137" stop-opacity="1" stop-color="#844e35" offset="0" ></stop><stop id="SvgjsStop6138" stop-opacity="0.3" stop-color="#844e35" offset="0.7" ></stop><stop id="SvgjsStop6139" stop-opacity="0" stop-color="#93614a" offset="1" ></stop></radialGradient><radialGradient id="SvgjsRadialGradient6141" cx="67.721" cy="109.165" r="29.505" gradientTransform="matrix(1.0322 -0.0541 0.0541 1.0322 -5.8613 6.0176)" gradientUnits="userSpaceOnUse" class="svga-on-canvas-eyesfront-gradient-left-4"><stop id="SvgjsStop6142" stop-opacity="0" stop-color="#000000" offset="0.95" ></stop><stop id="SvgjsStop6143" stop-opacity="0.3" stop-color="#000000" offset="1" ></stop></radialGradient><radialGradient id="SvgjsRadialGradient6147" cx="127" cy="87.834" r="14" gradientUnits="userSpaceOnUse" class="svga-on-canvas-eyesfront-gradient-right-0"><stop id="SvgjsStop6148" stop-opacity="1" stop-color="#ffffff" offset="0" ></stop><stop id="SvgjsStop6149" stop-opacity="1" stop-color="#fdfefe" offset="0.544" ></stop><stop id="SvgjsStop6150" stop-opacity="1" stop-color="#f6f8f9" offset="0.74" ></stop><stop id="SvgjsStop6151" stop-opacity="1" stop-color="#eaeff2" offset="0.879" ></stop><stop id="SvgjsStop6152" stop-opacity="1" stop-color="#d9e3e8" offset="0.992" ></stop><stop id="SvgjsStop6153" stop-opacity="1" stop-color="#d8e2e7" offset="1" ></stop></radialGradient><radialGradient id="SvgjsRadialGradient6157" cx="125.16" cy="86.942" fx="138.734" fy="85.449" r="18.705" gradientTransform="matrix(-0.9998 0.0208 -0.0131 -0.6281 251.4298 138.9481)" gradientUnits="userSpaceOnUse" class="svga-on-canvas-eyesfront-gradient-right-3"><stop id="SvgjsStop6158" stop-opacity="1" stop-color="#844e35" offset="0" ></stop><stop id="SvgjsStop6159" stop-opacity="0.3" stop-color="#844e35" offset="0.7" ></stop><stop id="SvgjsStop6160" stop-opacity="0" stop-color="#93614a" offset="1" ></stop></radialGradient><radialGradient id="SvgjsRadialGradient6162" cx="67.721" cy="109.165" r="29.506" gradientTransform="matrix(-1.0322 -0.0541 -0.0541 1.0322 205.8613 6.0176)" gradientUnits="userSpaceOnUse" class="svga-on-canvas-eyesfront-gradient-right-4"><stop id="SvgjsStop6163" stop-opacity="0" stop-color="#000000" offset="0.95" ></stop><stop id="SvgjsStop6164" stop-opacity="0.3" stop-color="#000000" offset="1" ></stop></radialGradient><linearGradient id="SvgjsLinearGradient6180" x1="100" y1="141" x2="100" y2="138" gradientUnits="userSpaceOnUse" class="svga-on-canvas-mouth-gradient-single-0"><stop id="SvgjsStop6181" stop-opacity="1" stop-color="#8b573f" offset="0.1" ></stop><stop id="SvgjsStop6182" stop-opacity="1" stop-color="#844e35" offset="1" ></stop></linearGradient><linearGradient id="SvgjsLinearGradient6219" x1="130" y1="81" x2="126" y2="85" gradientTransform="matrix(1 0 0 1 -50 0)" gradientUnits="userSpaceOnUse" class="svga-on-canvas-eyesiris-gradient-left-1"><stop id="SvgjsStop6220" stop-opacity="1" stop-color="#ffffff" offset="0" ></stop><stop id="SvgjsStop6221" stop-opacity="0" stop-color="#ffffff" offset="1" ></stop></linearGradient><linearGradient id="SvgjsLinearGradient6224" x1="130" y1="81" x2="126" y2="85" gradientUnits="userSpaceOnUse" class="svga-on-canvas-eyesiris-gradient-right-1"><stop id="SvgjsStop6225" stop-opacity="1" stop-color="#ffffff" offset="0" ></stop><stop id="SvgjsStop6226" stop-opacity="0" stop-color="#ffffff" offset="1" ></stop></linearGradient><linearGradient id="SvgjsLinearGradient6255" x1="99.98" y1="171.27" x2="99.98" y2="136.351" gradientUnits="userSpaceOnUse" class="svga-on-canvas-chinshadow-gradient-single-0"><stop id="SvgjsStop6256" stop-opacity="0.8" stop-color="#844e35" offset="0" ></stop><stop id="SvgjsStop6257" stop-opacity="1" stop-color="#652e15" offset="0.7" ></stop></linearGradient><linearGradient id="SvgjsLinearGradient6285" x1="130" y1="81" x2="126" y2="85" gradientTransform="matrix(1 0 0 1 -50 0)" gradientUnits="userSpaceOnUse" class="svga-on-canvas-eyesiris-gradient-left-6"><stop id="SvgjsStop6286" stop-opacity="1" stop-color="#ffffff" offset="0" ></stop><stop id="SvgjsStop6287" stop-opacity="0" stop-color="#ffffff" offset="1" ></stop></linearGradient><linearGradient id="SvgjsLinearGradient6295" x1="130" y1="81" x2="126" y2="85" gradientUnits="userSpaceOnUse" class="svga-on-canvas-eyesiris-gradient-right-6"><stop id="SvgjsStop6296" stop-opacity="1" stop-color="#ffffff" offset="0" ></stop><stop id="SvgjsStop6297" stop-opacity="0" stop-color="#ffffff" offset="1" ></stop></linearGradient></defs></svg>