<svg xmlns="http://www.w3.org/2000/svg" version="1.1" width="600px" height="600px" xlink="http://www.w3.org/1999/xlink" style="overflow:hidden!important;"><g id="svga-group-wrapper" transform="scale(3 3)"><g id="svga-group-backs-single"><path id="SvgjsPath4092" d="M225 225H-25V-25h250V225z" fill="#ffffff" stroke-width="none" opacity="1"></path></g><g id="svga-group-subwrapper" transform="matrix(0.84999948 0 0 0.84999948 15.000125457018868 16.794583796659808)"><g id="svga-group-hair-back" ><path id="SvgjsPath3956" d="M146.969 104.885c-46.51-1.001-92.949 0.02-93.95 0.02 -2.675 4.014-4.176 11.498-3.28 15.61 0.934 4.212 4.441 8.009 5.66 16.46 0.07 0.83-0.04 1.71 0.3 2.76 0.35 1.001 2.022 3.206 3.34 3.44 0.129-0.016 0.381-0.046 0.5-0.061 0.523 0.935 1.48 1.218 2.11 0.91 1.516 2.89 3.099-0.453 5.14 1.32 3.383 2.757 3.832 0.049 6.58-0.931 2.146-0.04 5.034 3.43 7.71 0.761 5.499-5.354 8.082 4.5 12.97 1.869 1-0.506 3.922-2.7 5.96-1.42 3.889-2.455 5.717 5.161 11.56-0.05 5.623-5.015 6.653 1.352 10.72 0.51 1.852-0.43 2.478-1.777 4.35-1.67 2.654 1.003 3.25 3.637 6.57 0.931 2.014-1.75 3.577 1.521 5.141-1.32 0.62 0.311 1.589 0.028 2.109-0.91 0.12 0.015 0.38 0.045 0.51 0.061 1.243-0.235 2.975-2.42 3.341-3.44 0.488-1.559-0.315-5.524 3.609-13.46C151.914 118.111 151.265 110.834 146.969 104.885z" fill="#85481f" stroke-width="none" opacity="1" stroke="none"></path><path id="SvgjsPath3957" d="M146.969 104.885c-46.51-1.001-92.949 0.02-93.95 0.02 -2.675 4.014-4.176 11.498-3.28 15.61 0.934 4.212 4.441 8.009 5.66 16.46 0.07 0.83-0.04 1.71 0.3 2.76 0.35 1.001 2.022 3.206 3.34 3.44 0.129-0.016 0.381-0.046 0.5-0.061 0.523 0.935 1.48 1.218 2.11 0.91 1.516 2.89 3.099-0.453 5.14 1.32 3.383 2.757 3.832 0.049 6.58-0.931 2.146-0.04 5.034 3.43 7.71 0.761 5.499-5.354 8.082 4.5 12.97 1.869 1-0.506 3.922-2.7 5.96-1.42 3.889-2.455 5.717 5.161 11.56-0.05 5.623-5.015 6.653 1.352 10.72 0.51 1.852-0.43 2.478-1.777 4.35-1.67 2.654 1.003 3.25 3.637 6.57 0.931 2.014-1.75 3.577 1.521 5.141-1.32 0.62 0.311 1.589 0.028 2.109-0.91 0.12 0.015 0.38 0.045 0.51 0.061 1.243-0.235 2.975-2.42 3.341-3.44 0.488-1.559-0.315-5.524 3.609-13.46C151.914 118.111 151.265 110.834 146.969 104.885zM147.039 125.775c-5.513 10.228-2.238 14.543-6.01 16.14 -0.05 0-0.09 0.011-0.141 0.03 -0.312-0.07-0.85-0.322-1.14-0.46 -0.006 0.015-0.19 0.59-0.36 1.04 -0.058 0.078-0.041 0.102-0.199 0.26 -0.051 0.021-0.09 0.05-0.13 0.08 -0.37 0.084-0.932-0.389-1.28-0.63 -0.951 2.268-1.016 1.841-1.86 1.57 -2.987-0.938-3.279 0.839-4.62 1.39 -1.356 0.511-2.175-1.354-4.46-2.03 -2.538-0.171-3.387 1.449-4.89 1.75 -2.598 0.548-5.365-5.445-11.05 0.08 -5.063 4.924-6.429-2.163-10.91 0.24 -4.396-2.515-5.807 4.695-10.95-0.3 -5.512-5.221-8.704-0.136-9.84 0.01 -1.911 0.413-2.582-1.3-5.19-1.8 -2.841 0-3.702 2.653-5.31 2.05 -1.344-0.553-1.628-2.329-4.62-1.39 -1 0.32-1.005 0.471-1.86-1.57 -0.344 0.238-0.908 0.715-1.28 0.63 -0.04-0.03-0.08-0.06-0.13-0.08 -0.379-0.509-0.325-0.681-0.56-1.3 0.191-0.098-0.692 0.358-1.14 0.46 -0.04-0.02-0.09-0.03-0.13-0.03 -0.2-0.08-0.47-0.35-0.73-0.67 -1.661-2.134-1.418-1.179-1.63-4.35 -1.82-12.19-11.412-17.353-3.55-31.81 30.144 0.618 62.703 0.696 93.88 0.02C151.487 113.794 150.327 119.547 147.039 125.775z" fill="#763810" stroke-width="none" opacity="1" stroke="none"></path></g><g id="svga-group-humanbody-single"><path id="SvgjsPath3796" d="M195.417 199.778c-2.196-4.746-8.195-11.779-14.86-13.722 -8.239-2.403-26.837-5.308-33.733-6.923 -5.528-1.296-16.662-11.294-20.564-14.65 -0.7-0.6-1.273-1.839-1.287-2.76 -0.139-10.864 4.195-39.724 4.195-39.724H100 70.833c0 0 4.334 28.859 4.193 39.724 -0.011 0.921-0.587 2.16-1.285 2.76 -3.902 3.356-15.036 13.354-20.564 14.65 -6.897 1.615-25.495 4.619-33.733 7.022 -6.667 1.942-12.664 8.876-14.86 13.622 -3.708 8.008-4.584 22.5-4.584 35h100 100C200 222.278 199.123 207.786 195.417 199.778z" fill="#f2aa92" stroke-width="none" opacity="1" stroke="none"></path><path id="SvgjsPath3797" d="M159.156 184.058c24.342 3.542 34.586 8.708 37.794 50.721H200c0-12.5-0.877-26.992-4.583-35 -2.196-4.746-8.195-11.779-14.86-13.722 -8.239-2.403-26.837-5.308-33.733-6.923 -5.528-1.296-18.242-12.069-21.643-16.35 3.36 4.704 12.791 15.605 21.054 18.46C150.188 182.61 153.48 183.232 159.156 184.058zM53.766 181.244c8.263-2.854 17.693-13.756 21.054-18.46 -3.4 4.28-16.114 15.054-21.643 16.35 -6.896 1.615-25.494 4.619-33.733 7.022 -6.665 1.942-12.664 8.876-14.86 13.622 -3.706 8.008-4.583 22.5-4.583 35h3.05c3.188-41.744 13.475-47.183 37.794-50.721C46.52 183.232 49.813 182.61 53.766 181.244z" fill="#ffc6b3" stroke-width="none" opacity="1" stroke="none"></path><path id="SvgjsPath3798" d="M95.646 197.62c0 0-5.074-1.609-7.083-2.379 -10.449-4.009-44.395-6.607-44.395-6.607s35.754 1.419 43.644 2.779c-0.458-4.767-3.017-20.004-3.017-20.004s5.149 16.815 6.409 21.057C91.878 194.734 95.646 197.62 95.646 197.62zM106.445 196.278c-0.089 0.073-0.191 0.168-0.302 0.268C106.256 196.461 106.358 196.372 106.445 196.278zM95.646 197.62c0 0 2.893 2.992 4.347 3.03 1.91 0.051 4.828-2.899 6.151-4.104 -1.265 0.957-4.159 1.391-5.31 1.436C99.504 198.033 95.646 197.62 95.646 197.62zM116.664 190.101c-1.545 0.248-4.386 0.789-4.386 0.789l2.287-14.89c-0.646 3.071-4.474 16.211-8.12 20.278 1.91-1.616 6.158-2.391 8.324-2.704 10.236-1.484 10.232-1.483 41.062-4.94C155.831 188.634 126.76 188.479 116.664 190.101z" fill="#e38e72" stroke-width="none" opacity="1" stroke="none"></path><path id="SvgjsPath3799" d="M195.417 199.778c-2.196-4.746-8.195-11.779-14.86-13.722 -8.239-2.403-26.837-5.308-33.733-6.923 -5.528-1.296-16.662-11.294-20.564-14.65 -0.7-0.6-1.273-1.839-1.287-2.76 -0.139-10.864 4.195-39.724 4.195-39.724H100 70.833c0 0 4.334 28.859 4.193 39.724 -0.011 0.921-0.587 2.16-1.285 2.76 -3.902 3.356-15.036 13.354-20.564 14.65 -6.897 1.615-25.495 4.619-33.733 7.022 -6.667 1.942-12.664 8.876-14.86 13.622 -3.708 8.008-4.584 22.5-4.584 35h100 100C200 222.278 199.123 207.786 195.417 199.778z" fill="none" stroke="#c45e3b" stroke-width="1.5" opacity="1"></path></g><g id="svga-group-chinshadow-single"><path id="SvgjsPath4218" d="M124.272 162.248c-0.028-0.175-0.048-0.349-0.051-0.515 -0.094-7.38 1.819-22.721 3.098-32.078 -15.699-1.984-38.937-1.975-54.637 0.016 1.279 9.359 3.19 24.687 3.094 32.062 -0.001 0.119-0.014 0.243-0.03 0.367 3.825 3.586 7.667 6.528 11.055 8.151 5.312 2.546 21.035 2.427 26.401 0C116.613 168.71 120.456 165.812 124.272 162.248z" fill="url(#SvgjsLinearGradient4219)" opacity="1"></path></g><g id="svga-group-clothes-single" ><path id="SvgjsPath4198" d="M128.857 237.978H70.72v-56.183c22.25 4.699 36.88 4.337 58.138 0V237.978z" fill="#f3f1f3" stroke-width="none" opacity="1"></path><path id="SvgjsPath4199" d="M107.44 237.709c-2.775 0-10.727 0.208-16.512-0.23l-0.01-0.171c-0.818-18.658 1.129-30.719 4.537-39.288l0.048-0.123 -0.093-0.093c-0.905-0.904-2.425-1.935-4.034-3.025 -1.611-1.093-3.275-2.221-4.336-3.246 0.625-0.732 1.395-1.454 2.348-2.201 0.245-0.125 1.162-0.843 5.974-4.971 0.214-0.184 0.345-0.296 0.362-0.31 0.818-0.178 2.138-0.293 3.738-0.293 2.183 0 4.731 0.221 6.512 0.563 1.561 1.458 3.451 5.329 4.158 7.17 -0.976 2.291-2.128 3.129-3.717 4.284 -0.774 0.563-1.652 1.201-2.652 2.112l-0.083 0.075 0.021 0.111c4.026 20.31 4.027 25.054 4.027 29.642 0.001 2.021 0.001 6.609 0.339 9.985C107.917 237.707 107.704 237.709 107.44 237.709z" fill="#131111" stroke-width="none" opacity="1"></path><path id="SvgjsPath4200" d="M110.35 191.495c-0.754-1.995-2.71-5.93-4.28-7.359 -2.876-0.563-7.983-0.843-10.47-0.24 -0.108 0.088-6.248 5.383-6.31 5.26 -0.906 0.708-1.788 1.504-2.52 2.39 2.061 2.076 6.655 4.556 8.5 6.4 -3.65 9.18-5.33 21.59-4.55 39.38 0.01 0.11 0.01 0.23 0.02 0.34 6.756 0.52 16.55 0.331 17.55 0.223 -1.16-11.307 1.438-10.455-4.39-39.853C106.968 195.241 108.865 195.04 110.35 191.495zM105.1 210.535c-0.021-0.05-0.04-0.1-0.051-0.13 2 10.55 1.38 18.632 2.891 26.972 -4.736-0.318-12.014-0.052-16.771-0.052 0.369-7.198 1.188-31.684 4.74-39.74 0.17-0.046 0.339-0.084 0.509-0.125l-1.032 34.736 2.747-35.066c0.02-0.002 0.04-0.005 0.06-0.008l1.801 32.605 0.417-32.734c0.026 0.001 0.051-0.001 0.077 0l4.199 36.355 -2.3-36.137c0.314 0.063 0.629 0.141 0.942 0.233 0.03 0 0.07 0.01 0.1 0.03C103.533 198.476 104.365 205.876 105.1 210.535zM104.219 196.726c-2.774-1.251-6.363-1.026-9.129 0.24 -1.681-1.813-4.08-3.077-7.53-5.391 0.55-0.479 1.26-1.07 2.21-1.81 0.08 0 3.48-2.771 3.54-2.83 0.92-0.84 1.74-1.79 2.52-2.62 2.93-0.12 7.23 0.02 9.82 0.14 1.5 1.876 2.931 4.696 4.01 6.94C107.699 194.266 105.759 195.545 104.219 196.726z" fill="#000000" stroke-width="none" opacity="1"></path><path id="SvgjsPath4201" d="M78.196 213.077c-11.534-40.071-6.325-29.581-9.399-45.32 2.028-4.813 3.958-10.44 5.042-11.598l0.08-0.086c2.292 24.007 8.958 13.636 23.784 27.722C89.228 189.449 81.372 204.127 78.196 213.077zM131.193 167.758c-1.448-3.702-4.077-9.127-5.215-10.331 1.424 20.678-15.146 16.551-24.35 26.2 8.812 5.713 17.173 20.66 20.172 29.455C134.92 169.568 127.85 188.673 131.193 167.758z" fill="#f3f1f4" stroke-width="none" opacity="1"></path><path id="SvgjsPath4202" d="M125.801 156.967c0 5.137-0.42 9.162-1.262 10.339 -2.443 5.809-13.103 9.853-16.39 11.51 -2.495 1.227-4.942 2.809-6.83 4.85 3.813 2.476 5.705 3.383 12.93 14.44 4.246 7.109 6.539 12.448 7.561 15.64 13.378-44.331 6.222-24.978 9.59-46.01C129.814 163.65 126.801 157.885 125.801 156.967zM129.449 176.495c-1.957 18.078-3.491 14.485-7.74 34.181 -2.716-8.644-11.075-22.913-19.43-27.091 3.937-2.957 5.031-3.131 9.729-5.279 14.396-6.42 14.985-12.385 14.138-20.271 1.207 1.423 3.125 6.161 4.692 9.521C129.979 170.702 129.589 175.194 129.449 176.495zM79.199 171.896c-4.408-3.649-3.16-8.162-5.189-16.215 -0.902 1-3.146 6.632-5.42 12.055 0.557 2.796 0.681 7.389 0.76 8.84 0.559 12.202 1.75 12.765 8.83 37.16 3.031-8.905 11.558-24.37 20.24-30.009C91.489 177.401 82.765 174.999 79.199 171.896zM84.659 197.405c-2.221 3.666-4.517 7.48-6.37 13.28 -4.442-20.269-5.999-16.964-7.73-34.16 -0.32-2.971-0.617-6.027-1.4-8.96 1.638-3.588 3.981-10.281 4.731-10.995 1.366 7.078 0.066 13.462 5.669 16.995 2.621 1.996 11.104 5.32 17.52 10.36C93.188 186.235 91.094 187.596 84.659 197.405z" fill="#cfc8d7" stroke-width="none" opacity="1"></path><path id="SvgjsPath4203" d="M120.319 209.824l-1.209-2.654c0 0 9.148-28.175 10.743-36.225C130.765 179.299 120.319 209.824 120.319 209.824zM78.879 208.721l1.436-3.259c0 0-8.573-26.467-10.168-34.517C69.235 179.299 78.879 208.721 78.879 208.721z" fill="#e1e0e1" stroke-width="none" opacity="1"></path><path id="SvgjsPath4204" d="M124.787 195.605c7.065-20.834 2.756-22.551 6.305-29.469 0.134-0.261 1.396 1.046 1.533 1.64 1.306 5.658 53.349 17.338 54.994 18.598 1.456 1.058 5.65 3.137 5.65 3.137 4.937 9.07 7.762 10.698 9.15 34.984 0.13 3.083-0.061 11.801-0.061 14.141l-85.559-0.676C117.004 230.169 117.999 216.15 124.787 195.605zM75.213 195.605c-7.065-20.834-2.756-22.551-6.305-29.469 -0.134-0.261-1.396 1.046-1.533 1.64 -1.306 5.658-53.349 17.338-54.994 18.598 -1.456 1.058-5.65 3.137-5.65 3.137 -4.937 9.07-7.762 10.698-9.15 34.984 -0.13 3.083 0.061 11.801 0.061 14.141l85.559-0.676C82.996 230.169 82.001 216.15 75.213 195.605z" fill="#00c851" stroke-width="none" opacity="1" stroke="none"></path><path id="SvgjsPath4205" d="M130.307 190c-4.552 16.387-10.771 31.116-13.506 47.96 -0.89-0.007 1.491-22.695 7.986-42.354 7.065-20.834 2.756-22.551 6.305-29.469 0.077-0.15-0.619 1.976-0.223 2.432C130.723 176.296 132.625 182.272 130.307 190zM69.693 190c4.552 16.387 10.771 31.116 13.506 47.96 0.89-0.007-1.491-22.695-7.986-42.354 -7.065-20.834-2.756-22.551-6.305-29.469 -0.077-0.15 0.619 1.976 0.223 2.432C69.277 176.296 67.375 182.272 69.693 190z" fill="#00b94b" stroke-width="none" opacity="1" stroke="none"></path><path id="SvgjsPath4206" d="M152.436 186.031c0 0-2.284 2.561-8.636 6.923 5.313-5.885 7.761-8.249 7.761-8.249L152.436 186.031zM154.611 197.906l-1.528-1.367c-4.538 13.781-7.571 20.587-12.828 36.618C147.799 218.831 149.599 213.745 154.611 197.906zM48.439 184.705c0 0 2.447 2.364 7.761 8.249 -6.352-4.362-8.636-6.923-8.636-6.923L48.439 184.705zM59.745 233.157c-5.257-16.031-8.29-22.837-12.828-36.618l-1.528 1.367C50.401 213.745 52.201 218.831 59.745 233.157z" fill="#00a945" stroke-width="none" opacity="1" stroke="none"></path><path id="SvgjsPath4207" d="M179.409 219.335c0-11.596 3.11-18.351 9.615-28.142 0.608 0.372 0.931 0.543 1.345 0.875C183.452 200.651 182.078 208.659 179.409 219.335zM141.312 230.703c6.113-16.703 8.06-23.228 12.107-34.388 -1.15-0.351-8.671-2.985-9.819-3.346 0.41 1 3.113 1.822 7.822 4.709C151.422 197.679 146.333 213.082 141.312 230.703zM149.533 184.577c0 0-3.352 4.14-6.664 8.328 3.388-2.67 5.748-5.644 8.691-8.2 -3.994-3.368-10.511-8.524-14.721-12.089C140.163 176.188 149.533 184.577 149.533 184.577zM202.073 238.634l0.286 0.002c0-2.34 0.19-11.058 0.061-14.141 -1.389-24.286-4.214-25.914-9.15-34.984 0 0-4.194-2.079-5.65-3.137 -1.334-1.021-38.794-9.922-52.49-15.88 16.011 10.971 46.282 15.027 55.24 21.574C194.702 195.235 200.535 222.337 202.073 238.634zM9.613 192.037c0.542-0.383 0.619-0.366 1.168-0.729 6.505 9.791 9.809 16.431 9.809 28.026C17.922 208.659 16.08 200.318 9.613 192.037zM48.578 197.679c4.709-2.887 7.412-3.709 7.822-4.709 -1.148 0.36-8.669 2.995-9.819 3.346 4.048 11.16 5.994 17.685 12.107 34.388C53.667 213.082 48.578 197.679 48.578 197.679zM63.16 172.616c-4.21 3.564-10.727 8.721-14.721 12.089 2.943 2.557 5.304 5.53 8.691 8.2 -3.313-4.188-6.664-8.328-6.664-8.328S59.837 176.188 63.16 172.616zM9.631 192.068c8.958-6.547 39.229-10.604 55.24-21.574 -13.696 5.958-51.156 14.858-52.49 15.88 -1.456 1.058-5.65 3.137-5.65 3.137 -4.937 9.07-7.762 10.698-9.15 34.984 -0.13 3.083 0.061 11.801 0.061 14.141l0.286-0.002C-0.535 222.337 5.298 195.235 9.631 192.068z" fill="#16d764" stroke-width="none" opacity="1" stroke="none"></path><path id="SvgjsPath4208" d="M132.246 166.374c-0.049-0.293-0.443-0.634-0.738-0.657 -0.296-0.023-0.432 0.458-0.567 0.722 -3.549 6.918 0.414 8.333-6.651 29.167 -6.788 20.545-7.584 34.862-7.787 42.653l85.857 0.377c0-2.34 0.489-11.058 0.359-14.141 -1.389-24.286-4.313-26.113-9.25-35.184 0 0-4.394-2.179-5.85-3.236 -4.889-3.742-0.59 0.023-22.03-6 -17.576-5.135-18.525-6.577-24.899-8.35 -1.288-0.369-4.057-0.822-6.95-2.851C133.475 168.689 132.341 166.944 132.246 166.374zM116.974 237.31c3.729-23.564 6.085-29.73 11.296-47.274 3.522-11.104 1.576-17.408 3.254-22.54 0.088-0.268 0.467-0.282 0.571-0.017 2.434 6.214 9.238 7.656 18.834 17.047 -5.813 5.813-7.309 7.38-8.06 8.38 0.864 0.438 5.582 2.229 9.9 3.9 -0.245 0.767-13.415 38.02-13.57 38.52 10-21.578 11.292-28.211 14.22-39.01 -0.812-0.612-7.892-3.212-9.09-3.64 4.274-4.424 5.51-5.396 7.53-7.971 1.622 0-15.874-13.318-16.73-14.211 0.462 0.364 2.752 1.391 3.01 1.491 14.682 5.166 3.065 2.829 35.2 12.001 3.072 0.781 7.355 1.567 10.53 1.879 0.218 0.02 5.395 2.727 8.35 3.97 -7.189 7.475-11.797 17.133-12.81 29.5 3.219-12.666 4.951-19.29 13.14-28.819 7.62 15.422 6.755 13.195 9.23 47.71C181.167 237.413 149.559 237.227 116.974 237.31zM66.261 168.875c-2.894 2.028-5.662 2.481-6.95 2.851 -6.374 1.772-7.323 3.215-24.899 8.35 -21.44 6.023-17.142 2.258-22.03 6 -1.456 1.058-5.85 3.236-5.85 3.236 -4.937 9.07-7.861 10.897-9.25 35.184 -0.13 3.083 0.359 11.801 0.359 14.141l85.857-0.377c-0.203-7.791-0.999-22.108-7.787-42.653 -7.065-20.834-3.103-22.249-6.651-29.167 -0.136-0.264-0.271-0.745-0.567-0.722 -0.295 0.023-0.689 0.364-0.738 0.657C67.659 166.944 66.525 168.689 66.261 168.875zM-1.779 238.226c2.476-34.515 1.61-32.288 9.23-47.71 8.188 9.529 9.921 16.153 13.14 28.819 -1.013-12.367-5.62-22.025-12.81-29.5 2.955-1.243 8.132-3.95 8.35-3.97 3.175-0.312 7.458-1.098 10.53-1.879 32.135-9.172 20.519-6.835 35.2-12.001 0.258-0.101 2.548-1.127 3.01-1.491 -0.856 0.893-18.353 14.211-16.73 14.211 2.021 2.575 3.256 3.547 7.53 7.971 -1.198 0.428-8.278 3.027-9.09 3.64 2.928 10.799 4.22 17.432 14.22 39.01 -0.155-0.5-13.325-37.753-13.57-38.52 4.318-1.672 9.036-3.463 9.9-3.9 -0.751-1-2.247-2.567-8.06-8.38 9.596-9.391 16.4-10.833 18.834-17.047 0.104-0.266 0.483-0.251 0.571 0.017 1.678 5.132-0.269 11.436 3.254 22.54 5.211 17.544 7.567 23.71 11.296 47.274C50.441 237.227 18.833 237.413-1.779 238.226z" fill="#009a3e" stroke-width="none" opacity="1" stroke="none"></path></g><g id="svga-group-head" ><g id="svga-group-ears-left" ><path id="SvgjsPath3934" d="M45.671 84.344c-1.485-2.462-6.327-9.199-10.031-8.254 -3.012 0.772-2.973 4.971-3.206 7.455 -0.34 3.644-0.464 9.992 0.525 12.568 0.951 2.473 3.96 7.252 5.828 9.075 2.299 2.235 5.97 9.358 6.422 10.097 0.711 1.168 2.137 2.84 4.325 2.708 3.071-0.185 5.724-3.087 5.965-4.485C56.8 105.918 49.536 90.75 45.671 84.344z" fill="#f2aa92" stroke="#c45e3b" stroke-width="1.5" opacity="1"></path><path id="SvgjsPath3935" d="M44.2 99.341c-0.143-0.563 0.007-1.513 0.154-2.429 0.133-0.835 0.258-1.624 0.182-2.182 -0.289-2.09-1.915-6.06-2.976-8.212 -1.223-2.476-3.199-5.595-5.679-6.399 -1.024-0.333-1.699 0.065-2.089 0.468 -0.288 0.296-0.353 0.645-0.259 0.687 0.095 0.041 0.307-0.248 0.617-0.519 0.254-0.222-0.508-0.04 0 0 -0.205 1.04-0.865 6.302-0.41 10.143 0.358 3.022 1.05 5.279 1.263 5.617 0.031 0.356 0.083 0.705 0.16 1.043 1.002 4.41 7.518 10.177 9.034 11.82 0.28 0.303 0.574 0.483 0.646 0.409s-0.101-0.373-0.379-0.678c-1.498-1.632-7.971-7.381-8.939-11.635 -1.027-4.514 3.912-11.207 4.699-12.623 0.401 0.665 0.742 1.303 1.004 1.835 0.207 0.417 0.434 0.906 0.67 1.435 -0.463 0.738-5.118 6.127-3.934 10.441 0.438 1.591 3.822 3.642 5.131 4.203 0.72 0.31 0.99 0.772 1.304 1.306 0.364 0.624 0.033 2.229 1.23 2.739 0.244 0.104 0.464 0.146 0.659 0.146 0.338 0 0.594-0.13 0.783-0.284 0.02 0.271 0.019 0.619 0.009 0.941 -0.012 0.418 0.047 0.609 0.148 0.617 0.103 0.009 0.21-0.174 0.223-0.587 0.017-0.51 0.014-1.141-0.077-1.444 -0.269-0.889-1.088-1.894-1.957-2.957C44.563 102.197 44.422 100.213 44.2 99.341zM34.969 95.432c-2.348-6.923 1.283-13.229 1.81-14.179 1.012 0.399 2.562 2.193 3.221 3.235C39.52 85.321 35.067 90.775 34.969 95.432zM45.772 106.464c-1.084-0.462-0.706-1.984-1.056-2.584 -0.318-0.542-0.646-1.102-1.479-1.46 -0.18-0.078-0.379-0.196-0.583-0.332 -2.682-6.075 0.293-8.73 1.039-9.273 0.229 0.742 0.399 1.423 0.476 1.97 0.068 0.5-0.059 1.298-0.181 2.068 -0.153 0.955-0.31 1.944-0.147 2.584 0.244 0.953 0.411 2.97 1.291 4.048 0.781 0.956 1.583 1.942 1.857 2.746C46.871 106.391 46.5 106.775 45.772 106.464z" fill="#c45e3b" stroke-width="none" opacity="1" stroke="none"></path></g><g id="svga-group-ears-right" ><path id="SvgjsPath3936" d="M154.066 84.344c1.486-2.462 6.328-9.199 10.031-8.254 3.012 0.772 2.973 4.971 3.207 7.455 0.34 3.644 0.463 9.992-0.525 12.568 -0.951 2.473-3.961 7.252-5.828 9.075 -2.299 2.235-5.971 9.358-6.422 10.097 -0.711 1.168-2.137 2.84-4.326 2.708 -3.07-0.185-5.723-3.087-5.965-4.485C142.938 105.918 150.203 90.75 154.066 84.344z" fill="#f2aa92" stroke="#c45e3b" stroke-width="1.5" opacity="1"></path><path id="SvgjsPath3937" d="M154.322 103.243c-0.869 1.063-1.688 2.068-1.957 2.957 -0.092 0.304-0.094 0.935-0.078 1.444 0.014 0.413 0.121 0.596 0.225 0.587 0.102-0.008 0.16-0.199 0.148-0.617 -0.01-0.322-0.012-0.67 0.008-0.941 0.189 0.154 0.445 0.284 0.783 0.284 0.195 0 0.416-0.042 0.66-0.146 1.195-0.511 0.865-2.116 1.229-2.739 0.314-0.534 0.584-0.997 1.305-1.306 1.309-0.561 4.693-2.611 5.131-4.203 1.184-4.314-3.471-9.704-3.934-10.441 0.234-0.529 0.463-1.018 0.668-1.435 0.264-0.532 0.604-1.171 1.006-1.835 0.787 1.416 5.725 8.108 4.699 12.623 -0.969 4.254-7.441 10.003-8.939 11.635 -0.279 0.305-0.453 0.604-0.381 0.678 0.074 0.074 0.367-0.106 0.646-0.409 1.516-1.643 8.031-7.41 9.033-11.82 0.078-0.338 0.131-0.687 0.162-1.043 0.211-0.337 0.904-2.594 1.262-5.617 0.455-3.841-0.205-9.103-0.41-10.143 0.508-0.04-0.254-0.222 0 0 0.311 0.271 0.523 0.56 0.617 0.519 0.094-0.042 0.029-0.39-0.258-0.687 -0.391-0.403-1.066-0.801-2.09-0.468 -2.48 0.804-4.457 3.923-5.68 6.399 -1.061 2.152-2.686 6.122-2.975 8.212 -0.076 0.558 0.049 1.347 0.182 2.182 0.146 0.916 0.297 1.866 0.154 2.429C155.316 100.213 155.176 102.197 154.322 103.243zM159.738 84.488c0.66-1.042 2.209-2.835 3.221-3.235 0.527 0.95 4.158 7.256 1.811 14.179C164.672 90.775 160.219 85.321 159.738 84.488zM152.75 106.229c0.273-0.804 1.076-1.79 1.857-2.746 0.879-1.078 1.047-3.095 1.291-4.048 0.162-0.64 0.006-1.629-0.146-2.584 -0.123-0.77-0.25-1.568-0.182-2.068 0.076-0.547 0.246-1.228 0.475-1.97 0.746 0.543 3.721 3.199 1.039 9.273 -0.203 0.136-0.402 0.254-0.584 0.332 -0.832 0.358-1.16 0.918-1.479 1.46 -0.35 0.6 0.029 2.123-1.055 2.584C153.238 106.775 152.867 106.391 152.75 106.229z" fill="#c45e3b" stroke-width="none" opacity="1" stroke="none"></path></g><g id="svga-group-faceshape-wrap" ><g id="svga-group-faceshape-single" ><path id="SvgjsPath4215" d="M144.004 126.997c-5.003 10.225-20.047 28.437-30.801 33.266 -5.366 2.412-21.089 2.53-26.401 0 -10.646-5.067-25.765-23.057-30.801-33.266C50.388 115.623 41.15 78.444 41.138 78.39c-1.3-4.988-1.996-10.225-2.004-15.623 -0.052-34 27.154-61.598 60.772-61.65 33.621-0.053 60.913 27.457 60.963 61.456 0.009 5.4-0.669 10.638-1.952 15.631C158.901 78.256 149.6 115.559 144.004 126.997z" fill="#f2aa92" stroke-width="none" opacity="1"></path><path id="SvgjsPath4216" d="M110.152 1.982c26.994 6.338 47.097 30.814 47.052 60.039 -0.009 5.399-0.704 10.635-2.004 15.624 -0.012 0.054-8.61 37.245-14.13 48.608 -4.859 10.004-19.7 27.468-30.067 32.521 -2.163 1.055-8.694 1.555-11.001 1.555 -2.307 0-8.837-0.5-11-1.555 -10.367-5.053-25.209-22.517-30.067-32.521 -5.521-11.363-14.119-48.554-14.13-48.608 -1.3-4.988-1.996-10.225-2.004-15.624C42.756 32.796 62.857 8.32 89.853 1.982 61.03 6.877 39.087 32.232 39.134 62.767c0.008 5.398 0.704 10.635 2.004 15.623 0.012 0.054 9.232 37.241 14.863 48.607 5.052 10.199 20.207 28.085 30.801 33.266 2.658 1.301 9.305 1.855 12.954 1.853 3.646 0.003 10.791-0.552 13.447-1.853 10.594-5.182 25.748-23.066 30.801-33.266 5.631-11.366 14.852-48.553 14.862-48.607 1.3-4.988 1.996-10.225 2.004-15.623C160.918 32.232 138.975 6.877 110.152 1.982z" fill="#ea9c82" stroke-width="none" opacity="1"></path><path id="SvgjsPath4217" d="M144.004 126.997c-5.003 10.225-20.047 28.437-30.801 33.266 -5.366 2.412-21.089 2.53-26.401 0 -10.646-5.067-25.765-23.057-30.801-33.266C50.388 115.623 41.15 78.444 41.138 78.39c-1.3-4.988-1.996-10.225-2.004-15.623 -0.052-34 27.154-61.598 60.772-61.65 33.621-0.053 60.913 27.457 60.963 61.456 0.009 5.4-0.669 10.638-1.952 15.631C158.901 78.256 149.6 115.559 144.004 126.997z" fill="none" stroke="#c45e3b" stroke-width="1.5" opacity="1"></path></g></g><g id="svga-group-mouth-single" ><path id="SvgjsPath4272" d="M100.671 140.999c-5.683-0.008-7.963-3.983-7.963-3.983 6.845 2.441 15.408 0.264 15.408 0.264S106.377 141.008 100.671 140.999z" fill="url(#SvgjsLinearGradient4273)" opacity="1"></path><path id="SvgjsPath4276" d="M81.783 130.557c3.57-0.112 10.625-0.609 13.211-0.457 1.337 0.079 3.53 0.999 4.971 1.313 1.003 0.22 4.814-0.817 5.842-0.822 2.687-0.017 8.513 1.274 11.642 1.782 0.173 0.027 0 0 0 0s-7.699 6.575-17.56 6.143C88.728 138.025 81.783 130.557 81.783 130.557S81.606 130.562 81.783 130.557z" fill="#9b565f" stroke-width="none" opacity="1"></path><path id="SvgjsPath4277" d="M117.743 132.177c-0.085-0.126-0.641-0.245-0.846-0.221 -0.373 0.044-0.643 0.389-1.425 0.458 -0.904 0.084-5.695 0.815-7.002 0.782 -2.629-0.064-5.647 0.561-8.157 0.451 -2.513-0.11-6.464-1.159-9.077-1.344 -1.297-0.092-6.623-1.333-7.505-1.507 -0.759-0.15-0.82-0.506-1.125-0.607 -0.215-0.074-0.832-0.023-0.999 0.09 -0.145 0.1-0.1 0.557 0.001 0.683 0.248 0.305 1.167 0.435 1.838 0.568 0.931 0.184 6.336 1.438 7.67 1.532 2.586 0.186 6.589 1.303 9.123 1.414 2.532 0.112 5.608-0.587 8.21-0.521 1.338 0.034 6.197-0.699 7.156-0.784 0.694-0.064 1.556-0.179 1.876-0.402C117.634 132.664 117.826 132.309 117.743 132.177z" fill="#6d1c26" stroke-width="none" opacity="1"></path><path id="SvgjsPath4278" d="M99.999 137.244c-4.411-0.192-11.369-1.912-14.032-4.152 1.629 0.195 5.155 0.481 6.772 0.693 1.997 0.265 4.761 1.003 6.795 1.192 2.196 0.202 5.2-0.237 7.342-0.422 1.79-0.153 4.563-0.661 6.35-0.72C110.221 135.628 104.257 137.43 99.999 137.244zM107.157 132.606c1.602-0.081 4.101-0.628 5.694-0.675 -1.796-0.491-4.499-0.493-6.406-0.697 -1.646-0.174-4.155 0.69-5.787 0.804 -1.838 0.132-4.022-1.204-5.733-1.333 -1.857-0.138-5.733 0.283-7.555 0.604 1.556 0.17 4.94 0.433 6.472 0.682 1.878 0.306 4.573 0.966 6.522 1.052C102.362 133.131 105.183 132.708 107.157 132.606z" fill="#a3626b" stroke-width="none" opacity="1"></path><path id="SvgjsPath4279" d="M100.006 136.455c-2.626-0.118-6.989-1.062-8.873-2.365 0.482 0.022 1.884 0.146 2.348 0.189 0.146 0.015 0.293 0.031 0.438 0.05 0.757 0.101 1.489 0.304 2.271 0.515 0.759 0.207 2.481 0.47 3.329 0.557 0.167 0.019 0.333 0.027 0.501 0.034 1.043 0.048 2.983-0.061 3.943-0.21 0.609-0.095 1.182-0.192 1.77-0.247 0.32-0.032 0.669-0.047 1.061-0.049 0.336-0.003 0.689 0.006 1.036 0.017C106.063 135.841 102.713 136.574 100.006 136.455z" fill="#aa7077" stroke-width="none" opacity="1"></path><path id="SvgjsPath4280" d="M79.382 131.481c0 0-0.708-1.188-0.609-1.633 0.139-0.619 1.923-1.85 1.923-1.85s-1.08 1.415-1.247 1.863C79.288 130.294 79.382 131.481 79.382 131.481z" fill="#c45e3b" stroke-width="none" opacity="1"></path></g><g id="svga-group-eyes-left" ><g id="svga-group-eyesback-left"><path id="SvgjsPath4112" d="M59.782 80.154c0 3.552 5.88 11.295 15.32 11.458 7.043 0.123 12.184-3.747 12.184-7.301 0-3.552-1.83-5.008-12.283-4.747C67.962 79.742 58.67 78.157 59.782 80.154z" fill="url(#SvgjsRadialGradient4113)" opacity="1"></path></g><g id="svga-group-eyesiriswrapper-left" transform="translate(0.5 0)"><g id="svga-group-eyesiriscontrol-left" ><g id="svga-group-eyesiris-left" ><path id="SvgjsPath4041" d="M79.788 85.588c-0.869 3.192-4.162 5.073-7.361 4.196 -3.197-0.876-5.084-4.178-4.214-7.371 0.869-3.195 4.168-5.076 7.365-4.198C78.772 79.09 80.659 82.392 79.788 85.588z" fill="#4d3623" stroke="#1f1105" stroke-width="0.5" opacity="1"></path><path id="SvgjsPath4042" d="M78.855 85.662c-0.849 2.452-3.407 3.881-5.899 3.199 -2.3-0.631-3.752-2.838-3.563-5.171 0.853-0.067 1.787-0.087 2.756-0.04 -0.01 0.033-0.027 0.062-0.036 0.096 -0.306 1.125 0.407 2.305 1.592 2.63 1.189 0.326 2.401-0.326 2.707-1.451 0.039-0.147 0.06-0.294 0.065-0.439C77.29 84.782 78.088 85.165 78.855 85.662z" fill="#5c4633" stroke-width="none" opacity="1" stroke="none"></path><path id="SvgjsPath4043" d="M74.813 82.21c-1.203-0.344-2.429 0.342-2.739 1.54 -0.311 1.191 0.412 2.438 1.614 2.783 1.204 0.345 2.43-0.342 2.741-1.534C76.742 83.801 76.016 82.555 74.813 82.21zM75.075 86.442c-0.5 0.156-1.017-0.051-1.154-0.462 -0.133-0.411 0.163-0.867 0.667-1.019 0.503-0.156 1.019 0.051 1.157 0.459C75.881 85.831 75.582 86.287 75.075 86.442z" fill="#000000" stroke-width="none" opacity="0.9"></path><path id="SvgjsPath4044" d="M70.811 87.159c-0.37 0.222-0.922 0.023-1.238-0.447 -0.316-0.466-0.269-1.024 0.102-1.247 0.368-0.219 0.925-0.021 1.239 0.446C71.226 86.378 71.181 86.938 70.811 87.159z" fill="#ffffff" stroke-width="none" opacity="0.6"></path><path id="SvgjsPath4045" d="M78.71 83.74c-0.846 0.507-2.117 0.051-2.837-1.02 -0.72-1.072-0.612-2.352 0.234-2.857 0.844-0.509 2.118-0.053 2.834 1.019C79.66 81.954 79.556 83.232 78.71 83.74z" fill="#ffffff" stroke-width="none" opacity="0.8"></path></g></g></g><g id="svga-group-eyesfront-left"><path id="SvgjsPath4137" d="M73.8 63.098c-10.217 0-20.628 5.505-20.07 22 0.106 3.15 9.854 22.004 20.07 22.004s19.5-5.292 19.5-22.003C93.3 67.31 84.017 63.098 73.8 63.098zM75.103 91.612c-9.44-0.163-15.32-7.906-15.32-11.458 -1.112-1.997 8.18-0.412 15.221-0.589 10.453-0.261 12.283 1.195 12.283 4.747C87.286 87.865 82.146 91.735 75.103 91.612z" fill="#f2aa92" stroke-width="none" opacity="1"></path><path id="SvgjsPath4138" d="M58.8 83.338c1.352 7.412 8.545 13.677 17.936 13.64 9.389-0.043 16.986-6.179 16.961-13.713 -0.023-7.533-7.646-13.605-17.039-13.566C67.265 69.743 57.445 75.91 58.8 83.338zM75.003 79.564c10.453-0.261 12.283 1.195 12.283 4.747 0 3.554-5.141 7.423-12.184 7.301 -9.44-0.163-15.32-7.906-15.32-11.458C58.67 78.157 67.962 79.742 75.003 79.564z" fill="url(#SvgjsRadialGradient4139)" opacity="1"></path><path id="SvgjsPath4143" d="M88.286 84.312c0-3.552-2.83-5.008-13.283-4.747 -2.826 0.071-6.013-0.141-8.746-0.292 -1.321-0.058-2.62-0.11-3.879-0.136 -1.918 0.014-5.022 0.252-4.596 1.018 0 3.552 7.88 11.295 17.32 11.458C82.146 91.735 88.286 87.865 88.286 84.312z" fill="url(#SvgjsRadialGradient4144)" opacity="1"></path><path id="SvgjsPath4147" d="M85.282 77.731l-2.203-1.308 -14.833-0.24c4.185 0.378 7.805 0.588 14.763 0.648L85.282 77.731z" fill="#c45e3b" stroke-width="none" opacity="1"></path><path id="SvgjsPath4148" d="M84.116 80.285c-8.54 0.143-14.196 0.14-24.105-0.622 0.348 1.872 0.926 3.215 1.795 5.207 -1.956-2.832-3.342-4.561-4.507-7.138 10.536 0.781 17.356 1.315 27.309 1.342l3.691 3.372L84.116 80.285zM85.554 88.437c-8.885 3.274-13.098 4.615-21.361-0.982C68.829 93.348 80.101 92.856 85.554 88.437z" fill="#1b2a40" stroke-width="none" opacity="1"></path></g></g><g id="svga-group-eyes-right" ><g id="svga-group-eyesback-right"><path id="SvgjsPath4120" d="M139.818 80.154c0 3.552-5.88 11.295-15.32 11.458 -7.043 0.123-12.184-3.747-12.184-7.301 0-3.552 1.83-5.008 12.283-4.747C131.639 79.742 140.931 78.157 139.818 80.154z" fill="url(#SvgjsRadialGradient4121)" opacity="1"></path></g><g id="svga-group-eyesiriswrapper-right" transform="translate(-0.5 0)"><g id="svga-group-eyesiriscontrol-right" ><g id="svga-group-eyesiris-right" ><path id="SvgjsPath4046" d="M131.788 85.588c-0.869 3.192-4.162 5.073-7.362 4.196 -3.196-0.876-5.084-4.178-4.214-7.371 0.869-3.195 4.169-5.076 7.365-4.198C130.772 79.09 132.658 82.392 131.788 85.588z" fill="#4d3623" stroke="#1f1105" stroke-width="0.5" opacity="1"></path><path id="SvgjsPath4047" d="M130.855 85.662c-0.849 2.452-3.408 3.881-5.899 3.199 -2.3-0.631-3.753-2.838-3.563-5.171 0.854-0.067 1.787-0.087 2.756-0.04 -0.01 0.033-0.027 0.062-0.036 0.096 -0.306 1.125 0.407 2.305 1.593 2.63 1.189 0.326 2.401-0.326 2.707-1.451 0.038-0.147 0.06-0.294 0.065-0.439C129.29 84.782 130.089 85.165 130.855 85.662z" fill="#5c4633" stroke-width="none" opacity="1" stroke="none"></path><path id="SvgjsPath4048" d="M126.813 82.21c-1.202-0.344-2.429 0.342-2.738 1.54 -0.312 1.191 0.412 2.438 1.613 2.783 1.204 0.345 2.431-0.342 2.742-1.534C128.741 83.801 128.016 82.555 126.813 82.21zM127.075 86.442c-0.5 0.156-1.018-0.051-1.154-0.462 -0.133-0.411 0.163-0.867 0.667-1.019 0.503-0.156 1.019 0.051 1.157 0.459C127.881 85.831 127.582 86.287 127.075 86.442z" fill="#000000" stroke-width="none" opacity="0.9"></path><path id="SvgjsPath4049" d="M122.812 87.159c-0.37 0.222-0.923 0.023-1.238-0.447 -0.316-0.466-0.27-1.024 0.102-1.247 0.367-0.219 0.926-0.021 1.239 0.446C123.227 86.378 123.181 86.938 122.812 87.159z" fill="#ffffff" stroke-width="none" opacity="0.6"></path><path id="SvgjsPath4050" d="M130.71 83.74c-0.846 0.507-2.116 0.051-2.837-1.02 -0.72-1.072-0.612-2.352 0.234-2.857 0.845-0.509 2.117-0.053 2.834 1.019C131.66 81.954 131.557 83.232 130.71 83.74z" fill="#ffffff" stroke-width="none" opacity="0.8"></path></g></g></g><g id="svga-group-eyesfront-right"><path id="SvgjsPath4158" d="M106.301 85.099c0 16.711 9.283 22.003 19.5 22.003s19.964-18.854 20.07-22.004c0.558-16.495-9.854-22-20.07-22S106.301 67.31 106.301 85.099zM112.314 84.312c0-3.552 1.83-5.008 12.283-4.747 7.041 0.178 16.333-1.408 15.221 0.589 0 3.552-5.88 11.295-15.32 11.458C117.455 91.735 112.314 87.865 112.314 84.312z" fill="#f2aa92" stroke-width="none" opacity="1"></path><path id="SvgjsPath4159" d="M122.943 69.699c-9.393-0.04-17.016 6.033-17.039 13.566 -0.025 7.535 7.572 13.67 16.961 13.713 9.391 0.037 16.584-6.228 17.936-13.64C142.155 75.91 132.336 69.743 122.943 69.699zM139.818 80.154c0 3.552-5.88 11.295-15.32 11.458 -7.043 0.123-12.184-3.747-12.184-7.301 0-3.552 1.83-5.008 12.283-4.747C131.639 79.742 140.931 78.157 139.818 80.154z" fill="url(#SvgjsRadialGradient4160)" opacity="1"></path><path id="SvgjsPath4164" d="M111.314 84.312c0-3.552 2.83-5.008 13.283-4.747 2.826 0.071 6.013-0.141 8.746-0.292 1.321-0.058 2.62-0.11 3.879-0.136 1.918 0.014 5.022 0.252 4.596 1.018 0 3.552-7.88 11.295-17.32 11.458C117.455 91.735 111.314 87.865 111.314 84.312z" fill="url(#SvgjsRadialGradient4165)" opacity="1"></path><path id="SvgjsPath4168" d="M114.318 77.731l2.203-1.308 14.833-0.24c-4.185 0.378-7.805 0.588-14.763 0.648L114.318 77.731z" fill="#c45e3b" stroke-width="none" opacity="1"></path><path id="SvgjsPath4169" d="M111.302 82.446l3.691-3.372c9.952-0.027 16.772-0.561 27.309-1.342 -1.165 2.578-2.551 4.307-4.507 7.138 0.869-1.992 1.447-3.335 1.795-5.207 -9.909 0.762-15.565 0.765-24.105 0.622L111.302 82.446zM135.408 87.455c-8.264 5.598-12.477 4.257-21.361 0.982C119.5 92.856 130.771 93.348 135.408 87.455z" fill="#1b2a40" stroke-width="none" opacity="1"></path></g></g><g id="svga-group-facehighlight-single" ><path id="SvgjsPath3788" d="M141 113.974c0.035 22.622-18.292 40.994-40.938 41.025 -22.642 0.037-41.028-18.273-41.063-40.9 -0.035-22.62 18.292-41.064 40.937-41.1C122.579 72.964 140.967 91.349 141 113.974z" fill="url(#SvgjsRadialGradient3789)" opacity="1"></path><path id="SvgjsPath3792" d="M137.5 53.999c0 20.711-16.789 37.5-37.499 37.5 -20.711 0-37.501-16.789-37.501-37.5s16.79-37.5 37.501-37.5C120.711 16.499 137.5 33.288 137.5 53.999z" fill="url(#SvgjsRadialGradient3793)" opacity="1"></path></g><g id="svga-group-eyebrows-left" ><path id="SvgjsPath4304" d="M51.602 75.92c18.88-17.059 45.16-8.306 39.295-6.457C88.863 70.104 69.741 63.525 51.602 75.92z" fill="#a46c47" stroke-width="none" opacity="1"></path></g><g id="svga-group-eyebrows-right" ><path id="SvgjsPath4305" d="M148.398 75.92c-18.88-17.059-45.16-8.306-39.296-6.457C111.137 70.104 130.259 63.525 148.398 75.92z" fill="#a46c47" stroke-width="none" opacity="1"></path></g><g id="svga-group-nose-single" ><path id="SvgjsPath3931" d="M91.115 115.499c-0.878 2.064 5.934 4.292 8.519 4.429 2.8 0.147 10.646-2.9 9.316-4.992 -1.399-2.195-6.643-0.286-8.906-0.286C97.792 114.649 92.291 112.745 91.115 115.499z" fill="#e38e72" stroke-width="none" opacity="1" stroke="none"></path><path id="SvgjsPath3932" d="M101.857 117.058c-0.23-0.759 1.876-1.584 2.657-1.694 1.101-0.16 3.36 0.802 3.158 1.592 -0.184 0.698-2.148-0.533-2.86-0.429C104.078 116.634 102.075 117.769 101.857 117.058zM94.974 116.811c0.968 0 2.404 0.623 2.668 0.074 0.315-0.655-2.139-1.461-2.86-1.372 -0.596 0.07-2.733 1.315-2.439 1.839C92.617 117.833 93.698 116.811 94.974 116.811z" fill="#c45e3b" stroke-width="none" opacity="1" stroke="none"></path><path id="SvgjsPath3933" d="M100.089 111.999c0.607 0 1.742-0.74 1.792-2.23 0.201-6.008-0.956-23.833-1.792-23.77 -0.78 0.059-2.267 17.637-1.948 23.77C98.22 111.271 99.404 111.999 100.089 111.999z" fill="#ffd9cd" stroke-width="none" opacity="0.2" stroke="none"></path></g><g id="svga-group-beardwrap" ><g id="svga-group-beard-single" ><path id="SvgjsPath3806" d="M100,18.13L100,18.13L100,18.13L100,18.13z" fill="#2a232b" stroke-width="none" opacity="1"></path></g></g><g id="svga-group-mustache-single" ><path id="SvgjsPath3964" d="M124.9 136.88c-3.64-2.06-3.48-3.14-15.97-5.88 -4.49-0.99-6.57-1.46-8.94-4.64 -5.1 6.84-13.23 2.74-24.9 10.5 0.95-6.41 6.02-11.42 15.5-15.3 4.42-1.81 5.71-0.49 9.4 0.1 1.74-0.25 3.63-1 5.84-0.9C110.15 120.8 123.41 127.2 124.9 136.88z" fill="#a46c47" stroke-width="none" opacity="1" stroke="none"></path><path id="SvgjsPath3965" d="M78.32 133.03c5.35-6.14 15.62-4.66 20.29-8.42C94.33 129.25 84.24 128.08 78.32 133.03zM101.39 124.6c4.28 4.65 14.58 3.62 20.29 8.42C116.45 126.91 106.12 128.41 101.39 124.6z" fill="#955932" stroke-width="none" opacity="1" stroke="none"></path><path id="SvgjsPath3966" d="M105.84 120.66c-2.16-0.1-4.12 0.64-5.83 0.9 -3.68-0.58-5-1.91-9.45-0.09 -7.22 2.96-14.53 7.62-15.59 15.6 11.7-7.88 19.97-3.8 25.03-10.54 3.7 4.94 7 3.26 19.32 7.37 2.6 1.05 3.62 2.01 5.71 3.17C123.68 127.16 109.97 120.7 105.84 120.66zM122.9 135.1c-8.09-5.67-19.35-3.69-22.9-9.26 -2.65 4.54-10.07 3.67-19.62 7.32 -2.29 1.05-3.31 2.01-4.98 3.18 2.52-8.77 16.85-16.51 21.9-14.68 3.21 1.05 4.82-0.21 8.48-0.26 3.39 0.21 16.16 5.92 18.83 14.95C124.08 135.97 123.51 135.54 122.9 135.1z" fill="#763810" stroke-width="none" opacity="1" stroke="none"></path></g><g id="svga-group-hair-front" ><path id="SvgjsPath3959" d="M45.066 90.479c-1.663-4.941-4.339-12.356-8.735-15.286 -2.688-14.785-7.848-34.075 7.836-52.385 3.342-3.917 7.695-7.354 12.827-8.128C69.672-4.083 84.836-12.747 119.576-1.432c52.479 15.34 43.691 53.39 41.853 76.293 -2.476 2.597-4.824 9.932-6.139 14.359 -1.17-25.195-10.647-60.91-38.688-60.91 -14.208 0-17.067 5.674-37.26 3.394C42.051 28.826 48.983 73.242 45.066 90.479z" fill="#a46c47" stroke-width="none" opacity="1" stroke="none"></path><path id="SvgjsPath3960" d="M102.566 19.442C88.011 22.011 80 16 83 5c-5.661 3.59-7.699 9.31-6.903 14.442C72.65 15.482 72.796 8.737 74.843 1c-8.02 8.578-9.465 16.139-7.549 23.801 -5.012-5.458-8.708-12.687-3.697-18.978 -2.321 2.513-4.498 5.343-6.603 8.459 -0.479 0.072-4.142 2.217-4.142 2.217 2.935 0 9.319 2.98 13.005 9.154 -4.542-1.424-10.958 0.219-13.534 2.379 -9.399 7.885-14.204 20.903-7.164 61.423 2.253-11.969 1.543-23.55 3.268-33.198 2.885-16.144 10.068-26.874 30.916-24.951 20.192 2.28 23.052-3.394 37.26-3.394 28.04 0 37.518 35.715 38.688 60.91 1.314-4.427 3.663-11.762 6.139-14.359 0.302-3.759 0.416-3.52 0.79-7.927C153.869 28.485 133.09 14.055 102.566 19.442z" fill="#85481f" stroke-width="none" opacity="1" stroke="none"></path><path id="SvgjsPath3961" d="M39.369 61.985c-3.731-41.197 18.025-41.045 21-38.75C56.222 22.745 42.114 19.045 39.369 61.985zM86.619 9.485c1.66 4.085 4.553 6.995 10.868 7.394 0 0 1.125 0.776 17.403-2.094 2.292-0.411 3.952-0.545 4.729-0.549C107.662 13.148 93.121 20.9 86.619 9.485zM150.391 26.592c0 0-0.389-0.601-1.072-1.436 -9.444-11.944-25.151-12.229-24.199-11.171 -0.937-1.19 19.347 2.377 26.987 18.344 4.835 8.836 1.414 2.542 5.513 10.656C154.017 31.66 152.175 29.292 150.391 26.592zM130.182 17.505c0 0-1.276-0.383-2.578-0.662 -1.301-0.277-2.615-0.469-2.614-0.469 -3.583-0.505-6.562-0.275-8.37-0.138 6.199 0.063 15.622 1.509 20.75 5.5C135.201 19.539 132.727 18.172 130.182 17.505zM37.369 44.735c-1.341 9.794-1.69 21.234 3.25 29.75C37.33 66.374 37.256 53.492 37.369 44.735zM73.543 28.958c0.823 0.173 1.125 0.078 1.125 0.078s-0.278 0.029-1.063-0.253c-6.856-2.076-9.987-15.147 1.013-27.297C61.436 11.777 64.929 27.814 73.543 28.958zM82.619 5.235C78.885 8.15 76.356 11.463 75.917 16c-0.636 7.067 3.239 12.869 10.953 13.485C74.702 26.658 75.11 13.108 82.619 5.235zM109.42 10.36c0 0-8.481 0.526-16.551-2.875 8.332 4.85 17.038 4.377 27 2.5C115.675 10.167 113.511 10.273 109.42 10.36z" fill="#955932" stroke-width="none" opacity="1" stroke="none"></path><path id="SvgjsPath3962" d="M122.869 8.069c-10.39 0.727-12.784 0.221-17.333-2.333C111.313 8.266 113.479 7.609 122.869 8.069zM86.367 16.514c-5.562-5.748-3.748-8.528-3.748-8.528s-2.659 7.062 6.636 11.581c5.177 2.818 14.232 0.009 16.864-0.331C102.686 19.224 91.563 21.687 86.367 16.514zM59.369 25.235c-18.715 0.179-19.006 29.31-16.603 47.764C43.266 55.375 42.898 27.77 59.369 25.235zM160.737 62.366c-2.301-13.429-7.88-28.915-19.618-35.88C150.653 34.103 157.559 51.017 160.737 62.366zM159.619 44.235c-0.742-13.17-7.966-23.253-18.114-30.338C150.438 22.187 157.423 32.042 159.619 44.235zM133.869 8.735c-11.854-6.716-22.503-11.642-36.5-7.5C110.17-0.881 120.844 3.054 133.869 8.735zM82.869-2.015c-10.119 0.956-17.762 5.85-18.528 15.99C65.948 3.828 73.604-0.092 82.869-2.015zM75.254 13.19C77.523 1.846 85.291-0.489 94.426-2.125 84.84-1.67 75.651 1.79 75.254 13.19z" fill="#b38160" stroke-width="none" opacity="1" stroke="none"></path><path id="SvgjsPath3963" d="M119.669-2.115c-35.293-11.496-50.395-2.204-62.85 16.12 -5.104 0.782-9.536 4.29-12.88 8.21 -15.82 18.468-10.556 38.009-7.88 52.76 4.675 3.016 7.39 11.212 9.05 16.18 4.515-16.777-3.539-62.465 34.2-59.55 20.792 2.347 23.297-3.704 38.46-3.38 25.709-1.096 36.541 36.643 37.29 62.45 1.127-3.874 3.839-13.236 6.659-16.08C163.233 55.411 174.156 13.812 119.669-2.115zM160.739 74.995c-2.396 2.86-4.208 7.944-5.22 11.51 0.247-23.89-10.323-61.938-37.74-61.06 -15.95-0.254-17.956 5.64-38.19 3.59 -18.563-1.35-28.966 9.705-32.23 26.71 -1.966 9.824-0.408 22.838-2.2 33.51 -1.491-4.808-4.014-11.26-8.21-14.08 -1.698-18.831-5.956-33.256 8.28-51.85 3.022-3.928 8.035-7.64 12.89-8.72 6.947-7.295 15.002-29.315 60.86-14.46C167.916 14.516 162.6 50.069 160.739 74.995z" fill="#763810" stroke-width="none" opacity="1" stroke="none"></path></g><g id="svga-group-glasses-single" ><path id="SvgjsPath4281" d="M142.29 97.41c-4.18 2.89-9.99 4.5-16.48 3.86 -10.05-0.98-16.01-7.51-18.24-13.28 -1.93-4.85-1.14-8.25 2.64-11.36 2.87-2.36 8.27-4.17 14.16-4.76C135.43 75.65 145.22 86.87 142.29 97.41zM67.01 71.94c-6.66 0.84-12.69 3.67-15.12 9.47 -4.22 10.71 7.21 21.33 22.29 19.86 4.2-0.41 7.68-1.8 10.48-3.69C87.73 87.06 78.04 75.82 67.01 71.94z" fill="#ffffff" stroke-width="none" opacity="0.2"></path><path id="SvgjsPath4282" d="M142.29 97.41c2.93-10.54-6.86-21.75-17.91-25.54 9.5-0.95 20.27 1.28 23.73 9.54C150.51 87.51 147.83 93.58 142.29 97.41zM89.78 76.62c-4.25-3.5-14.06-5.79-22.77-4.68 11.03 3.88 20.72 15.12 17.65 25.64 3.89-2.63 6.46-6.23 7.76-9.6C94.36 83.14 93.57 79.74 89.78 76.62z" fill="#ffffff" stroke-width="none" opacity="0.4"></path><path id="SvgjsPath4283" d="M153.71 83.76c-0.2-0.95-0.69-2.01-1.04-2.35 -0.7-0.7-2.57-1.14-3.87-1.19 -6.82-14.51-37.85-11.21-42.69-0.22 -3.34-1.97-8.87-1.98-12.23 0 -4.85-11-35.88-14.29-42.69 0.22 -1.3 0.05-3.17 0.49-3.87 1.19 -0.34 0.34-0.84 1.4-1.04 2.35 -0.13 0.63-0.6 1.16-0.44 1.53 0.44 1 1.33 0.38 1.71 0.13 0.29-0.1 1.55 0.06 2.36 0.69 0.08 9.47 10.7 17.59 24.38 16.25 13.97-1.36 21.1-13.38 20.15-20.44 1.91-1.42 9.19-1.43 11.11 0 -0.95 7.05 6.18 19.07 20.15 20.44 13.67 1.34 24.3-6.78 24.38-16.25 0.81-0.63 2.06-0.79 2.36-0.69 0.38 0.25 1.28 0.87 1.72-0.13C154.31 84.92 153.84 84.39 153.71 83.76zM50.03 84.34c-0.7-0.33-1.46-0.53-2.11-0.53 0.14-0.52 0.37-1.11 0.53-1.27 0.26-0.26 1.12-0.64 2.07-0.61C50.28 82.71 50.12 83.52 50.03 84.34zM91.98 87.81c-2.16 5.6-7.98 12.01-17.83 12.98 -14.85 1.45-25.84-8.92-21.8-19.2 0.1-0.24 0.15-0.35 0.22-0.54C58.11 68.82 82.13 70.96 89.48 77 92.8 79.73 93.99 82.75 91.98 87.81zM125.86 100.79c-9.85-0.96-15.68-7.38-17.84-12.98 -2.02-5.06-0.82-8.08 2.5-10.81 7.35-6.04 31.36-8.17 36.91 4.04 0.07 0.2 0.13 0.3 0.22 0.54C151.7 91.86 140.7 102.24 125.86 100.79zM149.97 84.34c-0.1-0.82-0.25-1.63-0.49-2.41 0.95-0.03 1.81 0.34 2.07 0.61 0.16 0.17 0.39 0.75 0.53 1.27C151.43 83.82 150.67 84.01 149.97 84.34z" fill="#00c851" stroke-width="none" opacity="1"></path></g></g></g><rect id="SvgjsRect3773" width="200" height="15" x="0" y="185" fill="#ecf0f1" opacity="0.5" style="display:none;"></rect><text id="SvgjsText3774" font-family="&quot;Roboto&quot;, &quot;Helvetica Neue&quot;, Helvetica, Arial, sans-serif" style="font-size:0.84em;font-family:&quot;Roboto&quot;, &quot;Helvetica Neue&quot;, Helvetica, Arial, sans-serif;text-anchor:middle;font-weight:400;display:none;" font-size="0.84em" text-anchor="middle" font-weight="400" fill="#000000" x="100" y="185"><tspan id="SvgjsTspan3775" dy="1.2em" x="100" style="font-size:0.84em;font-family:&quot;Roboto&quot;, &quot;Helvetica Neue&quot;, Helvetica, Arial, sans-serif;text-anchor:middle;font-weight:400;">Created on AvatarMaker.com</tspan></text></g><defs id="SvgjsDefs3738"><radialGradient id="SvgjsRadialGradient3789" cx="100" cy="114" r="41" gradientUnits="userSpaceOnUse" class="svga-on-canvas-facehighlight-gradient-single-0"><stop id="SvgjsStop3790" stop-opacity="0.5" stop-color="#ffc6b3" offset="0" ></stop><stop id="SvgjsStop3791" stop-opacity="0" stop-color="#f2aa92" offset="0.9" ></stop></radialGradient><radialGradient id="SvgjsRadialGradient3793" cx="100" cy="54" r="37" gradientUnits="userSpaceOnUse" class="svga-on-canvas-facehighlight-gradient-single-1"><stop id="SvgjsStop3794" stop-opacity="0.5" stop-color="#ffc6b3" offset="0" ></stop><stop id="SvgjsStop3795" stop-opacity="0" stop-color="#f2aa92" offset="0.9" ></stop></radialGradient><radialGradient id="SvgjsRadialGradient3878" cx="-568.659" cy="-521.042" r="59.751" gradientTransform="matrix(0.096 -0.0248 0.0245 0.0961 141.2814 119.9893)" gradientUnits="userSpaceOnUse" class="svga-on-canvas-eyesiris-gradient-left-1"><stop id="SvgjsStop3879" stop-opacity="1" stop-color="#ffffff" offset="0" ></stop><stop id="SvgjsStop3880" stop-opacity="0" stop-color="#ffffff" offset="1" ></stop></radialGradient><radialGradient id="SvgjsRadialGradient3882" cx="-582.838" cy="-519.099" r="59.745" gradientTransform="matrix(0.0991 8.856319e-004 -0.0011 0.0991 131.1134 135.9855)" gradientUnits="userSpaceOnUse" class="svga-on-canvas-eyesiris-gradient-left-2"><stop id="SvgjsStop3883" stop-opacity="1" stop-color="#ffffff" offset="0" ></stop><stop id="SvgjsStop3884" stop-opacity="0" stop-color="#ffffff" offset="1" ></stop></radialGradient><linearGradient id="SvgjsLinearGradient3888" x1="122.67" y1="88.268" x2="123.606" y2="87.152" gradientTransform="matrix(1 0 0 1 -52 0)" gradientUnits="userSpaceOnUse" class="svga-on-canvas-eyesiris-gradient-left-5"><stop id="SvgjsStop3889" stop-opacity="1" stop-color="#ffffff" offset="0" ></stop><stop id="SvgjsStop3890" stop-opacity="0" stop-color="#ffffff" offset="1" ></stop></linearGradient><linearGradient id="SvgjsLinearGradient3892" x1="127.212" y1="82.296" x2="126.463" y2="83.189" gradientTransform="matrix(1 0 0 1 -52 0)" gradientUnits="userSpaceOnUse" class="svga-on-canvas-eyesiris-gradient-left-6"><stop id="SvgjsStop3893" stop-opacity="1" stop-color="#ffffff" offset="0" ></stop><stop id="SvgjsStop3894" stop-opacity="0" stop-color="#ffffff" offset="1" ></stop></linearGradient><linearGradient id="SvgjsLinearGradient3896" x1="129.636" y1="79.822" x2="127.91" y2="81.879" gradientTransform="matrix(1 0 0 1 -52 0)" gradientUnits="userSpaceOnUse" class="svga-on-canvas-eyesiris-gradient-left-7"><stop id="SvgjsStop3897" stop-opacity="1" stop-color="#ffffff" offset="0" ></stop><stop id="SvgjsStop3898" stop-opacity="0" stop-color="#ffffff" offset="1" ></stop></linearGradient><radialGradient id="SvgjsRadialGradient3901" cx="-568.654" cy="-521.042" r="59.752" gradientTransform="matrix(0.096 -0.0248 0.0245 0.0961 193.2804 119.9894)" gradientUnits="userSpaceOnUse" class="svga-on-canvas-eyesiris-gradient-right-1"><stop id="SvgjsStop3902" stop-opacity="1" stop-color="#ffffff" offset="0" ></stop><stop id="SvgjsStop3903" stop-opacity="0" stop-color="#ffffff" offset="1" ></stop></radialGradient><radialGradient id="SvgjsRadialGradient3905" cx="-582.833" cy="-519.102" r="59.747" gradientTransform="matrix(0.0991 8.856319e-004 -0.0011 0.0991 183.1126 135.9856)" gradientUnits="userSpaceOnUse" class="svga-on-canvas-eyesiris-gradient-right-2"><stop id="SvgjsStop3906" stop-opacity="1" stop-color="#ffffff" offset="0" ></stop><stop id="SvgjsStop3907" stop-opacity="0" stop-color="#ffffff" offset="1" ></stop></radialGradient><linearGradient id="SvgjsLinearGradient3911" x1="122.67" y1="88.268" x2="123.606" y2="87.152" gradientUnits="userSpaceOnUse" class="svga-on-canvas-eyesiris-gradient-right-5"><stop id="SvgjsStop3912" stop-opacity="1" stop-color="#ffffff" offset="0" ></stop><stop id="SvgjsStop3913" stop-opacity="0" stop-color="#ffffff" offset="1" ></stop></linearGradient><linearGradient id="SvgjsLinearGradient3915" x1="127.212" y1="82.296" x2="126.463" y2="83.189" gradientUnits="userSpaceOnUse" class="svga-on-canvas-eyesiris-gradient-right-6"><stop id="SvgjsStop3916" stop-opacity="1" stop-color="#ffffff" offset="0" ></stop><stop id="SvgjsStop3917" stop-opacity="0" stop-color="#ffffff" offset="1" ></stop></linearGradient><linearGradient id="SvgjsLinearGradient3919" x1="129.636" y1="79.822" x2="127.91" y2="81.879" gradientUnits="userSpaceOnUse" class="svga-on-canvas-eyesiris-gradient-right-7"><stop id="SvgjsStop3920" stop-opacity="1" stop-color="#ffffff" offset="0" ></stop><stop id="SvgjsStop3921" stop-opacity="0" stop-color="#ffffff" offset="1" ></stop></linearGradient><radialGradient id="SvgjsRadialGradient4113" cx="73.488" cy="85.375" r="10.708" gradientUnits="userSpaceOnUse" class="svga-on-canvas-eyesback-gradient-left-0"><stop id="SvgjsStop4114" stop-opacity="1" stop-color="#ffffff" offset="0" ></stop><stop id="SvgjsStop4115" stop-opacity="1" stop-color="#fdfefe" offset="0.544" ></stop><stop id="SvgjsStop4116" stop-opacity="1" stop-color="#f6f8f9" offset="0.74" ></stop><stop id="SvgjsStop4117" stop-opacity="1" stop-color="#eaeff2" offset="0.879" ></stop><stop id="SvgjsStop4118" stop-opacity="1" stop-color="#d9e3e8" offset="0.992" ></stop><stop id="SvgjsStop4119" stop-opacity="1" stop-color="#d8e2e7" offset="1" ></stop></radialGradient><radialGradient id="SvgjsRadialGradient4121" cx="73.888" cy="85.375" r="10.708" gradientTransform="matrix(-1 0 0 1 200 0)" gradientUnits="userSpaceOnUse" class="svga-on-canvas-eyesback-gradient-right-0"><stop id="SvgjsStop4122" stop-opacity="1" stop-color="#ffffff" offset="0" ></stop><stop id="SvgjsStop4123" stop-opacity="1" stop-color="#fdfefe" offset="0.544" ></stop><stop id="SvgjsStop4124" stop-opacity="1" stop-color="#f6f8f9" offset="0.74" ></stop><stop id="SvgjsStop4125" stop-opacity="1" stop-color="#eaeff2" offset="0.879" ></stop><stop id="SvgjsStop4126" stop-opacity="1" stop-color="#d9e3e8" offset="0.992" ></stop><stop id="SvgjsStop4127" stop-opacity="1" stop-color="#d8e2e7" offset="1" ></stop></radialGradient><radialGradient id="SvgjsRadialGradient4129" cx="73.488" cy="85.375" r="10.708" gradientUnits="userSpaceOnUse" class="svga-on-canvas-eyesfront-gradient-left-0"><stop id="SvgjsStop4130" stop-opacity="1" stop-color="#ffffff" offset="0" ></stop><stop id="SvgjsStop4131" stop-opacity="1" stop-color="#fdfefe" offset="0.544" ></stop><stop id="SvgjsStop4132" stop-opacity="1" stop-color="#f6f8f9" offset="0.74" ></stop><stop id="SvgjsStop4133" stop-opacity="1" stop-color="#eaeff2" offset="0.879" ></stop><stop id="SvgjsStop4134" stop-opacity="1" stop-color="#d9e3e8" offset="0.992" ></stop><stop id="SvgjsStop4135" stop-opacity="1" stop-color="#d8e2e7" offset="1" ></stop></radialGradient><radialGradient id="SvgjsRadialGradient4139" cx="123.727" cy="82.803" fx="133.913" fy="79.051" r="17.225" gradientTransform="matrix(0.9998 0.0208 0.0166 -0.7998 -48.8047 146.4561)" gradientUnits="userSpaceOnUse" class="svga-on-canvas-eyesfront-gradient-left-3"><stop id="SvgjsStop4140" stop-opacity="1" stop-color="#e38e72" offset="0" ></stop><stop id="SvgjsStop4141" stop-opacity="0.3" stop-color="#e38e72" offset="0.7" ></stop><stop id="SvgjsStop4142" stop-opacity="0" stop-color="#f2aa92" offset="1" ></stop></radialGradient><radialGradient id="SvgjsRadialGradient4144" cx="71.717" cy="117.05" r="39.091" gradientTransform="matrix(0.0542 -0.9985 0.7911 0.043 -24.769 183.6334)" gradientUnits="userSpaceOnUse" class="svga-on-canvas-eyesfront-gradient-left-4"><stop id="SvgjsStop4145" stop-opacity="0" stop-color="#000000" offset="0.95" ></stop><stop id="SvgjsStop4146" stop-opacity="0.2" stop-color="#000000" offset="1" ></stop></radialGradient><radialGradient id="SvgjsRadialGradient4150" cx="73.888" cy="85.375" r="10.708" gradientTransform="matrix(-1 0 0 1 200 0)" gradientUnits="userSpaceOnUse" class="svga-on-canvas-eyesfront-gradient-right-0"><stop id="SvgjsStop4151" stop-opacity="1" stop-color="#ffffff" offset="0" ></stop><stop id="SvgjsStop4152" stop-opacity="1" stop-color="#fdfefe" offset="0.544" ></stop><stop id="SvgjsStop4153" stop-opacity="1" stop-color="#f6f8f9" offset="0.74" ></stop><stop id="SvgjsStop4154" stop-opacity="1" stop-color="#eaeff2" offset="0.879" ></stop><stop id="SvgjsStop4155" stop-opacity="1" stop-color="#d9e3e8" offset="0.992" ></stop><stop id="SvgjsStop4156" stop-opacity="1" stop-color="#d8e2e7" offset="1" ></stop></radialGradient><radialGradient id="SvgjsRadialGradient4160" cx="123.328" cy="82.803" fx="133.514" fy="79.051" r="17.225" gradientTransform="matrix(-0.9998 0.0208 -0.0166 -0.7998 248.0079 146.4644)" gradientUnits="userSpaceOnUse" class="svga-on-canvas-eyesfront-gradient-right-3"><stop id="SvgjsStop4161" stop-opacity="1" stop-color="#e38e72" offset="0" ></stop><stop id="SvgjsStop4162" stop-opacity="0.3" stop-color="#e38e72" offset="0.7" ></stop><stop id="SvgjsStop4163" stop-opacity="0" stop-color="#f2aa92" offset="1" ></stop></radialGradient><radialGradient id="SvgjsRadialGradient4165" cx="72.116" cy="117.05" r="39.092" gradientTransform="matrix(-0.0542 -0.9985 -0.7911 0.043 224.3918 184.0318)" gradientUnits="userSpaceOnUse" class="svga-on-canvas-eyesfront-gradient-right-4"><stop id="SvgjsStop4166" stop-opacity="0" stop-color="#000000" offset="0.95" ></stop><stop id="SvgjsStop4167" stop-opacity="0.2" stop-color="#000000" offset="1" ></stop></radialGradient><linearGradient id="SvgjsLinearGradient4219" x1="100" y1="171" x2="100" y2="128" gradientUnits="userSpaceOnUse" class="svga-on-canvas-chinshadow-gradient-single-0"><stop id="SvgjsStop4220" stop-opacity="0.8" stop-color="#e38e72" offset="0" ></stop><stop id="SvgjsStop4221" stop-opacity="1" stop-color="#c45e3b" offset="0.7" ></stop></linearGradient><linearGradient id="SvgjsLinearGradient4273" x1="100" y1="141" x2="100" y2="137" gradientUnits="userSpaceOnUse" class="svga-on-canvas-mouth-gradient-single-0"><stop id="SvgjsStop4274" stop-opacity="1" stop-color="#ea9c82" offset="0.1" ></stop><stop id="SvgjsStop4275" stop-opacity="1" stop-color="#e38e72" offset="1" ></stop></linearGradient></defs></svg>