<svg xmlns="http://www.w3.org/2000/svg" version="1.1" width="600px" height="600px" xlink="http://www.w3.org/1999/xlink" style="overflow:hidden!important;"><g id="svga-group-wrapper" transform="scale(3 3)"><g id="svga-group-backs-single"><path id="SvgjsPath6763" d="M225 225H-25V-25h250V225z" fill="#ffffff" stroke-width="none" opacity="1"></path></g><g id="svga-group-subwrapper" transform="matrix(0.84999948 0 0 0.84999948 15.000052071525815 14.980102590021971)"><g id="svga-group-hair-back" ><path id="SvgjsPath6780" d="M160.527 108.896c-0.826 32.13-5.272 102.953-58.469 102.589 -80.381-0.551-60.969-69.5-61.767-102.589 -1.15-47.67 26.917-86.339 60.118-86.339C133.611 22.558 161.753 61.229 160.527 108.896z" fill="#85481f" stroke-width="none" opacity="1"></path></g><g id="svga-group-humanbody-single"><path id="SvgjsPath6469" d="M190.858 199.866c-6.008-10.158-13.474-11.973-19.628-13.936 -6.323-2.016-19.346-3.178-26.449-4.6 -6.86-1.373-23.153-5.789-23.339-13.488 -0.192-8.066 4.291-40.09 4.291-40.09H74.005c0 0 4.487 32.023 4.294 40.09 -0.184 7.699-16.48 12.115-23.341 13.488 -7.104 1.422-20.125 2.584-26.448 4.6 -6.156 1.963-13.624 3.777-19.632 13.936 -3.644 6.16-6.008 16.133-6.008 27.133h194C196.869 215.999 194.509 206.026 190.858 199.866z" fill="#e19e95" stroke-width="none" opacity="1" stroke="none"></path><path id="SvgjsPath6470" d="M121.442 167.843c2.495 10.929 18.165 13.698 26.293 15.325 21.909 4.379 33.772 5.134 42.297 19.539 2.903 4.916 5.459 15.864 5.962 24.153 1.835 0.291 0.531-17.432-5.136-26.994 -9.742-16.472-29.089-15.135-46.077-18.535C137.921 179.958 121.628 175.542 121.442 167.843L121.442 167.843zM78.558 167.843c-0.186 7.699-16.479 12.115-23.339 13.488 -16.988 3.4-36.335 2.063-46.077 18.535 -5.667 9.563-6.971 27.285-5.136 26.994 0.503-8.289 3.059-19.237 5.962-24.153 8.524-14.405 20.388-15.16 42.297-19.539C60.393 181.541 76.063 178.771 78.558 167.843L78.558 167.843z" fill="#f0beb7" stroke-width="none" opacity="1" stroke="none"></path><path id="SvgjsPath6471" d="M51.206 189.513c0 0 28.641 0.299 33.473 1.885 2.314 0.758 8.372 5.633 8.372 5.633s-6.556-3.17-8.658-3.758C79.51 191.909 51.206 189.513 51.206 189.513zM99.795 199.999c2.053-0.041 7.887-3.799 7.887-3.799s-5.574 2.059-7.342 2.16c-1.491 0.086-6.366-1.238-6.366-1.238S98.112 200.032 99.795 199.999zM117.008 192.757c6.75-1.818 29.786-3.23 29.786-3.23s-23.791-0.516-30.51 1.725c-2.252 0.752-7.562 5.16-7.562 5.16S114.786 193.354 117.008 192.757z" fill="#d28176" stroke-width="none" opacity="1" stroke="none"></path><path id="SvgjsPath6472" d="M190.858 199.866c-9.741-16.471-29.122-15.142-46.077-18.535 -6.86-1.373-23.153-5.789-23.339-13.488 -0.192-8.066 4.291-40.09 4.291-40.09H74.005c0 0 4.487 32.023 4.294 40.09 -0.184 7.699-16.48 12.115-23.341 13.488 -7.104 1.422-20.125 2.584-26.448 4.6 -6.156 1.963-13.624 3.777-19.632 13.936 -3.644 6.16-6.008 16.133-6.008 27.133h194C196.869 215.999 194.509 206.026 190.858 199.866z" fill="none" stroke="#b34e41" stroke-width="1.5" opacity="1"></path></g><g id="svga-group-chinshadow-single"><path id="SvgjsPath6828" d="M100.045 171.737c5.593-0.009 13.488-3.608 20.908-8.44 0.448-6.688 1.717-17.243 2.734-25.146 -13.955-1.813-33.739-1.771-47.623 0.105 1.008 7.831 2.258 18.226 2.713 24.89C86.31 168.063 94.37 171.746 100.045 171.737z" fill="url(#SvgjsLinearGradient6829)" opacity="1"></path></g><g id="svga-group-clothes-single" ><path id="SvgjsPath6817" d="M190.188 199.647c-9.662-17.92-26.803-14.749-44.614-19.556 -1.348 1.637-13.686 17.468-16.485 25.934 -1.572-1.256-3.449-2.938-4.804-4.477 -6.628-7.46-16.453-31.601-19.75-12.749 0.717-8.463 4.614-10.327 10.025-3.234 5.817 7.633 6.033 11.575 14.333 19.875 1.466-5.831 4.273-10.037 7.966-15.201 3.573-5.005 6.435-8.945 10.566-12.492 -2.261-1.226-4.647-2.217-6.801-3.596 -13.515-8.76-5.435-17.647-17.685-19.764 -0.096 1.058-0.217 2.245-0.317 3.137 2.619 1.29 3.128 6.32-0.905 10.002 -6.41 6.742-14.866 7.077-17.552 17.429l-0.006-0.001c-0.854 3.071-1.539 7.776-1.863 10.533l-4.542 0.389c-1.847-16.224-4.261-17.811-12.157-22.824 -5.231-3.321-12.489-8.335-9.698-14.003 0.318-0.656 0.705-1.059 1.186-1.361 -0.138-1.296-0.22-2.048-0.326-3.251 -12.216 2.312-4.037 11.604-17.651 19.873 -2.06 1.247-4.075 2.097-6.543 3.416 4.879 4.251 16.31 18.506 18.561 27.717 8.378-8.476 8.442-12.181 14.294-19.847 5.04-6.597 9.156-5.921 10.021 3.007 -0.476-2.682-1.603-6.787-4.045-6.787 -2.012 0-4.109 2.844-5.147 4.217 -5.809 7.667-6.742 13.154-15.352 20 -0.596-1.716-1.294-3.438-2.128-5.043 -3.412-6.604-13.291-19.595-14.342-20.887 -4.083 1.102-9.667 1.984-13.408 2.58 -24.442 3.897-33.916 8.81-37.519 44.213 89.639-0.87 126.166-0.49 192.932-0.49C195.594 218.524 193.953 206.642 190.188 199.647z" fill="#ffbb33" stroke-width="none" opacity="1" stroke="none"></path><path id="SvgjsPath6818" d="M95.717 224.342c-3.653 0-6.286-0.061-7.83-0.178 0.466-2.48 1.856-7.125 2.656-9.437 -2.555-3.227-3.274-6.568-3.908-9.518 -0.377-1.754-0.705-3.274-1.361-4.468 0.136-0.077 0.49-0.274 0.49-0.274l-0.063-0.091c-1.685-2.413-3.682-5.039-5.754-6.277l0.34-0.566c1.692-2.82 4.515-7.526 6.942-9.985 4.186 3.168 8.991 9.141 10.865 12.259l0.035 0.057 0.066-0.01c1.296-0.193 2.722-0.309 3.815-0.309 2.926-4.474 7.014-9.048 10.768-12 1.966 1.719 5.101 6.956 6.614 9.487 0.293 0.488 0.517 0.863 0.65 1.074 -2.356 1.583-4.58 4.592-5.434 5.822l-0.054 0.077 0.074 0.059c0.338 0.263 0.988 0.809 1.331 1.15 -0.691 5.103-2.874 10.362-5.725 13.645 0.685 2.18 0.951 4.674 1.32 8.126l0.123 1.141c-0.251 0.003-0.797 0.014-1.564 0.029C107.169 224.216 101.044 224.342 95.717 224.342 95.718 224.342 95.718 224.342 95.717 224.342z" fill="#141111" stroke-width="none" opacity="1"></path><path id="SvgjsPath6819" d="M113.911 202.273c-0.201 4.322-1.702 7.874-4.265 12.068 2.646-3.301 5.655-8.274 6.313-13.127 -2.801-2.801-12.774-7.511-23.341-3.521C101.263 195.991 111.48 197.412 113.911 202.273z" fill="#2c2526" stroke-width="none" opacity="1"></path><path id="SvgjsPath6820" d="M143.952 181.126c-2.462 2.676-4.609 5.634-7.094 9.113 -3.192 4.465-5.719 8.218-7.293 12.92 1.813-9.701 7.918-18.479 15.435-25.159 -7.906-1.438-11.68-8.559-13.549-15.792 1.174 3.502 2.683 7.736 9.173 11.943 2.153 1.379 4.54 2.37 6.801 3.596C147.273 177.877 143.952 181.126 143.952 181.126zM186 198c5.681 7.102 8.332 16.221 10.11 25.565 -0.919-7.689-2.586-17.72-5.923-23.918 -9.662-17.92-26.803-14.749-44.614-19.556 -0.158 0.191-0.471 0.584-0.897 1.131C159.32 183.163 176.369 185.48 186 198zM52.575 177.747c2.261-1.226 4.647-2.217 6.801-3.596 6.49-4.207 7.999-8.441 9.173-11.943C66.68 169.441 62.906 176.563 55 178c7.517 6.681 13.621 15.458 15.435 25.159 -1.574-4.702-4.101-8.455-7.293-12.92 -2.484-3.479-4.632-6.438-7.094-9.113C56.048 181.126 52.727 177.877 52.575 177.747zM55.324 181.223c-0.427-0.547-0.739-0.939-0.897-1.131 -17.812 4.807-34.952 1.636-44.614 19.556 -3.337 6.198-5.004 16.229-5.923 23.918C5.668 214.221 8.319 205.102 14 198 23.631 185.48 40.68 183.163 55.324 181.223z" fill="#545b8e" stroke-width="none" opacity="1"></path><path id="SvgjsPath6821" d="M143.952 181.126c-2.462 2.676-4.609 5.634-7.094 9.113 -3.192 4.465-5.719 8.218-7.293 12.92 1.813-9.701 7.918-18.479 15.435-25.159 -7.906-1.438-11.68-8.559-13.549-15.792 1.174 3.502 2.683 7.736 9.173 11.943 2.153 1.379 4.54 2.37 6.801 3.596C147.273 177.877 143.952 181.126 143.952 181.126zM186 198c5.681 7.102 8.332 16.221 10.11 25.565 -0.919-7.689-2.586-17.72-5.923-23.918 -9.662-17.92-26.803-14.749-44.614-19.556 -0.158 0.191-0.471 0.584-0.897 1.131C159.32 183.163 176.369 185.48 186 198zM52.575 177.747c2.261-1.226 4.647-2.217 6.801-3.596 6.49-4.207 7.999-8.441 9.173-11.943C66.68 169.441 62.906 176.563 55 178c7.517 6.681 13.621 15.458 15.435 25.159 -1.574-4.702-4.101-8.455-7.293-12.92 -2.484-3.479-4.632-6.438-7.094-9.113C56.048 181.126 52.727 177.877 52.575 177.747zM55.324 181.223c-0.427-0.547-0.739-0.939-0.897-1.131 -17.812 4.807-34.952 1.636-44.614 19.556 -3.337 6.198-5.004 16.229-5.923 23.918C5.668 214.221 8.319 205.102 14 198 23.631 185.48 40.68 183.163 55.324 181.223z" fill="#ffc34d" stroke-width="none" opacity="1" stroke="none"></path><path id="SvgjsPath6822" d="M118.303 173c-4.485 2.492-8.283 4.938-10.802 8.379 0.979 0.283 3.556 0.964 4.767 2.375 -4.003 3.142-6.432 6.012-9.915 11.611 0.397-3.133 0.558-5.563 1.203-7.858 0.188-0.914 0.39-1.785 0.604-2.553l0.006 0.001c2.686-10.352 11.142-10.687 17.552-17.429 4.033-3.682 3.524-8.712 0.905-10.002 0.101-0.892 0.222-2.079 0.317-3.137 0.672 0.116 1.271 0.257 1.828 0.413C133.028 161.766 123.939 170.584 118.303 173zM80.601 173c4.485 2.492 9.97 5.445 12.482 8.587 -0.979 0.283-4.14 0.756-5.351 2.167 4.551 4.245 7.303 7.188 10.266 11.982 -0.397-3.133-0.908-5.935-1.554-8.229 -0.188-0.914-0.39-1.785-0.604-2.553l-0.006 0.001c-2.686-10.352-11.142-10.687-17.552-17.429 -4.033-3.682-3.524-8.712-0.905-10.002 -0.101-0.892-0.222-2.079-0.317-3.137 -0.672 0.116-1.271 0.257-1.828 0.413C68.311 162.904 75.536 170.056 80.601 173z" fill="#f0a818" stroke-width="none" opacity="1" stroke="none"></path><path id="SvgjsPath6823" d="M123.859 159.785c0.569 2.32-0.34 4.21-1.75 5.82 0.01-1.72 0.16-3.45 0.319-5.15 0.08-0.84 0.171-1.689 0.25-2.529C123.219 158.295 123.639 158.896 123.859 159.785zM77.309 160.815c0.11 1.47 0.24 2.939 0.27 4.41 -1.22-1.53-1.95-3.271-1.44-5.42 0.17-0.74 0.48-1.271 0.89-1.65C77.129 159.045 77.219 159.926 77.309 160.815z" fill="#e09600" stroke-width="none" opacity="1" stroke="none"></path><path id="SvgjsPath6824" d="M192.56 200.686c-8.84-20.244-29.707-17.8-46.46-21.05 0.696-0.843 1.549-1.73 1.739-1.9 -2.635-1.86-11.126-5.595-14.239-12.38 -2.229-4.835-1.683-10.37-10.851-11.26 -0.503 2.816-1.225 9.009-1.09 12 -9.604 9.907-19.063 5.479-20.226 29.359l0.779-0.018c0 0 0.221-0.146 0.229-0.215 2.844-23.354 10.041-17.837 19.347-27.627 4.168-3.829 3.449-8.9 0.94-10.13 0.109-0.99 0.21-1.971 0.3-2.961 7.887 1.39 7.203 5.838 9.67 11.271 3.279 7.224 11.345 10.264 14.55 11.99 -4.338 3.729-7.473 8.221-10.939 13.069 -5.453 7.563-6.714 11.421-7.471 14.41 -8.276-8.33-8.281-11.981-14.2-19.74 -6.311-8.277-10.367-3.908-10.289 5.37 0.18-2.319 1.569-10.83 5.51-8.6 4.556 2.544 9.029 13.352 14.35 19.34 1.42 1.611 3.248 3.229 4.93 4.58 2.071-6.931 9.616-16.647 14.271-23.13 0.71-0.98 1.44-1.94 2.2-2.86 6.49 1.69 13.26 2.46 19.83 3.66 23.784 4.36 28.162 17.492 30.88 42.44 -37.937 0.194-79.138-0.603-192.71 0.489 1.646-16.292 4.431-29.61 14.5-36.81 4.32-3.1 9.33-4.72 14.49-5.75 7.19-1.43 14.66-2.17 21.79-4.02 0.83 1.01 1.62 2.05 2.39 3.13 8.804 12.243 11.1 14.931 14.07 22.85 10.018-7.514 14.024-21.616 19.54-24.05 3.84-1.69 5.08 6.42 5.26 8.729 0.075-9.841-4.519-15.681-13.81-0.22 -4.578 7.621-5.792 9.687-10.66 14.59 -1.955-7.948-12.36-22.256-18.44-27.5 3.772-2.028 10.592-4.438 14.24-11.3 2.409-4.707 1.339-10.294 9.69-11.89 0.09 1.029 0.2 2.05 0.31 3.08 -2.287 1.441-2.683 6.284 0.97 9.67 3.29 3.609 7.75 5.67 11.67 8.55 4.621 3.419 6.449 6.918 7.92 19.15 0.032 0.267 0.375 0.777 0.375 0.777l0.643-0.083c-0.379-8.482-1.601-15.681-6.567-19.825 -4.29-3.668-10.305-6.005-13.94-10.1 0.11-3.072-0.706-9.294-1.1-11.64 -8.308 0.811-8.378 5.859-10.14 10.279 -2.667 6.687-9.6 10.256-14.65 13.311 0.335 0.333 1.129 1.187 1.74 1.91 -6.99 1.369-14.23 1.76-21.24 2.989 -10.46 1.83-20.33 7.12-24.83 17.19 -3.418 7.642-4.409 18.603-4.66 26.99 -0.01 0.06-0.01 0.13-0.01 0.189 0.14 0.01 0.29 0.01 0.43 0.01 120.323 1.226 192.229-0.51 193.23-0.51C196.819 225.494 196.378 209.429 192.56 200.686zM122.109 165.605c0.015-2.591 0.373-5.593 0.569-7.68C124.151 158.933 125.021 162.281 122.109 165.605zM77.579 165.226c-2.446-3.068-1.66-6.042-0.55-7.07C77.261 160.228 77.537 163.13 77.579 165.226z" fill="#d18b00" stroke-width="none" opacity="1" stroke="none"></path></g><g id="svga-group-head" ><g id="svga-group-ears-left" style="display:none;"><path id="SvgjsPath6735" d="M46.778 83.745c-2.623-1.422-8.575-8.182-11.138-7.219 -1.655 0.62-2.377 5.286-2.638 7.174 -0.333 2.425-0.929 7.405-0.328 9.781 0.725 2.866 3.631 8.169 5.37 10.589 1.468 2.039 5.211 5.568 6.407 7.769 0.759 1.396 1.493 5.159 4.083 4.916 1.674-0.157 5.537-2.95 5.744-4.274C55.406 105.296 51.943 86.543 46.778 83.745z" fill="#e19e95" stroke="#b34e41" stroke-width="1.5" opacity="1"></path><path id="SvgjsPath6736" d="M43.313 99.25c-0.125-0.534 0.006-1.432 0.133-2.3 0.115-0.791 0.224-1.538 0.158-2.066 -0.251-1.978-1.66-5.737-2.578-7.775 -1.059-2.343-2.771-5.296-4.919-6.057 -0.888-0.316-1.473 0.061-1.813 0.443 -0.248 0.281-0.305 0.61-0.223 0.649 0.082 0.039 0.266-0.234 0.535-0.491 0.219-0.21 0.542-0.391 0.983-0.354 -0.178 0.985-1.091 6.32-0.696 9.957 0.311 2.86 1.489 4.996 1.673 5.316 0.028 0.337 0.073 0.667 0.139 0.987 0.869 4.175 4.648 8.921 5.963 10.476 0.243 0.285 0.496 0.456 0.56 0.388 0.062-0.07-0.087-0.354-0.33-0.642 -1.298-1.545-5.042-6.274-5.879-10.302 -0.89-4.273 2.167-10.609 2.849-11.949 0.348 0.629 0.643 1.234 0.87 1.737 0.179 0.396 0.378 0.858 0.581 1.358 -0.402 0.699-3.211 5.802-2.187 9.886 0.38 1.505 2.088 3.447 3.223 3.979 0.624 0.293 0.859 0.731 1.13 1.237 0.314 0.589 0.673 1.255 1.708 1.738 0.211 0.097 0.402 0.138 0.571 0.138 0.293 0 0.515-0.122 0.679-0.271 0.017 0.258 0.016 0.588 0.007 0.893 -0.01 0.395 0.041 0.717 0.129 0.725s0.182-0.305 0.192-0.696c0.016-0.483 0.013-1.081-0.067-1.367 -0.232-0.842-0.942-1.792-1.694-2.798C44.27 101.098 43.504 100.074 43.313 99.25zM36.538 95.548c-2.035-6.554 0-12.573 0.458-13.472 0.795 0.754 2.108 2.125 2.679 3.111C39.258 85.976 36.623 91.14 36.538 95.548zM45.318 105.137c-0.938-0.438-1.253-1.024-1.557-1.591 -0.275-0.514-0.56-1.044-1.281-1.383 -0.157-0.074-0.33-0.186-0.505-0.314 -2.324-5.75 0.254-8.264 0.899-8.779 0.199 0.703 0.346 1.348 0.411 1.865 0.061 0.475-0.05 1.229-0.156 1.959 -0.132 0.904-0.268 1.839-0.127 2.445 0.211 0.902 0.999 1.957 1.76 2.977 0.677 0.905 1.373 1.839 1.609 2.601C46.271 105.067 45.949 105.43 45.318 105.137z" fill="#b34e41" stroke-width="none" opacity="1" stroke="none"></path></g><g id="svga-group-ears-right" style="display:none;"><path id="SvgjsPath6737" d="M152.961 83.745c2.623-1.422 8.574-8.182 11.137-7.219 1.656 0.62 2.379 5.286 2.639 7.174 0.334 2.425 0.928 7.405 0.328 9.781 -0.725 2.866-3.631 8.169-5.371 10.589 -1.467 2.039-5.211 5.568-6.406 7.769 -0.76 1.396-1.492 5.159-4.084 4.916 -1.674-0.157-5.535-2.95-5.744-4.274C144.332 105.296 147.795 86.543 152.961 83.745z" fill="#e19e95" stroke="#b34e41" stroke-width="1.5" opacity="1"></path><path id="SvgjsPath6738" d="M154.729 102.088c-0.752 1.006-1.463 1.957-1.695 2.798 -0.078 0.286-0.082 0.884-0.066 1.367 0.012 0.392 0.105 0.704 0.193 0.696s0.139-0.33 0.129-0.725c-0.01-0.305-0.01-0.635 0.006-0.893 0.164 0.148 0.387 0.271 0.68 0.271 0.168 0 0.359-0.041 0.57-0.138 1.035-0.483 1.395-1.149 1.709-1.738 0.271-0.506 0.506-0.943 1.131-1.237 1.133-0.532 2.842-2.473 3.223-3.979 1.023-4.084-1.785-9.187-2.188-9.886 0.203-0.5 0.402-0.962 0.582-1.358 0.225-0.503 0.521-1.108 0.869-1.737 0.682 1.34 3.738 7.676 2.848 11.949 -0.838 4.028-4.582 8.757-5.879 10.302 -0.242 0.288-0.393 0.571-0.33 0.642 0.064 0.068 0.318-0.103 0.561-0.388 1.314-1.555 5.094-6.301 5.963-10.476 0.066-0.32 0.111-0.65 0.139-0.987 0.184-0.32 1.363-2.457 1.674-5.316 0.395-3.637-0.518-8.972-0.695-9.957 0.441-0.038 0.764 0.143 0.982 0.354 0.268 0.257 0.453 0.53 0.535 0.491 0.08-0.039 0.023-0.369-0.223-0.649 -0.342-0.382-0.926-0.759-1.813-0.443 -2.148 0.761-3.861 3.713-4.92 6.057 -0.92 2.038-2.326 5.797-2.578 7.775 -0.066 0.528 0.043 1.275 0.158 2.066 0.127 0.868 0.256 1.766 0.133 2.3C156.234 100.074 155.469 101.098 154.729 102.088zM160.064 85.187c0.57-0.986 1.883-2.357 2.678-3.111 0.457 0.899 2.494 6.918 0.459 13.472C163.115 91.14 160.48 85.976 160.064 85.187zM153.367 104.916c0.236-0.762 0.932-1.695 1.609-2.601 0.762-1.02 1.549-2.075 1.76-2.977 0.141-0.606 0.006-1.541-0.127-2.445 -0.105-0.73-0.217-1.485-0.156-1.959 0.066-0.517 0.213-1.162 0.412-1.865 0.645 0.515 3.223 3.029 0.898 8.779 -0.176 0.129-0.348 0.241-0.504 0.314 -0.723 0.339-1.008 0.869-1.281 1.383 -0.305 0.567-0.619 1.154-1.559 1.591C153.789 105.43 153.467 105.067 153.367 104.916z" fill="#b34e41" stroke-width="none" opacity="1" stroke="none"></path></g><g id="svga-group-faceshape-wrap" ><g id="svga-group-faceshape-single" ><path id="SvgjsPath6825" d="M158.918 76.762l-0.005 0c-0.012 0.053-8.517 40.707-16.719 53.285 -6.452 9.894-30.366 29.938-42.04 29.956 -11.671 0.02-35.637-19.958-42.119-29.833C49.794 117.618 41.15 77 41.138 76.946h-0.001c-1.298-4.911-1.994-10.066-2.002-15.382C39.082 28.09 66.289 0.919 99.907 0.867c33.621-0.052 60.913 27.033 60.963 60.507C160.879 66.69 160.201 71.846 158.918 76.762z" fill="#e19e95" stroke-width="none" opacity="1"></path><path id="SvgjsPath6826" d="M125.898 6.622c19.104 10.248 32.075 30.355 32.039 53.476 -0.009 5.316-0.704 10.471-2.003 15.382h-0.001c-0.012 0.053-8.656 40.672-16.898 53.224 -5.946 9.061-26.755 29.522-39.033 29.522 -12.279 0-33.086-20.462-39.033-29.522 -8.242-12.552-16.887-53.17-16.898-53.224H44.07c-1.298-4.911-1.994-10.066-2.002-15.382C42.031 36.977 55.003 16.87 74.105 6.622 53.411 16.324 39.096 37.28 39.134 61.564c0.008 5.316 0.704 10.471 2.002 15.382h0.001C41.15 77 49.794 117.618 58.036 130.17c4.416 6.728 18.123 20.495 28.7 25.782 -0.529-0.226-1.062-0.466-1.599-0.717 5.408 2.875 10.664 4.763 14.713 4.768 0.049 0 0.103-0.005 0.152-0.005s0.103 0.005 0.152 0.005c4.048-0.005 9.304-1.893 14.713-4.768 -0.538 0.252-1.071 0.491-1.601 0.717 10.577-5.286 24.285-19.055 28.701-25.782 8.241-12.552 16.887-53.17 16.897-53.224h0.002c1.298-4.911 1.994-10.066 2.002-15.382C160.908 37.28 146.595 16.324 125.898 6.622z" fill="#d98f85" stroke-width="none" opacity="1"></path><path id="SvgjsPath6827" d="M158.918 76.762l-0.005 0c-0.012 0.053-8.517 40.707-16.719 53.285 -6.452 9.894-30.366 29.938-42.04 29.956 -11.671 0.02-35.637-19.958-42.119-29.833C49.794 117.618 41.15 77 41.138 76.946h-0.001c-1.298-4.911-1.994-10.066-2.002-15.382C39.082 28.09 66.289 0.919 99.907 0.867c33.621-0.052 60.913 27.033 60.963 60.507C160.879 66.69 160.201 71.846 158.918 76.762z" fill="none" stroke="#b34e41" stroke-width="1.5" opacity="1"></path></g></g><g id="svga-group-mouth-single" ><path id="SvgjsPath6838" d="M99.825 142.068c-3.24 0-4.753-2.802-4.753-2.802s4.797 0.781 9.279-0.064C104.352 139.202 102.675 142.068 99.825 142.068z" fill="url(#SvgjsLinearGradient6839)" opacity="1"></path><path id="SvgjsPath6842" d="M95.211 139.349c-0.132-0.039-0.23-0.149-0.208-0.285 0.021-0.137 0.151-0.224 0.286-0.209 3.612 0.857 5.963 0.661 8.766-0.043 0.145-0.035 0.27 0.062 0.297 0.195s-0.063 0.256-0.193 0.296C101.098 140.207 98.142 140.241 95.211 139.349zM85.447 132.958c0.313-0.144 0.582-0.086 1.073-0.115 1.419-0.249 3.128-0.323 4.54-0.611 1.348-0.274 2.774-0.662 4.158-0.597 1.488 0.071 2.879 0.669 4.353 0.829 1.401 0.151 2.708-0.229 4.053-0.557 1.542-0.376 3.01-0.287 4.56 0.006 1.938 0.363 3.774 0.857 5.689 1.038 0.582 0.055 0.365 0.413 0.032 0.454 -1.713 0.205-3.431-0.068-5.194-0.249 -1.425-0.146-2.868-0.329-4.274 0.021 -1.518 0.379-3.437 0.822-4.605 0.808 -1.3-0.017-2.521-0.538-3.784-0.807 -1.551-0.327-3.091-0.02-4.647 0.143 -1.938 0.201-3.672 0.34-5.579 0.047C85.312 133.29 85.306 133.023 85.447 132.958z" fill="#b34e41" stroke-width="none" opacity="1"></path></g><g id="svga-group-eyes-left" ><g id="svga-group-eyesback-left"><path id="SvgjsPath6653" d="M80.854 79.416c2.436 1.371 4.469 3.053 6.65 5.942 0.047 0.184 0.088 0.364 0.1 0.534 0.218 3.267-1.324 6.223-3.851 8.345 -2.66 1.242-9.155 4.42-18.706-0.284 -1.653-1.546-2.925-3.497-3.748-5.672 0.075 0.106 0.168 0.208 0.236 0.317 -0.439-0.952-0.988-2.855-0.988-4.983C69.383 80.367 73.652 78.675 80.854 79.416z" fill="url(#SvgjsRadialGradient6654)" opacity="1"></path></g><g id="svga-group-eyesiriswrapper-left" transform="translate(0 0.5)"><g id="svga-group-eyesiriscontrol-left" ><g id="svga-group-eyesiris-left" ><path id="SvgjsPath6843" d="M83.5 87.001c0 4.693-3.806 8.498-8.5 8.498s-8.5-3.805-8.5-8.498c0-4.697 3.806-8.502 8.5-8.502S83.5 82.304 83.5 87.001z" fill="#66724e" stroke="#36441a" stroke-width="0.5" opacity="1"></path><path id="SvgjsPath6844" d="M70.058 90.974c1.241-0.103 0.142-0.434 0.142-0.434 -0.613-0.331-1.768-0.839-1.768-1.306 0-1.461 2.002-1.839-0.048-2.416 -2.13-1.955 1.653-1.914 1.625-1.98 -1.381-3.366 0.423-1.518 1.183-2.512 2.816-3.682 0.785 0.378 2.314 0 0.554-0.136-1.105-2.169 0.048-1.884 0.763 0.187 0.937 0.821 0.937 0.821 0.557-0.109 1.428-0.966 1.428-0.966 1.061 0.32 1.806 1.827 1.478 1.545 0.522-0.063 1.252-0.313 1.822-0.483 0 0 0.1-0.338 0.196-0.047 1.3 3.77 4.652 3.5 0.792 4.589 0 0-0.249 0 0.542 0.627 3.839 3.066-2.978 2.117 0.638 3.527 0.147-0.146-2.167 1.368-2.167 1.787 0 0.71-1.477 2.576-2.757 1.841 -0.714-0.408-0.823 0.85-1.243 0.269 -0.823-1.138-2.467-0.049-1.859-1.095 0.898-0.737-0.926 0.289-1.28 0.289 -1.172 0 1.534-3.942 5.516-1.013 1.165 0.853-1.224-2.03 0.886-2.03 0.211 0.069 0.148-0.739 0.148-0.966 -1.098-0.215 1.969-0.005 1.969-1.788 0.193 0.039 0.721-0.495-2.316 0 0 0-0.097-1.063-0.048-1.256 0.156-0.62 1.72-0.422 1.28-1.063 -0.001-0.001-1.132-2.272-1.132-2.272 -3.645-0.586-1.562-0.952-3.841-0.483 -0.108 0.535-4.881 2.811-4.729 3.866 0.142 0.995 2.997 1.328 0.295 3.091C74.157 96.989 67.118 89.06 70.058 90.974z" fill="#788165" stroke-width="none" opacity="1"></path><path id="SvgjsPath6845" d="M75,79.562l0.243,6.223l2.603-5.656l-2.158,5.84l4.572-4.229l-4.229,4.57l5.842-2.157l-5.655,2.604l6.222,0.242l-6.222,0.242l5.655,2.604l-5.842-2.157l4.229,4.57l-4.572-4.229l2.158,5.84l-2.603-5.656L75,94.437l-0.243-6.223l-2.604,5.656l2.156-5.84l-4.57,4.229l4.229-4.57l-5.842,2.157l5.655-2.604l-6.219-0.242l6.219-0.242l-5.655-2.604l5.842,2.157l-4.229-4.57l4.57,4.229l-2.156-5.84l2.604,5.656L75,79.562z" fill="#66724e" stroke="#55633a" stroke-width="0.5" opacity="1"></path><path id="SvgjsPath6846" d="M76.128,81.428l-0.764,4.697l2.808-3.841l-2.501,4.047l4.065-2.476l-3.859,2.783l4.702-0.73l-4.632,1.092l4.626,1.125l-4.699-0.762l3.842,2.808l-4.05-2.5l2.476,4.064l-2.783-3.86l0.73,4.702l-1.092-4.632l-1.126,4.625l0.764-4.697l-2.811,3.841l2.504-4.048l-4.064,2.476l3.86-2.783l-4.702,0.73l4.631-1.093l-4.625-1.125l4.697,0.761l-3.842-2.808l4.05,2.5l-2.475-4.064l2.782,3.86l-0.73-4.701l1.095,4.632L76.128,81.428z" fill="#66724e" stroke="#455328" stroke-width="0.5" opacity="1"></path><path id="SvgjsPath6847" d="M78.188 87c0 1.761-1.428 3.187-3.188 3.187S71.813 88.76 71.813 87c0-1.76 1.428-3.188 3.188-3.188S78.188 85.239 78.188 87z" fill="#000000" stroke-width="none" opacity="0.9"></path><path id="SvgjsPath6848" d="M71.653 93.108c-0.469 0.469-1.396 0.304-2.069-0.37 -0.674-0.673-0.84-1.6-0.37-2.069 0.469-0.469 1.396-0.304 2.069 0.37S72.123 92.638 71.653 93.108z" fill="#ffffff" stroke-width="none" opacity="0.7"></path><path id="SvgjsPath6849" d="M81.809 85.326c-0.702 0.703-2.404 0.142-3.8-1.255 -1.396-1.396-1.958-3.097-1.255-3.8 0.703-0.703 2.404-0.142 3.8 1.255C81.95 82.922 82.511 84.624 81.809 85.326z" fill="#ffffff" stroke-width="none" opacity="0.9"></path></g></g></g><g id="svga-group-eyesfront-left"><path id="SvgjsPath6678" d="M56 88c0 13.808 8.06 24.999 18 24.999S92 101.808 92 88c0-13.809-8.06-25.001-18-25.001S56 74.191 56 88zM61.299 88.281c0.075 0.106 0.168 0.208 0.236 0.317 -0.439-0.952-0.988-2.855-0.988-4.983 8.836-3.248 13.105-4.939 20.307-4.199 2.436 1.371 4.469 3.053 6.65 5.942 0.047 0.184 0.088 0.364 0.1 0.534 0.218 3.267-1.324 6.223-3.851 8.345 -2.66 1.242-9.155 4.42-18.706-0.284C63.394 92.407 62.122 90.456 61.299 88.281z" fill="#e19e95" stroke-width="none" opacity="1" stroke="none"></path><path id="SvgjsPath6679" d="M59.401 85.081c0.024 8.284 7.916 14.961 17.639 14.918 9.72-0.048 17.583-6.796 17.559-15.08 -0.024-8.286-7.918-14.964-17.641-14.92C67.236 70.047 59.377 76.795 59.401 85.081zM61.299 88.281c0.075 0.106 0.168 0.208 0.236 0.317 -0.439-0.952-0.988-2.855-0.988-4.983 8.836-3.248 13.105-4.939 20.307-4.199 2.436 1.371 4.469 3.053 6.65 5.942 0.047 0.184 0.088 0.364 0.1 0.534 0.218 3.267-1.324 6.223-3.851 8.345 -2.66 1.242-9.155 4.42-18.706-0.284C63.394 92.407 62.122 90.456 61.299 88.281z" fill="url(#SvgjsRadialGradient6680)" opacity="1"></path><path id="SvgjsPath6684" d="M65.047 93.953c-1.653-1.546-2.925-3.497-3.748-5.672 0.075 0.106 0.168 0.208 0.236 0.317 -0.439-0.952-0.988-2.855-0.988-4.983 8.836-3.248 13.105-4.939 20.307-4.199 2.436 1.371 4.469 3.053 6.65 5.942 0.047 0.184 0.088 0.364 0.1 0.534 0.218 3.267-1.324 6.223-3.851 8.345C81.093 95.479 74.598 98.657 65.047 93.953z" fill="url(#SvgjsRadialGradient6685)" opacity="1"></path><path id="SvgjsPath6688" d="M66.338 77.989c3.414-1.34 14.297-4.254 19.581-1.339C78.348 74.293 70.782 76.817 66.338 77.989z" fill="#b34e41" stroke-width="none" opacity="1" stroke="none"></path><path id="SvgjsPath6689" d="M84.036 93.981c-2.524 1.13-9.385 4.81-19.647-0.458C69.603 98.517 79.131 98.235 84.036 93.981zM83.049 78.924c2.323 1.77 3.414 3.542 4.665 6.75 -2.263-3.004-4.346-4.705-6.86-6.092 -7.201-0.726-11.471 0.933-20.307 4.116 0 2.086 0.549 3.952 0.988 4.885 -1.601-2.492-5.104-4.364-10.209-6.147 2.632 0.313 6.078 0.089 7.684-0.439 -0.786-0.515-1.213-1.037-1.646-1.701 2.461 0.715 4.014 0.617 6.586-0.055 -1.376-0.106-2.349-0.687-3.622-1.701 0 0 4.934 0.549 6.586 0.549 2.305 0 4.83-1.976 15.313-1.701 1.563 0.041 6.146 1.152 6.146 1.152L83.049 78.924z" fill="#302040" stroke-width="none" opacity="1" stroke="none"></path></g></g><g id="svga-group-eyes-right" ><g id="svga-group-eyesback-right"><path id="SvgjsPath6661" d="M119.146 79.416c-2.436 1.371-4.469 3.053-6.65 5.942 -0.047 0.184-0.088 0.364-0.1 0.534 -0.218 3.267 1.324 6.223 3.851 8.345 2.66 1.242 9.155 4.42 18.706-0.284 1.653-1.546 2.925-3.497 3.748-5.672 -0.075 0.106-0.168 0.208-0.236 0.317 0.439-0.952 0.988-2.855 0.988-4.983C130.617 80.367 126.348 78.675 119.146 79.416z" fill="url(#SvgjsRadialGradient6662)" opacity="1"></path></g><g id="svga-group-eyesiriswrapper-right" transform="translate(0 0.5)"><g id="svga-group-eyesiriscontrol-right" ><g id="svga-group-eyesiris-right" ><path id="SvgjsPath6850" d="M133.5 87.001c0 4.692-3.806 8.498-8.5 8.498s-8.5-3.806-8.5-8.498c0-4.697 3.806-8.502 8.5-8.502S133.5 82.304 133.5 87.001z" fill="#66724e" stroke="#36441a" stroke-width="0.5" opacity="1"></path><path id="SvgjsPath6851" d="M120.059 90.974c1.24-0.103 0.142-0.434 0.142-0.434 -0.613-0.33-1.768-0.838-1.768-1.305 0-1.461 2.002-1.84-0.048-2.416 -2.131-1.956 1.652-1.915 1.625-1.981 -1.382-3.366 0.423-1.518 1.182-2.512 2.816-3.682 0.785 0.378 2.314 0 0.555-0.136-1.104-2.169 0.048-1.884 0.763 0.186 0.938 0.821 0.938 0.821 0.557-0.109 1.428-0.966 1.428-0.966 1.061 0.32 1.806 1.828 1.478 1.546 0.521-0.063 1.252-0.313 1.821-0.483 0 0 0.1-0.338 0.196-0.046 1.3 3.77 4.652 3.499 0.791 4.589 0 0-0.249 0 0.542 0.627 3.84 3.065-2.978 2.117 0.638 3.527 0.148-0.147-2.167 1.367-2.167 1.786 0 0.711-1.477 2.576-2.757 1.842 -0.714-0.409-0.822 0.85-1.243 0.269 -0.823-1.138-2.468-0.049-1.859-1.095 0.898-0.737-0.926 0.288-1.28 0.288 -1.172 0 1.534-3.942 5.516-1.013 1.165 0.854-1.225-2.029 0.886-2.029 0.212 0.069 0.148-0.739 0.148-0.967 -1.097-0.214 1.97-0.004 1.97-1.787 0.193 0.038 0.721-0.496-2.316 0 0 0-0.097-1.064-0.048-1.256 0.156-0.619 1.721-0.422 1.28-1.063 -0.001-0.001-1.133-2.271-1.133-2.271 -3.645-0.587-1.562-0.953-3.84-0.483 -0.108 0.535-4.881 2.811-4.729 3.866 0.142 0.994 2.996 1.328 0.295 3.092C124.157 96.989 117.118 89.06 120.059 90.974z" fill="#788165" stroke-width="none" opacity="1"></path><path id="SvgjsPath6852" d="M125,79.562l0.242,6.222l2.604-5.656l-2.158,5.84l4.571-4.228l-4.229,4.57l5.842-2.157l-5.655,2.604l6.222,0.242l-6.222,0.242l5.655,2.604l-5.842-2.157l4.229,4.57l-4.571-4.228l2.158,5.84l-2.604-5.656L125,94.437l-0.242-6.222l-2.605,5.656l2.157-5.84l-4.57,4.228l4.229-4.57l-5.842,2.157l5.654-2.604l-6.219-0.242l6.219-0.242l-5.654-2.604l5.842,2.157l-4.229-4.57l4.57,4.228l-2.157-5.84l2.605,5.656L125,79.562z" fill="#66724e" stroke="#55633a" stroke-width="0.5" opacity="1"></path><path id="SvgjsPath6853" d="M126.128,81.428l-0.764,4.697l2.808-3.841l-2.501,4.047l4.064-2.475l-3.859,2.782l4.702-0.73l-4.632,1.093l4.626,1.125l-4.699-0.762l3.843,2.808l-4.05-2.5l2.476,4.063l-2.783-3.86l0.73,4.702l-1.092-4.632l-1.126,4.625l0.764-4.697l-2.812,3.841l2.505-4.047l-4.065,2.475l3.86-2.782l-4.702,0.73l4.631-1.094l-4.624-1.124l4.696,0.761l-3.842-2.808l4.05,2.501l-2.476-4.063l2.782,3.86l-0.73-4.702l1.095,4.632L126.128,81.428z" fill="#66724e" stroke="#455328" stroke-width="0.5" opacity="1"></path><path id="SvgjsPath6854" d="M128.188 87c0 1.761-1.428 3.187-3.188 3.187s-3.188-1.426-3.188-3.187c0-1.76 1.428-3.188 3.188-3.188S128.188 85.239 128.188 87z" fill="#000000" stroke-width="none" opacity="0.9"></path><path id="SvgjsPath6855" d="M121.653 93.108c-0.47 0.469-1.396 0.304-2.069-0.369 -0.674-0.673-0.84-1.601-0.369-2.07 0.469-0.47 1.395-0.304 2.068 0.369C121.956 91.712 122.122 92.639 121.653 93.108z" fill="#ffffff" stroke-width="none" opacity="0.7"></path><path id="SvgjsPath6856" d="M131.809 85.326c-0.702 0.703-2.403 0.142-3.8-1.254 -1.396-1.396-1.957-3.098-1.256-3.8 0.703-0.703 2.405-0.142 3.8 1.254C131.949 82.922 132.512 84.624 131.809 85.326z" fill="#ffffff" stroke-width="none" opacity="0.9"></path></g></g></g><g id="svga-group-eyesfront-right"><path id="SvgjsPath6699" d="M126 62.999c-9.94 0-18 11.193-18 25.001 0 13.808 8.06 24.999 18 24.999S144 101.808 144 88C144 74.191 135.94 62.999 126 62.999zM134.953 93.953c-9.551 4.704-16.046 1.526-18.706 0.284 -2.526-2.122-4.068-5.078-3.851-8.345 0.012-0.17 0.053-0.351 0.1-0.534 2.182-2.889 4.215-4.572 6.65-5.942 7.201-0.74 11.471 0.952 20.307 4.199 0 2.128-0.549 4.031-0.988 4.983 0.068-0.109 0.161-0.211 0.236-0.317C137.878 90.456 136.606 92.407 134.953 93.953z" fill="#e19e95" stroke-width="none" opacity="1" stroke="none"></path><path id="SvgjsPath6700" d="M123.042 69.999c-9.723-0.044-17.616 6.635-17.641 14.92 -0.024 8.284 7.839 15.032 17.559 15.08 9.723 0.042 17.614-6.635 17.639-14.918C140.623 76.795 132.764 70.047 123.042 69.999zM134.953 93.953c-9.551 4.704-16.046 1.526-18.706 0.284 -2.526-2.122-4.068-5.078-3.851-8.345 0.012-0.17 0.053-0.351 0.1-0.534 2.182-2.889 4.215-4.572 6.65-5.942 7.201-0.74 11.471 0.952 20.307 4.199 0 2.128-0.549 4.031-0.988 4.983 0.068-0.109 0.161-0.211 0.236-0.317C137.878 90.456 136.606 92.407 134.953 93.953z" fill="url(#SvgjsRadialGradient6701)" opacity="1"></path><path id="SvgjsPath6705" d="M134.953 93.953c1.653-1.546 2.925-3.497 3.748-5.672 -0.075 0.106-0.168 0.208-0.236 0.317 0.439-0.952 0.988-2.855 0.988-4.983 -8.836-3.248-13.105-4.939-20.307-4.199 -2.436 1.371-4.469 3.053-6.65 5.942 -0.047 0.184-0.088 0.364-0.1 0.534 -0.218 3.267 1.324 6.223 3.851 8.345C118.907 95.479 125.402 98.657 134.953 93.953z" fill="url(#SvgjsRadialGradient6706)" opacity="1"></path><path id="SvgjsPath6709" d="M114.081 76.65c5.284-2.915 16.167-0.001 19.581 1.339C129.218 76.817 121.652 74.293 114.081 76.65z" fill="#b34e41" stroke-width="none" opacity="1" stroke="none"></path><path id="SvgjsPath6710" d="M135.611 93.522c-10.263 5.269-17.123 1.588-19.647 0.458C120.869 98.235 130.397 98.517 135.611 93.522zM111.628 78.54c0 0 4.584-1.111 6.146-1.152 10.482-0.274 13.008 1.701 15.313 1.701 1.652 0 6.586-0.549 6.586-0.549 -1.273 1.015-2.246 1.595-3.622 1.701 2.572 0.672 4.125 0.77 6.586 0.055 -0.434 0.665-0.86 1.186-1.646 1.701 1.605 0.528 5.052 0.751 7.684 0.439 -5.105 1.783-8.608 3.655-10.209 6.147 0.439-0.933 0.988-2.799 0.988-4.885 -8.836-3.183-13.105-4.842-20.307-4.116 -2.515 1.387-4.598 3.088-6.86 6.092 1.251-3.208 2.342-4.98 4.665-6.75L111.628 78.54z" fill="#302040" stroke-width="none" opacity="1" stroke="none"></path></g></g><g id="svga-group-facehighlight-single" ><path id="SvgjsPath6461" d="M140.204 113.007c0.035 22.275-17.995 40.365-40.273 40.396 -22.274 0.036-40.361-17.993-40.396-40.272C59.501 90.857 77.53 72.77 99.808 72.735 122.083 72.701 140.171 90.73 140.204 113.007z" fill="url(#SvgjsRadialGradient6462)" opacity="1"></path><path id="SvgjsPath6465" d="M135,55.999c0,19.329-15.671,35-35,35c-19.329,0-35-15.671-35-35s15.671-35,35-35C119.329,20.999,135,36.67,135,55.999z" fill="url(#SvgjsRadialGradient6466)" opacity="1"></path></g><g id="svga-group-eyebrows-left" ><path id="SvgjsPath6865" d="M74.799 69.068c-4.425-0.475-21.252 3.714-21.252 3.714s16.789-6.74 23.757-5.667c5.188 0.798 14.397 5.077 12.706 7.339C88.649 76.275 84.408 70.1 74.799 69.068z" fill="#b79675" stroke-width="none" opacity="1"></path></g><g id="svga-group-eyebrows-right" ><path id="SvgjsPath6866" d="M109.731 74.187c-1.713-2.292 7.592-6.31 13.546-6.804 7.117-0.59 22.914 4.085 22.914 4.085s-15.9-2.628-20.377-2.106C115.998 70.506 111.11 76.031 109.731 74.187z" fill="#b79675" stroke-width="none" opacity="1"></path></g><g id="svga-group-nose-single" ><path id="SvgjsPath6733" d="M100.809 118.607c-0.345 0.375-0.628 0.33-0.954-0.059l-3.63-4.392h8.911L100.809 118.607z" fill="#d28176" stroke-width="none" opacity="1" stroke="none"></path><path id="SvgjsPath6734" d="M95.208 114.839l4.719 3.839c0.394 0.32 0.545 0.199 0.34-0.27l-1.683-3.813c-0.082-0.185-0.107-0.495-0.057-0.691l1.001-6.771 -4.453 6.41C94.755 113.937 94.814 114.52 95.208 114.839z" fill="#b34e41" stroke-width="none" opacity="1" stroke="none"></path></g><g id="svga-group-hair-front" ><path id="SvgjsPath6782" d="M137.933 141.731c16.512-55.946-2.844-86.784-5.085-96.474 -0.461-1.994-2.839-7.675-2.839-7.675 -8.857-4.884-13.91-5.96-24.344-5.96 -7.02 0-10.784 0.161-17.606 2.384 -7.164 7.132-27.936 32.674-36.394 51.778 4.185 15.866 6.826 68.128 4.833 72.716 -15.408 0.498-9.962-129.099-9.962-129.099 5.36 0 103.2-4.161 108.719-4.161C155.255 25.241 161.143 139.85 137.933 141.731z" fill="#a46c47" stroke-width="none" opacity="0.1"></path><path id="SvgjsPath6783" d="M129.421 235.813c7.562-15.873 5.54-26.495 3.584-36.774 -1.463-7.688-2.978-15.637-0.401-25.709 -0.845-13.438 2.629-24.662 6.307-36.547 7.017-22.68 14.97-48.384-6.036-96.463l-0.026-0.062 -0.061-0.033c-8.857-4.884-19.055-7.465-29.488-7.465 -7.02 0-14.039 1.127-20.861 3.351 -7.164 7.132-24.063 29.375-32.521 48.479 0.245 3.976 0.862 8.197 1.927 13.381 4.34 21.321 4.5 38.71 4.654 55.53 0.23 25.185 0.45 48.987 15.491 81.027 -1.855-1.622-3.654-3.18-5.397-4.688 -18.63-16.117-30.938-26.765-34.354-51.049l-0.398 0.021c0 0-0.33 9.248-0.47 13.14C21.141 141.693 19.924 101.158 25.877 60.5 30.869 26.402 62.752-6.334 88.302-6.334c5.36 0 10.53 0.952 15.365 2.83l0.073 0.028 0.072-0.029c6.084-2.401 11.969-3.619 17.488-3.619 16.125 0 29.904 7.554 39.849 27.521 11.614 23.322 17.796 59.631 16.534 97.126 -1.229 36.535-9.174 68.096-21.295 84.732 0.656-3.462 0.867-5.002 1.26-8.908l-0.388-0.089c-7.468 20.085-17.243 30.866-26.698 41.292C130.182 234.974 129.8 235.394 129.421 235.813z" fill="#a46c47" stroke-width="none" opacity="1"></path><path id="SvgjsPath6784" d="M50.023 86.038c0.295 3.558 0.885 7.374 1.822 11.934 4.341 21.321 4.5 38.712 4.654 55.53 0.231 25.185 0.45 48.987 15.491 81.027 -1.855-1.623-3.654-3.18-5.397-4.688 -9.569-8.279-17.466-15.118-23.351-23.1 -9.281-17.978-12.373-31.131-12.373-60.673 4.5 24.167 5.667 36.329 23.74 60.667C36.699 171.857 29.855 120.033 50.023 86.038zM175.502 121.842C173.57 134.101 170.613 161.006 166 173c2.684-17.925 2.144-23.32 2-41 -4 23-9.352 50.397-20 68 3.834-15.765 7.255-28.928 7.255-48.595C150.202 170.072 141.482 173.074 140 187c3.888-36.515 20.87-75.267 3.842-113.642 5.986 28.08 0.275 46.59-4.933 63.424 -3.679 11.885-7.15 23.11-6.308 36.547 -2.574 10.071-1.061 18.021 0.402 25.709 1.956 10.28 3.979 20.901-3.584 36.773 0.379-0.419 0.76-0.839 1.143-1.261 9.455-10.426 19.23-21.207 26.698-41.292l0.388 0.089c-0.393 3.906-0.604 5.446-1.26 8.908C168.029 186.278 173.814 156.535 175.502 121.842zM37.27 72.427c-2.445 5.423-6.514 62.265-3.284 74.552 0.046 0.17-0.056-0.172-0.268-0.912C28.817 130.232 34.444 77.602 37.27 72.427zM28.995 149.658c0.151 1.726 0.322 2.77 0.297 2.562 -0.132-0.51-1.95-44.056-1.492-44.315 0.1-0.021 0.069 0.018 0.102 0.025C26.832 108.215 27.775 136.716 28.995 149.658zM161.813 133.315c-1.464 16.704-5.294 35.469-2.028 18.988 5.737-27.943 7.126-52.795 0.201-80.288C162.865 85.764 164.776 96.6 161.813 133.315z" fill="#955932" stroke-width="none" opacity="1"></path><path id="SvgjsPath6785" d="M127 29c16.888 6.402 32 75 26 115 10.155-44 7.566-81.265-11-119 16.968 27.907 24.125 38.909 26.371 82.435 3.32-19.596 2.846-43.368-0.37-69.895 -2.007-6.258-4.298-12.015-6.852-17.143C151.206 0.43 137.427-7.124 121.302-7.124c-5.521 0-11.403 1.218-17.489 3.619l-0.071 0.029 -0.073-0.028c-4.835-1.878-10.005-2.83-15.365-2.83 -12.584 0-27.104 8.274-39.002 20.577C32.418 39.738 27.122 71.139 28 101c1-24 13-48 28-66 -11 26-19 53-20 81 6-39 35.469-88.265 58-96 6.9-2.369 15.467-1.286 17.615 6.42 1.188 1.846 1.794 4.125 1.385 6.58 1.407-1.126 2.791-1.964 4.165-2.536C120.504 27.823 124.108 27.904 127 29z" fill="#ac7653" stroke-width="none" opacity="1"></path><path id="SvgjsPath6786" d="M113 33c1-6-5-11.6-10-11.6 -8.118 0-16.148 7.781-21.182 15.339 0.212-0.22 0.42-0.433 0.619-0.63 6.822-2.224 13.841-3.351 20.861-3.351 10.435 0 20.63 2.582 29.488 7.465l0.06 0.033 0.027 0.062c0.054 0.123 0.102 0.24 0.152 0.362 -0.271-3.492-4.157-7.681-6.063-9.05C121.964 28.63 117.881 28.408 113 33z" fill="#85481f" stroke-width="none" opacity="1"></path><path id="SvgjsPath6787" d="M123.605 15.551c14.693 2.885 21.418 18.935 25.36 33.284C149.686 51.544 142.26 19.955 123.605 15.551zM167.8 60.71c-2.621-21.61-11.549-43.651-30.488-54.378C163.85 22.934 168.197 63.544 167.8 60.71zM91.438 18.545c1.918-0.426-12.385 1.221-23.378 15.036 -7.164 8.71-13.558 21.986-16.138 27.16C59.841 44.582 73.947 22.662 91.438 18.545zM75.803 6.583C59.858 11.72 49.913 23.31 44.498 37.629 55.194 12.346 80.312 5.185 75.803 6.583zM111.399 5.315C107.242-3.4 99.008-7.734 86.591-6.171c12.168-0.83 20.242 4.56 23.477 11.712 -6.828-7.43-19.214 1.181-18.223 0.847 0.978-0.692 13.933-4.741 18.745 0.193 2.196 4.651 3.396 10.396 3.765 16.96 0.41 8.729 0.354-4.552-0.186-8.375 -0.458-3.457-1.292-6.551-2.495-9.251 4.005-5.099 11.348-5.508 17.675-2.897l0.041-0.091C123.153-0.222 114.057-0.279 111.399 5.315z" fill="#a46c47" stroke-width="none" opacity="1"></path><path id="SvgjsPath6788" d="M114.04 32.379c5.321-4.434 12.993-3.73 18.039 6.7l0.61 1.32c31.857 72.917-2.776 93.617-0.28 132.88 -6.107 23.896 10.536 35.066-3.79 63.72 9.811-10.893 20.781-22.021 28.83-43.67 -0.429 4.271-0.652 5.762-1.42 9.75 38.854-51.466 30.84-240.344-52.29-206.77 -26.87-12.574-69.464 14.093-78.06 64.16 -7.504 43.708-3.863 86.184 5.83 133.16 0.025-0.661 0.53-14.811 0.53-14.811 3.785 26.906 18.251 36.949 40.54 56.49 -25.454-53.516-9.508-83.19-20.54-137.379 -0.9-4.38-1.64-8.8-1.94-13.26 8.343-18.843 25.079-41.048 32.4-48.37l1.21-1.21c0.099-0.095 5.39-5.147 5.63-5.37 8.201-3.25 17.274-4.018 22.341 3.593 -3.037-7.992-13.058-8.04-20.73-5.043 8.445-7.445 18.682-10.292 22.191 4.081 0.103 0.419 0.082 1.196 0.082 1.196S113.665 32.692 114.04 32.379zM175.077 118.061c-0.38 12.364-2.541 54.771-17.658 82.27 1.066-4.51 1.76-8.328 2.021-12.801 4.745-14.82 5.854-26.1 6.028-27.1 -5.55 27.37-15.529 51.351-34.619 73.569 13.535-29.831-2.641-35.97 1.67-59.33 0.967 11.022 4.291 21.701 7.739 32.05 0.49-9.871 2.533-21.996 7.271-30.71 -1.799 2.479-7.063 14.054-7.93 26.21 -14.464-50.55 5.344-49.98 8.17-108.66 2.604 21.148-0.119 28.44-0.119 28.44 5.72-19.17 0.543-32.426-0.826-43.12 -1.693-13.216-10.355-34.177-11.654-36.99 -4.865-10.169-12.197-16.503-21.13-10.39 -8.374-24.158-29.294-0.563-35.459 6.21 -8.888 9.765-22.52 28.087-29.211 44.29 0 0.01-0.01 0.02-0.01 0.03 -4.833 11.717-6.102 20.844-7.32 28.84 2.306-11.387 4.596-18.222 7.43-24.77 0.18 3.31 0.57 6.61 1.08 9.87 8.997 57.645-6.818 82.899 20.06 136.78 -34.449-32.043-38.365-41.664-39.7-80.58 -0.238 24.988 0.937 10.513-0.14 30.7 -5.768-39.082-10.682-67.553-2.5-118.52 9.267-57.727 52.276-77.212 75.43-67.42 30.296-12.349 48.97 5.949 61.2 35.04 2.775 6.604 10.469 37.291 5.6 62.41 0 0 2.195-6.328 3.66-18.7C175.565 89.307 175.505 104.127 175.077 118.061z" fill="#763810" stroke-width="none" opacity="1"></path></g><g id="svga-group-glasses-single" ><path id="SvgjsPath6593" d="M100,18.13L100,18.13L100,18.13L100,18.13z" fill="#26120b" stroke-width="none" opacity="1"></path></g></g></g><rect id="SvgjsRect6446" width="200" height="15" x="0" y="185" fill="#ecf0f1" opacity="0.5" style="display:none;"></rect><text id="SvgjsText6447" font-family="&quot;Roboto&quot;, &quot;Helvetica Neue&quot;, Helvetica, Arial, sans-serif" style="font-size:0.84em;font-family:&quot;Roboto&quot;, &quot;Helvetica Neue&quot;, Helvetica, Arial, sans-serif;text-anchor:middle;font-weight:400;display:none;" font-size="0.84em" text-anchor="middle" font-weight="400" fill="#000000" x="100" y="185"><tspan id="SvgjsTspan6448" dy="1.2em" x="100" style="font-size:0.84em;font-family:&quot;Roboto&quot;, &quot;Helvetica Neue&quot;, Helvetica, Arial, sans-serif;text-anchor:middle;font-weight:400;">Created on AvatarMaker.com</tspan></text></g><defs id="SvgjsDefs6414"><radialGradient id="SvgjsRadialGradient6462" cx="100" cy="113" r="40" gradientUnits="userSpaceOnUse" class="svga-on-canvas-facehighlight-gradient-single-0"><stop id="SvgjsStop6463" stop-opacity="0.5" stop-color="#f0beb7" offset="0" ></stop><stop id="SvgjsStop6464" stop-opacity="0" stop-color="#e19e95" offset="0.9" ></stop></radialGradient><radialGradient id="SvgjsRadialGradient6466" cx="100" cy="57" r="36" gradientUnits="userSpaceOnUse" class="svga-on-canvas-facehighlight-gradient-single-1"><stop id="SvgjsStop6467" stop-opacity="0.5" stop-color="#f0beb7" offset="0" ></stop><stop id="SvgjsStop6468" stop-opacity="0" stop-color="#e19e95" offset="0.9" ></stop></radialGradient><radialGradient id="SvgjsRadialGradient6547" cx="-558.588" cy="-490.918" r="84.646" gradientTransform="matrix(0.096 -0.0248 0.0245 0.0961 140.5478 120.3577)" gradientUnits="userSpaceOnUse" class="svga-on-canvas-eyesiris-gradient-left-1"><stop id="SvgjsStop6548" stop-opacity="0.8" stop-color="#ffffff" offset="0" ></stop><stop id="SvgjsStop6549" stop-opacity="0" stop-color="#ffffff" offset="1" ></stop></radialGradient><radialGradient id="SvgjsRadialGradient6551" cx="-565.337" cy="-492.691" r="84.644" gradientTransform="matrix(0.0991 8.856325e-004 -0.0011 0.0991 130.3774 136.3533)" gradientUnits="userSpaceOnUse" class="svga-on-canvas-eyesiris-gradient-left-2"><stop id="SvgjsStop6552" stop-opacity="0.8" stop-color="#ffffff" offset="0" ></stop><stop id="SvgjsStop6553" stop-opacity="0" stop-color="#ffffff" offset="1" ></stop></radialGradient><linearGradient id="SvgjsLinearGradient6557" x1="122.283" y1="93.047" x2="123.61" y2="91.466" gradientTransform="matrix(1 0 0 1 -52 0)" gradientUnits="userSpaceOnUse" class="svga-on-canvas-eyesiris-gradient-left-5"><stop id="SvgjsStop6558" stop-opacity="1" stop-color="#ffffff" offset="0" ></stop><stop id="SvgjsStop6559" stop-opacity="0" stop-color="#ffffff" offset="1" ></stop></linearGradient><linearGradient id="SvgjsLinearGradient6561" x1="127" y1="85" x2="125" y2="87" gradientTransform="matrix(1 0 0 1 -50 0)" gradientUnits="userSpaceOnUse" class="svga-on-canvas-eyesiris-gradient-left-6"><stop id="SvgjsStop6562" stop-opacity="1" stop-color="#ffffff" offset="0" ></stop><stop id="SvgjsStop6563" stop-opacity="0" stop-color="#ffffff" offset="1" ></stop></linearGradient><linearGradient id="SvgjsLinearGradient6565" x1="130" y1="81" x2="126" y2="85" gradientTransform="matrix(1 0 0 1 -50 0)" gradientUnits="userSpaceOnUse" class="svga-on-canvas-eyesiris-gradient-left-7"><stop id="SvgjsStop6566" stop-opacity="1" stop-color="#ffffff" offset="0" ></stop><stop id="SvgjsStop6567" stop-opacity="0" stop-color="#ffffff" offset="1" ></stop></linearGradient><radialGradient id="SvgjsRadialGradient6570" cx="-578.76" cy="-490.73" r="84.646" gradientTransform="matrix(0.096 -0.0248 0.0245 0.0961 192.4794 119.8404)" gradientUnits="userSpaceOnUse" class="svga-on-canvas-eyesiris-gradient-right-1"><stop id="SvgjsStop6571" stop-opacity="0.8" stop-color="#ffffff" offset="0" ></stop><stop id="SvgjsStop6572" stop-opacity="0" stop-color="#ffffff" offset="1" ></stop></radialGradient><radialGradient id="SvgjsRadialGradient6574" cx="-584.778" cy="-487.329" r="84.644" gradientTransform="matrix(0.0991 8.856325e-004 -0.0011 0.0991 182.3104 135.839)" gradientUnits="userSpaceOnUse" class="svga-on-canvas-eyesiris-gradient-right-2"><stop id="SvgjsStop6575" stop-opacity="0.8" stop-color="#ffffff" offset="0" ></stop><stop id="SvgjsStop6576" stop-opacity="0" stop-color="#ffffff" offset="1" ></stop></radialGradient><linearGradient id="SvgjsLinearGradient6580" x1="120.284" y1="93.047" x2="121.611" y2="91.467" gradientUnits="userSpaceOnUse" class="svga-on-canvas-eyesiris-gradient-right-5"><stop id="SvgjsStop6581" stop-opacity="1" stop-color="#ffffff" offset="0" ></stop><stop id="SvgjsStop6582" stop-opacity="0" stop-color="#ffffff" offset="1" ></stop></linearGradient><linearGradient id="SvgjsLinearGradient6584" x1="127" y1="85" x2="125" y2="87" gradientUnits="userSpaceOnUse" class="svga-on-canvas-eyesiris-gradient-right-6"><stop id="SvgjsStop6585" stop-opacity="1" stop-color="#ffffff" offset="0" ></stop><stop id="SvgjsStop6586" stop-opacity="0" stop-color="#ffffff" offset="1" ></stop></linearGradient><linearGradient id="SvgjsLinearGradient6588" x1="130" y1="81" x2="126" y2="85" gradientUnits="userSpaceOnUse" class="svga-on-canvas-eyesiris-gradient-right-7"><stop id="SvgjsStop6589" stop-opacity="1" stop-color="#ffffff" offset="0" ></stop><stop id="SvgjsStop6590" stop-opacity="0" stop-color="#ffffff" offset="1" ></stop></linearGradient><radialGradient id="SvgjsRadialGradient6654" cx="126.391" cy="85.989" r="13.763" gradientTransform="matrix(-1.0172 0 0 1.0172 202.565 -1.469)" gradientUnits="userSpaceOnUse" class="svga-on-canvas-eyesback-gradient-left-0"><stop id="SvgjsStop6655" stop-opacity="1" stop-color="#ffffff" offset="0" ></stop><stop id="SvgjsStop6656" stop-opacity="1" stop-color="#fdfefe" offset="0.544" ></stop><stop id="SvgjsStop6657" stop-opacity="1" stop-color="#f6f8f9" offset="0.74" ></stop><stop id="SvgjsStop6658" stop-opacity="1" stop-color="#eaeff2" offset="0.879" ></stop><stop id="SvgjsStop6659" stop-opacity="1" stop-color="#d9e3e8" offset="0.992" ></stop><stop id="SvgjsStop6660" stop-opacity="1" stop-color="#d8e2e7" offset="1" ></stop></radialGradient><radialGradient id="SvgjsRadialGradient6662" cx="126.391" cy="85.989" r="13.763" gradientTransform="matrix(1.0172 0 0 1.0172 -2.565 -1.469)" gradientUnits="userSpaceOnUse" class="svga-on-canvas-eyesback-gradient-right-0"><stop id="SvgjsStop6663" stop-opacity="1" stop-color="#ffffff" offset="0" ></stop><stop id="SvgjsStop6664" stop-opacity="1" stop-color="#fdfefe" offset="0.544" ></stop><stop id="SvgjsStop6665" stop-opacity="1" stop-color="#f6f8f9" offset="0.74" ></stop><stop id="SvgjsStop6666" stop-opacity="1" stop-color="#eaeff2" offset="0.879" ></stop><stop id="SvgjsStop6667" stop-opacity="1" stop-color="#d9e3e8" offset="0.992" ></stop><stop id="SvgjsStop6668" stop-opacity="1" stop-color="#d8e2e7" offset="1" ></stop></radialGradient><radialGradient id="SvgjsRadialGradient6670" cx="126.391" cy="85.989" r="13.763" gradientTransform="matrix(-1.0172 0 0 1.0172 202.565 -1.469)" gradientUnits="userSpaceOnUse" class="svga-on-canvas-eyesfront-gradient-left-0"><stop id="SvgjsStop6671" stop-opacity="1" stop-color="#ffffff" offset="0" ></stop><stop id="SvgjsStop6672" stop-opacity="1" stop-color="#fdfefe" offset="0.544" ></stop><stop id="SvgjsStop6673" stop-opacity="1" stop-color="#f6f8f9" offset="0.74" ></stop><stop id="SvgjsStop6674" stop-opacity="1" stop-color="#eaeff2" offset="0.879" ></stop><stop id="SvgjsStop6675" stop-opacity="1" stop-color="#d9e3e8" offset="0.992" ></stop><stop id="SvgjsStop6676" stop-opacity="1" stop-color="#d8e2e7" offset="1" ></stop></radialGradient><radialGradient id="SvgjsRadialGradient6680" cx="123.411" cy="85.41" fx="136.047" fy="85.446" r="17.971" gradientTransform="matrix(0.9998 0.0208 0.0166 -0.7998 -48.2173 151.1555)" gradientUnits="userSpaceOnUse" class="svga-on-canvas-eyesfront-gradient-left-3"><stop id="SvgjsStop6681" stop-opacity="1" stop-color="#d28176" offset="0" ></stop><stop id="SvgjsStop6682" stop-opacity="0.3" stop-color="#d28176" offset="0.7" ></stop><stop id="SvgjsStop6683" stop-opacity="0" stop-color="#e19e95" offset="1" ></stop></radialGradient><radialGradient id="SvgjsRadialGradient6685" cx="78.542" cy="109.585" r="29.473" gradientTransform="matrix(0.9362 -0.0488 0.049 0.9315 -2.5399 10.6886)" gradientUnits="userSpaceOnUse" class="svga-on-canvas-eyesfront-gradient-left-4"><stop id="SvgjsStop6686" stop-opacity="0" stop-color="#000000" offset="0.95" ></stop><stop id="SvgjsStop6687" stop-opacity="0.3" stop-color="#000000" offset="1" ></stop></radialGradient><radialGradient id="SvgjsRadialGradient6691" cx="126.391" cy="85.989" r="13.763" gradientTransform="matrix(1.0172 0 0 1.0172 -2.565 -1.469)" gradientUnits="userSpaceOnUse" class="svga-on-canvas-eyesfront-gradient-right-0"><stop id="SvgjsStop6692" stop-opacity="1" stop-color="#ffffff" offset="0" ></stop><stop id="SvgjsStop6693" stop-opacity="1" stop-color="#fdfefe" offset="0.544" ></stop><stop id="SvgjsStop6694" stop-opacity="1" stop-color="#f6f8f9" offset="0.74" ></stop><stop id="SvgjsStop6695" stop-opacity="1" stop-color="#eaeff2" offset="0.879" ></stop><stop id="SvgjsStop6696" stop-opacity="1" stop-color="#d9e3e8" offset="0.992" ></stop><stop id="SvgjsStop6697" stop-opacity="1" stop-color="#d8e2e7" offset="1" ></stop></radialGradient><radialGradient id="SvgjsRadialGradient6701" cx="123.411" cy="85.41" fx="136.047" fy="85.446" r="17.971" gradientTransform="matrix(-0.9998 0.0208 -0.0166 -0.7998 248.2173 151.1555)" gradientUnits="userSpaceOnUse" class="svga-on-canvas-eyesfront-gradient-right-3"><stop id="SvgjsStop6702" stop-opacity="1" stop-color="#d28176" offset="0" ></stop><stop id="SvgjsStop6703" stop-opacity="0.3" stop-color="#d28176" offset="0.7" ></stop><stop id="SvgjsStop6704" stop-opacity="0" stop-color="#e19e95" offset="1" ></stop></radialGradient><radialGradient id="SvgjsRadialGradient6706" cx="78.542" cy="109.585" r="29.473" gradientTransform="matrix(-0.9362 -0.0488 -0.049 0.9315 202.5399 10.6886)" gradientUnits="userSpaceOnUse" class="svga-on-canvas-eyesfront-gradient-right-4"><stop id="SvgjsStop6707" stop-opacity="0" stop-color="#000000" offset="0.95" ></stop><stop id="SvgjsStop6708" stop-opacity="0.3" stop-color="#000000" offset="1" ></stop></radialGradient><linearGradient id="SvgjsLinearGradient6829" x1="99.98" y1="171.27" x2="99.98" y2="136.351" gradientUnits="userSpaceOnUse" class="svga-on-canvas-chinshadow-gradient-single-0"><stop id="SvgjsStop6830" stop-opacity="0.8" stop-color="#d28176" offset="0" ></stop><stop id="SvgjsStop6831" stop-opacity="1" stop-color="#b34e41" offset="0.7" ></stop></linearGradient><linearGradient id="SvgjsLinearGradient6839" x1="100" y1="142" x2="100" y2="139" gradientUnits="userSpaceOnUse" class="svga-on-canvas-mouth-gradient-single-0"><stop id="SvgjsStop6840" stop-opacity="1" stop-color="#d98f85" offset="0.1" ></stop><stop id="SvgjsStop6841" stop-opacity="1" stop-color="#d28176" offset="1" ></stop></linearGradient></defs></svg>