<svg xmlns="http://www.w3.org/2000/svg" version="1.1" width="600px" height="600px" xlink="http://www.w3.org/1999/xlink" style="overflow:hidden!important;"><g id="svga-group-wrapper" transform="scale(3 3)"><g id="svga-group-backs-single"><path id="SvgjsPath7405" d="M225 225H-25V-25h250V225z" fill="#ffffff" stroke-width="none" opacity="1" stroke="none"></path></g><g id="svga-group-subwrapper" transform="matrix(0.84999948 0 0 0.84999948 15.02675187397709 17.40965844153783)"><g id="svga-group-hair-back" ><path id="SvgjsPath7302" d="M100.5,100.5h-1v-1h1V100.5z" fill="#decfbc" stroke-width="none" opacity="1" stroke="none"></path></g><g id="svga-group-humanbody-single"><path id="SvgjsPath6931" d="M195.417 199.778c-2.196-4.746-8.195-11.779-14.86-13.722 -8.239-2.403-26.837-5.308-33.733-6.923 -5.528-1.296-16.662-11.294-20.564-14.65 -0.7-0.6-1.273-1.839-1.287-2.76 -0.139-10.864 4.195-39.724 4.195-39.724H100 70.833c0 0 4.334 28.859 4.193 39.724 -0.011 0.921-0.587 2.16-1.285 2.76 -3.902 3.356-15.036 13.354-20.564 14.65 -6.897 1.615-25.495 4.619-33.733 7.022 -6.667 1.942-12.664 8.876-14.86 13.622 -3.708 8.008-4.584 22.5-4.584 35h100 100C200 222.278 199.123 207.786 195.417 199.778z" fill="#93614a" stroke-width="none" opacity="1" stroke="none"></path><path id="SvgjsPath6932" d="M159.156 184.058c24.342 3.542 34.586 8.708 37.794 50.721H200c0-12.5-0.877-26.992-4.583-35 -2.196-4.746-8.195-11.779-14.86-13.722 -8.239-2.403-26.837-5.308-33.733-6.923 -5.528-1.296-18.242-12.069-21.643-16.35 3.36 4.704 12.791 15.605 21.054 18.46C150.188 182.61 153.48 183.232 159.156 184.058zM53.766 181.244c8.263-2.854 17.693-13.756 21.054-18.46 -3.4 4.28-16.114 15.054-21.643 16.35 -6.896 1.615-25.494 4.619-33.733 7.022 -6.665 1.942-12.664 8.876-14.86 13.622 -3.706 8.008-4.583 22.5-4.583 35h3.05c3.188-41.744 13.475-47.183 37.794-50.721C46.52 183.232 49.813 182.61 53.766 181.244z" fill="#a27662" stroke-width="none" opacity="1" stroke="none"></path><path id="SvgjsPath6933" d="M95.646 197.62c0 0-5.074-1.609-7.083-2.379 -10.449-4.009-44.395-6.607-44.395-6.607s35.754 1.419 43.644 2.779c-0.458-4.767-3.017-20.004-3.017-20.004s5.149 16.815 6.409 21.057C91.878 194.734 95.646 197.62 95.646 197.62zM106.445 196.278c-0.089 0.073-0.191 0.168-0.302 0.268C106.256 196.461 106.358 196.372 106.445 196.278zM95.646 197.62c0 0 2.893 2.992 4.347 3.03 1.91 0.051 4.828-2.899 6.151-4.104 -1.265 0.957-4.159 1.391-5.31 1.436C99.504 198.033 95.646 197.62 95.646 197.62zM116.664 190.101c-1.545 0.248-4.386 0.789-4.386 0.789l2.287-14.89c-0.646 3.071-4.474 16.211-8.12 20.278 1.91-1.616 6.158-2.391 8.324-2.704 10.236-1.484 10.232-1.483 41.062-4.94C155.831 188.634 126.76 188.479 116.664 190.101z" fill="#844e35" stroke-width="none" opacity="1" stroke="none"></path><path id="SvgjsPath6934" d="M195.417 199.778c-2.196-4.746-8.195-11.779-14.86-13.722 -8.239-2.403-26.837-5.308-33.733-6.923 -5.528-1.296-16.662-11.294-20.564-14.65 -0.7-0.6-1.273-1.839-1.287-2.76 -0.139-10.864 4.195-39.724 4.195-39.724H100 70.833c0 0 4.334 28.859 4.193 39.724 -0.011 0.921-0.587 2.16-1.285 2.76 -3.902 3.356-15.036 13.354-20.564 14.65 -6.897 1.615-25.495 4.619-33.733 7.022 -6.667 1.942-12.664 8.876-14.86 13.622 -3.708 8.008-4.584 22.5-4.584 35h100 100C200 222.278 199.123 207.786 195.417 199.778z" fill="none" stroke="#652e15" stroke-width="1.5" opacity="1"></path></g><g id="svga-group-chinshadow-single"><path id="SvgjsPath7336" d="M103.705 170.189c5.292-1.558 13.31-7.012 20.631-12.852 0.352-6.636 1.433-15.887 2.396-23.284 -14.957-2.455-38.464-2.408-53.454 0.081 0.95 7.3 2.01 16.38 2.372 22.974 7.055 5.816 14.789 11.372 20.685 13.087C97.144 170.431 102.896 170.428 103.705 170.189z" fill="url(#SvgjsLinearGradient7337)" opacity="1"></path></g><g id="svga-group-clothes-single" ><path id="SvgjsPath7530" d="M197.798 201.546c-10.478-20.278-30.653-17.404-49.968-22.843 -0.468 3.585-13.251 20.479-16.287 30.061 -1.705-1.423-3.74-3.325-5.209-5.066 -7.188-8.443-17.841-35.76-21.416-14.428 0.777-9.576 5.003-11.686 10.871-3.659 6.308 8.638 6.542 13.098 15.542 22.491 1.59-6.601 5.032-11.259 9.036-17.104 3.875-5.663 6.705-8.217 7.119-13.258 -1.445-2.408-1.099-3.486-3.434-5.046 -14.655-9.912-4.192-19.97-17.476-22.365 -0.104 1.198-0.235 2.54-0.345 3.549 2.841 1.462 3.691 7.152-0.683 11.318 -6.951 7.631-18.12 8.01-21.032 19.723l-0.007-0.001c-0.927 3.477-1.669 8.799-2.021 11.919l-2.455 24.898 -2.47-24.457c-2.003-18.359-4.621-20.155-13.183-25.828 -5.673-3.76-14.943-9.433-11.917-15.847 0.345-0.742 0.765-1.198 1.286-1.541 -0.15-1.466-0.238-2.316-0.354-3.678 -10.967 0.467-9.281 15.982-17.586 21.69 -2.177 1.496-3.287 2.879-4.068 5.129 0.531 6.281 14.504 20.476 16.945 30.899 9.085-9.592 9.155-13.783 15.5-22.459 5.465-7.465 9.928-6.699 10.867 3.403 -0.516-3.035-1.738-7.681-4.386-7.681 -2.182 0-4.456 3.218-5.581 4.771 -6.299 8.678-7.311 14.885-16.647 22.633 -0.646-1.941-1.404-3.891-2.308-5.706 -3.7-7.474-13.719-22.555-14.858-24.017 -4.428 1.246-11.177 2.626-15.233 3.3 -26.504 4.411-36.778 12.969-40.685 53.031 97.202-0.984 136.811-0.556 209.21-0.556C203.66 225.907 201.881 209.46 197.798 201.546z" fill="#ff4444" stroke-width="none" opacity="1" stroke="none"></path><path id="SvgjsPath7531" d="M139.969 190.783c-3.461 5.054-6.201 9.3-7.908 14.621 1.967-10.979 14.436-21.374 13.086-27.939 -0.578-2.812-10.526-9.081-11.041-18.4 2.745 8.538 12.992 14.632 13.009 18.723C147.142 184.482 146.942 180.595 139.969 190.783zM204.486 234.028c0.347-8.682-2.572-25.584-6.19-32.598 -10.478-20.278-31.563-17.691-50.877-23.13 -0.171 0.218 0.49 1.66 0.027 2.28C192.595 188.9 197.736 198.817 204.486 234.028zM55.812 172.075c5.547-4.597 7.21-9.05 8.483-13.011 -2.85 16.28-7.111 10.123-10.22 18.276 -1.778 4.663 12.003 17.403 13.866 28.063 -2.442-4.175-5.06-9.313-8.521-14.367 -2.694-3.937-4.41-7.537-7.079-10.567C51.069 173.756 53.696 173.829 55.812 172.075zM52.34 180.47c-0.463-0.62-0.894-1.204-1.065-1.422 -19.314 5.438-38.594 2.104-49.071 22.383 -3.619 7.014-5.426 21.363-6.423 30.064 1.929-10.573 4.804-23.893 10.963-31.929C17.188 185.399 36.46 182.665 52.34 180.47z" fill="#ff5e5e" stroke-width="none" opacity="1" stroke="none"></path><path id="SvgjsPath7532" d="M119.848 171.392c-4.863 2.82-8.981 5.588-11.713 9.481 6.567 0.362 11.421 12.099 12.734 13.695 -12.333-17.166-17-5.5-18.5 5.432 0.432-3.546 0.787-9.596 1.487-12.193 0.204-1.033 0.423-2.021 0.654-2.889l0.007 0.001c2.912-11.713 14.081-12.092 21.032-19.723 4.374-4.166 3.523-9.856 0.683-11.318 0.109-1.009 0.241-2.351 0.345-3.549 0.729 0.133 1.379 0.292 1.982 0.469C137.518 158.679 125.96 168.657 119.848 171.392zM78.965 171.392c4.864 2.82 10.812 6.162 13.536 9.717 -4.798-0.873-10.131 6.294-12.798 12.627 11.5-14.667 15-6.333 18.667 6.265 -0.431-3.545-1.524-9.596-2.224-12.193 -0.204-1.033-0.422-2.021-0.654-2.889l-0.006 0.001c-2.912-11.713-13.682-12.092-20.633-19.723 -4.374-4.166-3.622-9.856-0.781-11.318 -0.109-1.009-0.24-2.351-0.344-3.549 -0.729 0.133-1.379 0.292-1.982 0.469C64.238 159.967 73.472 168.06 78.965 171.392z" fill="#f02828" stroke-width="none" opacity="1" stroke="none"></path><path id="SvgjsPath7533" d="M125.876 163.323c0.031-5.701-0.159-2.538 0.418-8.99C128.518 155.526 128.801 160.423 125.876 163.323zM74.139 162.784c-2.323-3.04-2.61-6.145-0.347-8.49C74.334 159.352 74.059 158.742 74.139 162.784z" fill="#e00f0f" stroke-width="none" opacity="1" stroke="none"></path><path id="SvgjsPath7534" d="M147.624 176.915c-0.206-3.542-7.813-6.496-11.188-14.175 -2.417-5.47-0.123-11.734-10.065-12.741 -0.545 3.187-1.028 10.193-0.883 13.579 -5.038 5.423-12.831 6.826-17.785 12.657 -5.288 6.224-7.58 19.7-7.667 47.667l1.232-0.801c0 0 1.372-26.485 1.382-26.563 3.084-26.427 12.888-20.185 22.979-31.263 4.521-4.332 3.441-10.072 0.722-11.463 0.118-1.12 0.228-2.229 0.325-3.35 8.552 1.571 6.109 6.605 8.784 12.753 3.556 8.174 10.297 9.959 10.732 13.923 0.69 6.281-3.058 8.947-6.817 14.434 -5.913 8.559-7.28 12.925-8.101 16.308 -8.975-9.426-8.98-13.558-15.398-22.338 -6.844-9.366-11.339-4.974-13.226 10.996 0.194-2.625 3.77-17.175 8.043-14.651 4.939 2.878 9.791 15.108 15.561 21.886 1.539 1.823 3.521 3.652 5.345 5.182 3.407-11.897 16-24.465 16.408-30.205 19.695 5.556 53.439-0.145 56.441 55.963 -41.138 0.22-85.815-0.682-208.97 0.554 1.785-18.437 4.804-36.508 15.723-44.653 4.685-3.507 10.117-5.341 15.712-6.508 7.797-1.616 16.522-2.655 24.253-4.747 0.788 1 14.205 21.198 17.224 29.597 10.863-8.503 15.207-24.459 21.188-27.214 4.164-1.913 7.559 11.938 7.753 14.553 -1.63-16.891-6.95-22.418-17.024-4.923 -4.964 8.624-6.28 10.962-11.56 16.51 -2.12-8.994-16.895-25.954-16.253-30.662 0.634-4.646 6.314-3.363 10.098-13.244 2.122-5.54 1.652-11.648 10.708-13.455 0.098 1.167 0.217 2.32 0.336 3.486 -2.479 1.631-3.109 7.111 0.852 10.942 3.567 4.085 10.004 6.416 14.255 9.676 5.011 3.867 6.993 7.827 8.588 21.67 0.035 0.302 1.37 26.942 1.37 26.942l1.333 0.667c-0.667-27.833-3.335-44.568-8.721-49.258 -4.652-4.15-12.775-6.796-16.717-11.429 0.12-3.476-0.565-10.518-0.993-13.171 -9.009 0.918-9.264 6.638-11.196 11.632 -5.165 13.351-10.134 9.527-10.957 15.059 -0.077 0.517 0.042 0.906 0.167 1.594 -7.58 1.548-17.04 2.563-24.641 3.953 -11.343 2.071-22.045 8.058-26.925 19.452 -3.707 8.647-4.781 24.051-5.053 33.543 -0.011 0.068-0.011 0.147-0.011 0.215 0.152 0.012 0.314 0.012 0.466 0.012 130.475 1.387 208.449-0.578 209.534-0.578C205.369 181.568 176.202 183.902 147.624 176.915zM125.976 163.024c0.016-2.933 0.105-6.329 0.318-8.691C127.892 155.473 129.133 159.262 125.976 163.024zM74.088 162.593c-2.652-3.471-1.6-6.836-0.396-8C73.943 156.939 74.042 160.224 74.088 162.593z" fill="#d10000" stroke-width="none" opacity="1" stroke="none"></path></g><g id="svga-group-head" ><g id="svga-group-ears-left" ><path id="SvgjsPath7196" d="M46.778 83.613c-2.623-1.48-8.575-8.52-11.138-7.517 -1.655 0.646-2.377 5.504-2.638 7.47 -0.333 2.525-0.929 7.711-0.328 10.185 0.725 2.985 3.631 8.507 5.37 11.027 1.468 2.122 5.211 5.797 6.407 8.088 0.759 1.454 1.493 5.373 4.083 5.12 1.674-0.164 5.537-3.072 5.744-4.452C55.406 106.057 51.943 86.528 46.778 83.613z" fill="#93614a" stroke="#652e15" stroke-width="1.5" opacity="1"></path><path id="SvgjsPath7197" d="M43.313 99.76c-0.125-0.556 0.006-1.491 0.133-2.395 0.115-0.824 0.224-1.601 0.158-2.151 -0.251-2.06-1.66-5.975-2.578-8.097 -1.059-2.44-2.771-5.515-4.919-6.307 -0.888-0.33-1.473 0.063-1.813 0.461 -0.248 0.292-0.305 0.636-0.223 0.676 0.082 0.041 0.266-0.244 0.535-0.512 0.219-0.219 0.542-0.407 0.983-0.368 -0.178 1.026-1.091 6.582-0.696 10.369 0.311 2.978 1.489 5.202 1.673 5.536 0.028 0.352 0.073 0.695 0.139 1.028 0.869 4.347 4.648 9.29 5.963 10.908 0.243 0.298 0.496 0.476 0.56 0.404 0.062-0.074-0.087-0.368-0.33-0.668 -1.298-1.609-5.042-6.533-5.879-10.728 -0.89-4.45 2.167-11.048 2.849-12.443 0.348 0.655 0.643 1.285 0.87 1.809 0.179 0.412 0.378 0.894 0.581 1.414 -0.402 0.729-3.211 6.042-2.187 10.295 0.38 1.568 2.088 3.589 3.223 4.143 0.624 0.306 0.859 0.761 1.13 1.288 0.314 0.613 0.673 1.307 1.708 1.81 0.211 0.101 0.402 0.144 0.571 0.144 0.293 0 0.515-0.126 0.679-0.281 0.017 0.268 0.016 0.611 0.007 0.928 -0.01 0.411 0.041 0.747 0.129 0.756 0.088 0.008 0.182-0.318 0.192-0.726 0.016-0.503 0.013-1.125-0.067-1.422 -0.232-0.877-0.942-1.867-1.694-2.915C44.27 101.685 43.504 100.618 43.313 99.76zM36.538 95.905c-2.035-6.825 0-13.093 0.458-14.029 0.795 0.785 2.108 2.213 2.679 3.239C39.258 85.938 36.623 91.315 36.538 95.905zM45.318 105.891c-0.938-0.456-1.253-1.067-1.557-1.657 -0.275-0.535-0.56-1.087-1.281-1.44 -0.157-0.077-0.33-0.193-0.505-0.328 -2.324-5.988 0.254-8.606 0.899-9.142 0.199 0.731 0.346 1.403 0.411 1.941 0.061 0.495-0.05 1.28-0.156 2.041 -0.132 0.942-0.268 1.916-0.127 2.546 0.211 0.94 0.999 2.038 1.76 3.1 0.677 0.943 1.373 1.915 1.609 2.708C46.271 105.818 45.949 106.195 45.318 105.891z" fill="#652e15" stroke-width="none" opacity="1" stroke="none"></path></g><g id="svga-group-ears-right" ><path id="SvgjsPath7198" d="M152.961 83.613c2.623-1.48 8.574-8.52 11.137-7.517 1.656 0.646 2.379 5.504 2.639 7.47 0.334 2.525 0.928 7.711 0.328 10.185 -0.725 2.985-3.631 8.507-5.371 11.027 -1.467 2.122-5.211 5.797-6.406 8.088 -0.76 1.454-1.492 5.373-4.084 5.12 -1.674-0.164-5.535-3.072-5.744-4.452C144.332 106.057 147.795 86.528 152.961 83.613z" fill="#93614a" stroke="#652e15" stroke-width="1.5" opacity="1"></path><path id="SvgjsPath7199" d="M154.729 102.716c-0.752 1.047-1.463 2.038-1.695 2.915 -0.078 0.297-0.082 0.919-0.066 1.422 0.012 0.407 0.105 0.733 0.193 0.726 0.088-0.009 0.139-0.345 0.129-0.756 -0.01-0.316-0.01-0.66 0.006-0.928 0.164 0.155 0.387 0.281 0.68 0.281 0.168 0 0.359-0.043 0.57-0.144 1.035-0.503 1.395-1.196 1.709-1.81 0.271-0.527 0.506-0.982 1.131-1.288 1.133-0.554 2.842-2.575 3.223-4.143 1.023-4.253-1.785-9.566-2.188-10.295 0.203-0.52 0.402-1.002 0.582-1.414 0.225-0.524 0.521-1.154 0.869-1.809 0.682 1.395 3.738 7.993 2.848 12.443 -0.838 4.195-4.582 9.118-5.879 10.728 -0.242 0.3-0.393 0.594-0.33 0.668 0.064 0.071 0.318-0.106 0.561-0.404 1.314-1.618 5.094-6.561 5.963-10.908 0.066-0.333 0.111-0.677 0.139-1.028 0.184-0.334 1.363-2.558 1.674-5.536 0.395-3.788-0.518-9.343-0.695-10.369 0.441-0.039 0.764 0.149 0.982 0.368 0.268 0.268 0.453 0.552 0.535 0.512 0.08-0.041 0.023-0.384-0.223-0.676 -0.342-0.397-0.926-0.791-1.813-0.461 -2.148 0.792-3.861 3.867-4.92 6.307 -0.92 2.123-2.326 6.037-2.578 8.097 -0.066 0.55 0.043 1.328 0.158 2.151 0.127 0.904 0.256 1.839 0.133 2.395C156.234 100.618 155.469 101.685 154.729 102.716zM160.064 85.115c0.57-1.026 1.883-2.455 2.678-3.239 0.457 0.936 2.494 7.204 0.459 14.029C163.115 91.315 160.48 85.938 160.064 85.115zM153.367 105.66c0.236-0.793 0.932-1.765 1.609-2.708 0.762-1.063 1.549-2.16 1.76-3.1 0.141-0.631 0.006-1.604-0.127-2.546 -0.105-0.76-0.217-1.546-0.156-2.041 0.066-0.539 0.213-1.21 0.412-1.941 0.645 0.536 3.223 3.154 0.898 9.142 -0.176 0.134-0.348 0.25-0.504 0.328 -0.723 0.353-1.008 0.905-1.281 1.44 -0.305 0.59-0.619 1.201-1.559 1.657C153.789 106.195 153.467 105.818 153.367 105.66z" fill="#652e15" stroke-width="none" opacity="1" stroke="none"></path></g><g id="svga-group-faceshape-wrap" ><g id="svga-group-faceshape-single" ><path id="SvgjsPath7333" d="M138.275 134.933c-7.56 7.762-25.273 22.52-34.57 25.257 -0.809 0.238-6.561 0.241-7.37 0.006 -10.402-3.025-26.524-18.002-34.545-25.284 -0.698-0.634-1.876-2.14-2.323-2.97 -6.875-12.77-18.452-54.948-18.462-54.995 -1.3-4.911-1.996-10.066-2.004-15.382C38.949 28.09 66.155 0.919 99.773 0.867c33.621-0.052 60.913 27.033 60.964 60.507 0.009 5.316-0.669 10.473-1.952 15.389 -0.015 0.047-11.729 42.121-18.293 55.052C140.06 132.667 138.942 134.247 138.275 134.933z" fill="#93614a" stroke-width="none" opacity="1"></path><path id="SvgjsPath7334" d="M122.923 5.375c19.396 9.496 32.911 30.588 32.944 55.131 0.009 5.316-0.615 10.473-1.796 15.389 -0.013 0.047-10.79 42.121-16.829 55.053 -0.398 0.852-1.426 2.432-2.039 3.117 -6.955 7.762-23.252 22.52-31.805 25.258 -0.744 0.238-6.036 0.24-6.781 0.006 -9.57-3.025-24.402-18.002-31.782-25.285 -0.642-0.633-1.726-2.139-2.137-2.969 -6.325-12.77-16.976-54.948-16.985-54.996 -1.196-4.911-1.836-10.066-1.844-15.382C43.835 36.099 57.351 14.919 76.79 5.389c-22.202 9.066-37.828 30.804-37.789 56.176 0.008 5.316 0.704 10.471 2.004 15.382 0.01 0.047 11.587 42.226 18.462 54.995 0.447 0.83 1.625 2.336 2.323 2.97 8.021 7.282 24.144 22.259 34.545 25.284 0.809 0.235 6.562 0.232 7.37-0.006 9.297-2.737 27.011-17.495 34.57-25.257 0.667-0.686 1.784-2.266 2.217-3.118 6.564-12.932 18.278-55.005 18.293-55.052 1.283-4.916 1.961-10.072 1.952-15.389C160.699 36.059 145.075 14.408 122.923 5.375z" fill="#8b573f" stroke-width="none" opacity="1"></path><path id="SvgjsPath7335" d="M138.275 134.933c-7.56 7.762-25.273 22.52-34.57 25.257 -0.809 0.238-6.561 0.241-7.37 0.006 -10.402-3.025-26.524-18.002-34.545-25.284 -0.698-0.634-1.876-2.14-2.323-2.97 -6.875-12.77-18.452-54.948-18.462-54.995 -1.3-4.911-1.996-10.066-2.004-15.382C38.949 28.09 66.155 0.919 99.773 0.867c33.621-0.052 60.913 27.033 60.964 60.507 0.009 5.316-0.669 10.473-1.952 15.389 -0.015 0.047-11.729 42.121-18.293 55.052C140.06 132.667 138.942 134.247 138.275 134.933z" fill="none" stroke="#652e15" stroke-width="1.5" opacity="1"></path></g></g><g id="svga-group-mouth-single" ><path id="SvgjsPath7557" d="M99.983 141.177c-3.24 0-4.753-3.8-4.753-3.8s4.826 0.199 9.279 0.933C104.509 138.31 102.832 141.177 99.983 141.177z" fill="url(#SvgjsLinearGradient7558)" opacity="1"></path><path id="SvgjsPath7561" d="M87.792 135.571c-0.373-0.33 1.528-3.373 3.926-4.045 3.031-0.882 5.759 0.026 7.991 0.413 2.034 0.354 5.041 0.049 7.028 0.579 2.249 0.6 8.464 3.283 7.981 3.8 -0.238 0.255-4.963-1.676-8.076-2.278 -1.98-0.384-4.881-0.086-6.874-0.413 -2.062-0.337-4.47-1.21-7.268-0.805C89.962 133.189 88.217 135.947 87.792 135.571z" fill="#652e15" stroke-width="none" opacity="1"></path></g><g id="svga-group-eyes-left" ><g id="svga-group-eyesback-left"><path id="SvgjsPath7432" d="M76.732 78.383c4.587 0.679 7.931 3.488 10.773 7.94 0.004 0.005 0.013 0.004 0.018 0.008 0.007 0.027 0.021 0.053 0.026 0.08 0.255 1.007-0.816 1.819-2.155 2.438 -4.771 0.609-9.359 1.489-14.194 0.87 -9.681-1.241-9.855-5.509-10.326-6.629 -0.252-1.101-0.325-1.417-0.311-2.473 2.332-1.366 4.043-1.647 5.854-2.005C68.541 78.194 73.268 77.868 76.732 78.383z" fill="url(#SvgjsRadialGradient7433)" opacity="1"></path></g><g id="svga-group-eyesiriswrapper-left" transform="translate(0.25 0)"><g id="svga-group-eyesiriscontrol-left" ><g id="svga-group-eyesiris-left" ><path id="SvgjsPath7313" d="M80 84c0 3.313-2.687 5.999-6 5.999S68 87.313 68 84c0-3.316 2.687-6.001 6-6.001S80 80.685 80 84z" fill="#681711" stroke-width="none" opacity="1"></path><path id="SvgjsPath7314" d="M70.512 86.805c0.875-0.072 0.1-0.306 0.1-0.306 -0.433-0.233-1.248-0.592-1.248-0.921 0-1.031 1.414-1.299-0.034-1.705 -1.504-1.38 1.167-1.352 1.147-1.398 -0.975-2.376 0.299-1.071 0.835-1.773 1.988-2.599 0.554 0.267 1.633 0 0.391-0.096-0.78-1.531 0.034-1.33 0.539 0.132 0.662 0.58 0.662 0.58 0.393-0.077 1.008-0.682 1.008-0.682 0.749 0.226 1.275 1.29 1.043 1.091 0.368-0.045 0.884-0.221 1.286-0.341 0 0 0.07-0.239 0.139-0.033 0.917 2.661 3.284 2.47 0.559 3.24 0 0-0.176 0 0.382 0.442 2.71 2.164-2.102 1.495 0.451 2.49 0.104-0.104-1.53 0.965-1.53 1.261 0 0.501-1.042 1.818-1.946 1.3 -0.504-0.288-0.581 0.6-0.877 0.19 -0.581-0.803-1.742-0.035-1.313-0.773 0.634-0.521-0.654 0.204-0.904 0.204 -0.828 0 1.083-2.783 3.894-0.715 0.822 0.602-0.864-1.433 0.625-1.433 0.149 0.049 0.104-0.521 0.104-0.682 -0.774-0.151 1.39-0.003 1.39-1.262 0.137 0.027 0.509-0.35-1.635 0 0 0-0.068-0.75-0.034-0.886 0.11-0.438 1.214-0.298 0.904-0.75 0-0.001-0.799-1.604-0.799-1.604 -2.573-0.414-1.102-0.672-2.711-0.341 -0.076 0.378-3.445 1.984-3.338 2.729 0.1 0.702 2.115 0.938 0.208 2.182C73.405 91.051 68.437 85.454 70.512 86.805z" fill="#77251f" stroke-width="none" opacity="1"></path><path id="SvgjsPath7315" d="M74 78.749l0.171 4.393 1.837-3.993 -1.523 4.123 3.227-2.985 -2.985 3.226 4.124-1.523 -3.992 1.839 4.392 0.17 -4.392 0.17 3.992 1.839 -4.124-1.523 2.985 3.226 -3.227-2.985 1.523 4.123 -1.837-3.993L74 89.249l-0.171-4.393 -1.838 3.993 1.522-4.123 -3.226 2.985 2.985-3.226 -4.124 1.523 3.992-1.839 -4.39-0.17 4.39-0.17 -3.992-1.839 4.124 1.523 -2.985-3.226 3.226 2.985 -1.522-4.123 1.838 3.993L74 78.749z" fill="#490500" stroke-width="none" opacity="1"></path><path id="SvgjsPath7316" d="M74.796 80.067l-0.539 3.315 1.981-2.711 -1.766 2.857 2.87-1.748 -2.725 1.964 3.319-0.515L74.668 84l3.266 0.794 -3.317-0.538 2.712 1.982 -2.858-1.765 1.748 2.869 -1.964-2.725 0.516 3.319 -0.771-3.27 -0.795 3.264 0.539-3.315 -1.984 2.711 1.768-2.857 -2.869 1.748 2.725-1.964 -3.319 0.516 3.269-0.771 -3.264-0.793 3.315 0.537 -2.712-1.982 2.858 1.765 -1.747-2.869 1.964 2.725 -0.516-3.318 0.772 3.27L74.796 80.067z" fill="#3a0400" stroke-width="none" opacity="1"></path><path id="SvgjsPath7317" d="M76.25 84c0 1.243-1.008 2.25-2.25 2.25s-2.25-1.007-2.25-2.25 1.008-2.25 2.25-2.25S76.25 82.757 76.25 84z" fill="#000000" stroke-width="none" opacity="0.9"></path><path id="SvgjsPath7318" d="M71.637 88.311c-0.331 0.332-0.985 0.215-1.46-0.261 -0.476-0.475-0.593-1.129-0.261-1.461 0.331-0.331 0.985-0.214 1.46 0.261C71.852 87.326 71.969 87.979 71.637 88.311z" fill="#ffffff" stroke-width="none" opacity="0.7"></path><path id="SvgjsPath7319" d="M78.806 82.818c-0.496 0.496-1.697 0.1-2.682-0.886 -0.986-0.986-1.382-2.187-0.886-2.683 0.496-0.496 1.697-0.1 2.682 0.886C78.906 81.122 79.302 82.322 78.806 82.818z" fill="#ffffff" stroke-width="none" opacity="0.9"></path></g></g></g><g id="svga-group-eyesfront-left"><path id="SvgjsPath7457" d="M55.112 83.583c3.224 11.315 7.475 23.313 17.685 23.669s22.135-7.239 22.29-22.238c0.173-16.767-10.474-23.381-20.684-23.737S50.307 66.714 55.112 83.583zM60.875 83.09c-0.252-1.101-0.325-1.417-0.311-2.473 2.027-1.21 4.04-1.547 5.851-1.905 2.123-0.418 6.853-0.845 10.317-0.329 4.587 0.679 7.931 3.488 10.773 7.94 0.004 0.005 0.013 0.004 0.018 0.008 0.007 0.027 0.021 0.053 0.026 0.08 0.255 1.007-0.816 1.819-2.155 2.438 -4.771 0.609-9.359 1.489-14.194 0.87C61.519 88.478 61.345 84.21 60.875 83.09z" fill="#93614a" stroke-width="none" opacity="1"></path><path id="SvgjsPath7458" d="M74.225 95.171c9.256 1.401 17.847-3.01 19.186-9.859 1.34-6.849-5.072-13.537-14.329-14.94 -9.258-1.399-17.845 3.012-19.185 9.862C58.557 87.082 64.967 93.766 74.225 95.171zM60.563 80.617c2.125-1.141 4.04-1.547 5.851-1.905 2.123-0.418 6.853-0.845 10.317-0.329 4.587 0.679 7.931 3.488 10.773 7.94 0.004 0.005 0.013 0.004 0.018 0.008 0.007 0.027 0.021 0.053 0.026 0.08 0.255 1.007-0.816 1.819-2.155 2.438 -4.771 0.609-9.359 1.489-14.194 0.87 -9.681-1.241-9.855-5.509-10.326-6.629C60.622 81.989 60.55 81.672 60.563 80.617z" fill="url(#SvgjsRadialGradient7459)" opacity="1"></path><path id="SvgjsPath7463" d="M60.875 83.09c-0.252-1.101-0.325-1.417-0.311-2.473 2.092-1.175 4.04-1.547 5.851-1.905 2.123-0.418 6.853-0.845 10.317-0.329 4.587 0.679 7.931 3.488 10.773 7.94 0.004 0.005 0.013 0.004 0.018 0.008 0.007 0.027 0.021 0.053 0.026 0.08 0.255 1.007-0.816 1.819-2.155 2.438 -4.771 0.609-9.359 1.489-14.194 0.87C61.519 88.478 61.345 84.21 60.875 83.09z" fill="url(#SvgjsRadialGradient7464)" opacity="1"></path><path id="SvgjsPath7467" d="M76.327 75.748c3.294 0.539 6.505 2.054 9.48 3.945 0.637 0.404 1.366 0.865 2.521 1.451 -0.828-0.188-1.594-0.617-2.309-1.011 0.736 0.698 1.422 1.529 1.982 2.334 -2.521-3.159-7.297-5.538-11.36-6.349 -3.902-0.779-10.989-0.264-16.251 2.042C65.208 75.449 72.237 75.08 76.327 75.748z" fill="#652e15" stroke-width="none" opacity="1"></path><path id="SvgjsPath7468" d="M87.508 86.277c-2.847-4.34-6.193-7.082-10.781-7.747 -4.833-0.705-11.271-0.221-15.034 1.843 -0.308 0.169-1.607 1.249-1.401 0.117 0.874-1.167 4.322-2.523 5.993-2.928C85.03 73.019 88.582 87.854 87.508 86.277zM60.646 82.841c-0.716 2.063 0.861 6.654 10.145 7.503 6.595 0.602 15.767-1.75 14.634-1.613 -4.779 0.589-9.375 1.449-14.219 0.839C60.224 88.19 61.468 83.023 60.646 82.841z" fill="#09112e" stroke-width="none" opacity="1"></path></g></g><g id="svga-group-eyes-right" ><g id="svga-group-eyesback-right"><path id="SvgjsPath7440" d="M122.867 78.383c-4.586 0.679-7.931 3.488-10.773 7.94 -0.004 0.005-0.012 0.004-0.018 0.008 -0.006 0.027-0.02 0.053-0.025 0.08 -0.256 1.007 0.815 1.819 2.154 2.438 4.771 0.609 9.359 1.489 14.194 0.87 9.681-1.241 9.855-5.509 10.325-6.629 0.253-1.101 0.325-1.417 0.312-2.473 -2.331-1.366-4.043-1.647-5.854-2.005C131.059 78.194 126.332 77.868 122.867 78.383z" fill="url(#SvgjsRadialGradient7441)" opacity="1"></path></g><g id="svga-group-eyesiriswrapper-right" transform="translate(-0.25 0)"><g id="svga-group-eyesiriscontrol-right" ><g id="svga-group-eyesiris-right" ><path id="SvgjsPath7320" d="M132,83.999c0,3.316-2.684,6-6,6s-6-2.684-6-6s2.684-6,6-6S132,80.683,132,83.999z" fill="#681711" stroke-width="none" opacity="1"></path><path id="SvgjsPath7321" d="M122.508 86.806c0.879-0.076 0.105-0.305 0.105-0.305 -0.434-0.234-1.254-0.592-1.254-0.926 0-1.031 1.418-1.295-0.023-1.705 -1.512-1.377 1.16-1.348 1.137-1.395 -0.973-2.379 0.305-1.072 0.844-1.775 1.98-2.596 0.551 0.27 1.629 0 0.387-0.094-0.785-1.529 0.035-1.33 0.539 0.135 0.656 0.58 0.656 0.58 0.398-0.076 1.008-0.68 1.008-0.68 0.75 0.223 1.277 1.289 1.043 1.09 0.375-0.047 0.891-0.223 1.289-0.34 0 0 0.07-0.24 0.141-0.035 0.914 2.66 3.281 2.473 0.563 3.24 0 0-0.176 0 0.375 0.439 2.707 2.168-2.098 1.494 0.457 2.49 0.105-0.1-1.535 0.967-1.535 1.266 0 0.498-1.043 1.816-1.945 1.295 -0.504-0.287-0.586 0.604-0.879 0.193 -0.574-0.803-1.746-0.035-1.313-0.773 0.633-0.521-0.656 0.205-0.902 0.205 -0.832 0 1.078-2.783 3.891-0.715 0.82 0.598-0.867-1.436 0.633-1.436 0.141 0.047 0.105-0.521 0.105-0.68 -0.785-0.152 1.383-0.006 1.383-1.266 0.141 0.029 0.516-0.346-1.629 0 0 0-0.07-0.75-0.035-0.885 0.105-0.439 1.207-0.299 0.902-0.75l-0.797-1.605c-2.578-0.41-1.102-0.668-2.719-0.34 -0.07 0.381-3.445 1.986-3.34 2.73 0.105 0.703 2.121 0.938 0.211 2.18C125.402 91.054 120.434 85.452 122.508 86.806z" fill="#77251f" stroke-width="none" opacity="1"></path><path id="SvgjsPath7322" d="M126 78.749l0.176 4.395 1.828-3.996 -1.523 4.125 3.234-2.988 -2.988 3.229 4.125-1.523 -3.996 1.84 4.395 0.17 -4.395 0.17 3.996 1.84 -4.125-1.523 2.988 3.229 -3.234-2.988 1.523 4.125 -1.828-3.996L126 89.249l-0.176-4.395 -1.84 3.996 1.523-4.125 -3.223 2.988 2.988-3.229 -4.125 1.523 3.996-1.84 -4.395-0.17 4.395-0.17 -3.996-1.84 4.125 1.523 -2.988-3.229 3.223 2.988 -1.523-4.125 1.84 3.996L126 78.749z" fill="#490500" stroke-width="none" opacity="1"></path><path id="SvgjsPath7323" d="M126.797 80.067l-0.539 3.316 1.98-2.713 -1.77 2.859 2.871-1.752 -2.719 1.969 3.316-0.516 -3.27 0.768 3.27 0.797 -3.316-0.539 2.707 1.98 -2.859-1.764 1.746 2.871 -1.957-2.725 0.516 3.316L126 84.667l-0.797 3.264 0.539-3.316 -1.98 2.713 1.77-2.859 -2.871 1.752 2.719-1.969 -3.316 0.516 3.27-0.768 -3.27-0.797 3.316 0.539 -2.707-1.98 2.859 1.764 -1.746-2.871 1.957 2.725 -0.516-3.316 0.773 3.27L126.797 80.067z" fill="#3a0400" stroke-width="none" opacity="1"></path><path id="SvgjsPath7324" d="M128.25 83.999c0 1.242-1.008 2.25-2.25 2.25s-2.25-1.008-2.25-2.25 1.008-2.25 2.25-2.25S128.25 82.757 128.25 83.999z" fill="#000000" stroke-width="none" opacity="0.9"></path><path id="SvgjsPath7325" d="M123.633 88.312c-0.328 0.328-0.984 0.217-1.453-0.264 -0.48-0.475-0.598-1.125-0.258-1.459 0.328-0.328 0.984-0.211 1.453 0.264C123.855 87.327 123.973 87.978 123.633 88.312z" fill="#ffffff" stroke-width="none" opacity="0.7"></path><path id="SvgjsPath7326" d="M130.805 82.815c-0.492 0.498-1.699 0.105-2.684-0.885 -0.984-0.984-1.383-2.186-0.879-2.678 0.492-0.498 1.688-0.105 2.672 0.885C130.91 81.122 131.297 82.323 130.805 82.815z" fill="#ffffff" stroke-width="none" opacity="0.9"></path></g></g></g><g id="svga-group-eyesfront-right"><path id="SvgjsPath7478" d="M125.197 61.277c-10.211 0.356-20.857 6.97-20.685 23.737 0.154 15 12.079 22.595 22.29 22.238 10.21-0.356 16.187-17.323 17.685-23.669C148.517 66.512 135.407 60.921 125.197 61.277zM128.399 89.719c-4.835 0.619-9.423-0.261-14.194-0.87 -1.339-0.618-2.41-1.43-2.154-2.438 0.006-0.027 0.02-0.053 0.025-0.08 0.006-0.004 0.014-0.003 0.018-0.008 2.843-4.452 6.188-7.261 10.773-7.94 3.465-0.516 8.195-0.089 10.318 0.329 1.811 0.357 3.824 0.694 5.851 1.905 0.014 1.055-0.059 1.372-0.312 2.473C138.255 84.21 138.08 88.478 128.399 89.719z" fill="#93614a" stroke-width="none" opacity="1"></path><path id="SvgjsPath7479" d="M139.703 80.234c-1.34-6.85-9.928-11.261-19.186-9.862 -9.257 1.403-15.669 8.091-14.328 14.94 1.339 6.849 9.93 11.26 19.186 9.859C134.633 93.766 141.043 87.082 139.703 80.234zM138.725 83.09c-0.47 1.121-0.645 5.388-10.325 6.629 -4.835 0.619-9.423-0.261-14.194-0.87 -1.339-0.618-2.41-1.43-2.154-2.438 0.006-0.027 0.02-0.053 0.025-0.08 0.006-0.004 0.014-0.003 0.018-0.008 2.843-4.452 6.188-7.261 10.773-7.94 3.465-0.516 8.195-0.089 10.318 0.329 1.811 0.357 3.727 0.764 5.851 1.905C139.05 81.672 138.978 81.989 138.725 83.09z" fill="url(#SvgjsRadialGradient7480)" opacity="1"></path><path id="SvgjsPath7484" d="M138.725 83.09c0.253-1.101 0.325-1.417 0.312-2.473 -2.092-1.175-4.04-1.547-5.851-1.905 -2.123-0.418-6.854-0.845-10.318-0.329 -4.586 0.679-7.931 3.488-10.773 7.94 -0.004 0.005-0.012 0.004-0.018 0.008 -0.006 0.027-0.02 0.053-0.025 0.08 -0.256 1.007 0.815 1.819 2.154 2.438 4.771 0.609 9.359 1.489 14.194 0.87C138.08 88.478 138.255 84.21 138.725 83.09z" fill="url(#SvgjsRadialGradient7485)" opacity="1"></path><path id="SvgjsPath7488" d="M123.273 75.748c-3.295 0.539-6.506 2.054-9.48 3.945 -0.637 0.404-1.367 0.865-2.521 1.451 0.828-0.188 1.594-0.617 2.309-1.011 -0.736 0.698-1.422 1.529-1.982 2.334 2.521-3.159 7.297-5.538 11.359-6.349 3.902-0.779 10.989-0.264 16.252 2.042C134.391 75.449 127.362 75.08 123.273 75.748z" fill="#652e15" stroke-width="none" opacity="1"></path><path id="SvgjsPath7489" d="M133.314 77.563c1.672 0.405 5.119 1.761 5.994 2.928 0.205 1.132-1.094 0.052-1.402-0.117 -3.764-2.064-10.201-2.548-15.033-1.843 -4.588 0.665-7.936 3.407-10.781 7.747C111.018 87.854 114.57 73.019 133.314 77.563zM128.395 89.57c-4.844 0.61-9.439-0.25-14.219-0.839 -1.134-0.137 8.038 2.215 14.633 1.613 9.284-0.849 10.861-5.44 10.145-7.503C138.131 83.023 139.376 88.19 128.395 89.57z" fill="#09112e" stroke-width="none" opacity="1"></path></g></g><g id="svga-group-facehighlight-single" ><path id="SvgjsPath6923" d="M141 113.974c0.035 22.622-18.292 40.994-40.938 41.025 -22.642 0.037-41.028-18.273-41.063-40.9 -0.035-22.62 18.292-41.064 40.937-41.1C122.579 72.964 140.967 91.349 141 113.974z" fill="url(#SvgjsRadialGradient6924)" opacity="1"></path><path id="SvgjsPath6927" d="M137.5 53.999c0 20.711-16.789 37.5-37.499 37.5 -20.711 0-37.501-16.789-37.501-37.5s16.79-37.5 37.501-37.5C120.711 16.499 137.5 33.288 137.5 53.999z" fill="url(#SvgjsRadialGradient6928)" opacity="1"></path></g><g id="svga-group-eyebrows-left" ><path id="SvgjsPath7568" d="M93.7 78.245c-9.176-3.435-12.813-6.732-20.729-9.713 -6.51-2.452-13.342-2.906-20.071-1.49 8.225 0.87 11.916 0.9 20.316 4.263C80.024 74.03 86.37 77.873 93.7 78.245z" fill="#ddbc9b" stroke-width="none" opacity="1"></path></g><g id="svga-group-eyebrows-right" ><path id="SvgjsPath7569" d="M106.5 78.545c9.176-3.62 13.013-7.447 20.929-10.589 6.51-2.584 13.342-3.063 20.071-1.57 -8.225 0.917-11.916 0.948-20.316 4.493C120.376 73.751 113.83 78.153 106.5 78.545z" fill="#ddbc9b" stroke-width="none" opacity="1"></path></g><g id="svga-group-nose-single" ><path id="SvgjsPath7194" d="M101.1 120.646c-0.471 0.511-0.856 0.45-1.301-0.08l-4.95-5.988H107L101.1 120.646z" fill="#844e35" stroke-width="none" opacity="1" stroke="none"></path><path id="SvgjsPath7195" d="M93.461 115.507l6.435 5.235c0.537 0.437 0.744 0.271 0.464-0.367l-2.295-5.2c-0.112-0.252-0.146-0.676-0.078-0.943l1.676-26.41 -6.383 25.917C92.844 114.276 92.925 115.071 93.461 115.507z" fill="#652e15" stroke-width="none" opacity="1" stroke="none"></path></g><g id="svga-group-beardwrap" ><g id="svga-group-beard-single" ><path id="SvgjsPath7299" d="M99.98 164.89c-11.04-0.87-18.86-4.46-27.91-12.81 -8.87-7.66-15.76-19.16-17.25-25.69 33.99 39.06 57.53 37.59 90.33 0.01C141.03 143.32 118.59 164.88 99.98 164.89z" fill="#ddbc9b" stroke-width="none" opacity="1"></path><path id="SvgjsPath7300" d="M144.33 129.43c-5.72 15.85-26.28 35.55-44.35 35.55 -11.82-0.93-19.67-5.18-27.97-12.84 -9.48-8.2-16.15-20.08-17.36-26.12 0.96 1.1 1.9 2.16 2.82 3.17 28.52 44.66 59.27 42.67 87.18-2.16L144.33 129.43z" fill="#cea57c" stroke-width="none" opacity="1"></path><path id="SvgjsPath7301" d="M87.78 152.64c-8.27-3.53-19.04-10.36-33.13-26.61 1.21 6.04 7.88 17.92 17.36 26.12 8.3 7.66 16.15 11.91 27.97 12.84 19.39 0 41.66-22.7 45.37-38.96C129.64 144.08 109.1 161.87 87.78 152.64zM72.78 151.29c-7.61-6.46-15.46-18.03-17.45-24.03 31.39 39.14 57.67 37.73 89.35 0C139.88 139.03 110.01 185.89 72.78 151.29z" fill="#af7b46" stroke-width="none" opacity="1"></path></g></g><g id="svga-group-mustache-single" ><path id="SvgjsPath7277" d="M100 124.48l-2.32 3.2c-0.4 0.56-1.04 0.9-1.73 0.92l-17.27 0.56c-0.23 0.01-0.44-0.14-0.5-0.37s0.03-0.46 0.23-0.58l3.54-2.05c0.45-0.26 0.96-0.42 1.48-0.46L100 124.48zM100 124.48l2.32 3.2c0.4 0.56 1.04 0.9 1.73 0.92l17.27 0.56c0.23 0.01 0.44-0.14 0.5-0.37 0.06-0.22-0.03-0.46-0.23-0.58l-3.54-2.05c-0.45-0.26-0.96-0.42-1.48-0.46L100 124.48z" fill="#ddbc9b" stroke-width="none" opacity="1" stroke="none"></path></g><g id="svga-group-hair-front" ><path id="SvgjsPath7304" d="M158.43 41.325C140-4.765 100 0.405 100 0.405s-40-5.169-58.43 40.92c-9.245 23.12 2.158 50.324 2.158 50.324h5.826c-5.094-21.752 0.796-17.662 1.176-21.722 0.118-1.255-0.3-3.367-0.421-4.622 -0.592-6.112 1.982-18.029 5.245-23.173 1.603-2.526 5.369-6.659 8.174-7.699 9.97-3.694 20.044 0.715 22.854 1.421 4.461 1.12 22.373 1.12 26.836 0 3.343-0.839 13.182-4.905 22.854-1.321 2.806 1.04 6.871 4.972 8.474 7.499 3.263 5.144 5.537 16.16 4.945 22.272 -0.121 1.255-0.539 4.367-0.422 5.623 0.107 1.147 2.617 3.689 2.898 4.807 1.16 4.612-1.722 16.915-1.722 16.915h5.825C156.271 91.649 167.676 64.445 158.43 41.325z" fill="#decfbc" stroke-width="none" opacity="1" stroke="none"></path><path id="SvgjsPath7305" d="M154.938 31.163C136.178-3.114 101.979-0.631 100-0.455c-1.979-0.176-36.177-2.659-54.938 31.618C30.57 57.641 41.57 88.137 42.907 91.612c0.076 0.197 1.576 0.038 1.576 0.038 -0.006-0.015-0.104-0.392-0.166-0.55 -1.209-3.12-12.189-33.18 2.061-59.216C65.111-2.342 99.595 1.007 99.94 1.046L100 0.504l0.06 0.542c0.345-0.039 34.829-3.388 53.563 30.837 14.563 26.61 2.773 57.423 1.996 59.383 -0.021 0.055-0.107 0.375-0.111 0.383 0 0 1.506 0.169 1.575-0.011C158.374 88.294 169.467 57.709 154.938 31.163z" fill="#b08d60" stroke-width="none" opacity="1" stroke="none"></path></g><g id="svga-group-glasses-single" ><path id="SvgjsPath7562" d="M107.18 85.7c0.25 0.34 0.26 0.68 0.32 1.27 0.06 0.58 0.08 1.01 0.08 1.01s0.11 1.46 0.24 2.33c0.13 0.88 0 1.63-1.2 1.63 -1.48 0-1.56-3.82-1.69-4.67C104.62 85.27 105.99 84.07 107.18 85.7zM92.82 85.7c-0.25 0.34-0.26 0.68-0.32 1.27 -0.06 0.58-0.08 1.01-0.08 1.01s-0.11 1.46-0.24 2.33c-0.13 0.88 0 1.63 1.2 1.63 1.48 0 1.56-3.82 1.69-4.67C95.38 85.27 94.01 84.07 92.82 85.7z" fill="#ff4444" stroke-width="none" opacity="0.5"></path><path id="SvgjsPath7563" d="M148.51 85.14c-0.54 5.69-4.31 13.57-21.04 13.58h-0.04c-7.37 0-13.2-1.97-16.85-5.71 -2.77-2.83-4.15-6.52-4.15-10.94C116.3 76.92 140.48 77.34 148.51 85.14zM51.42 83.67c0.04 5.68 2.88 15.03 21.11 15.05h0.04c7.37 0 13.2-1.97 16.85-5.71 2.5-2.56 3.88-5.81 4.12-9.68C82.89 76.69 58.36 77.42 51.42 83.67z" fill="#ffffff" stroke-width="none" opacity="0.2"></path><path id="SvgjsPath7564" d="M148.59 83.53c0 0.51-0.02 1.05-0.08 1.6 -8.03-7.8-32.21-8.22-42.07-3.07 0-0.16-0.01-0.31-0.01-0.47 0-0.09 1.62-9.54 19.19-9.54C142.35 72.05 148.59 79.09 148.59 83.53zM74.38 72.05c-16.73 0-22.97 7.04-22.97 11.48 0 0.04 0 0.09 0 0.13 6.95-6.25 31.48-6.98 42.12-0.34 0.04-0.57 0.05-1.14 0.03-1.73C93.57 81.5 91.95 72.05 74.38 72.05z" fill="#ffffff" stroke-width="none" opacity="0.4"></path><path id="SvgjsPath7565" d="M125.62 71.84c-15.58 0-18.72 7.28-19.28 9.27 -0.84-0.18-1.19-0.23-1.73-0.74 -2.59-2.44-6.69-2.37-9.21 0 -0.54 0.51-0.9 0.56-1.73 0.74 -0.56-1.99-3.7-9.27-19.28-9.27 -16.89 0-23.18 7.17-23.18 11.69 0 5.75 2.77 15.4 21.33 15.4 18.84 0 21.17-11.69 21.25-17.04 1.38-0.29 1.78-0.33 2.51-1.01 2.23-2.09 5.19-2.11 7.42 0 0.74 0.69 1.14 0.72 2.51 1.01 0.08 5.35 2.41 17.04 21.25 17.04 18.55 0 21.33-9.65 21.33-15.4C148.8 79.01 142.51 71.84 125.62 71.84zM72.53 98.22c-17.93-0.02-20.61-9.2-20.61-14.69 0-4.24 6.1-10.98 22.47-10.98 17 0 18.69 8.96 18.69 9.06C93.31 92.22 85.3 98.23 72.53 98.22zM127.47 98.22c-12.77 0.01-20.79-6-20.54-16.61 0-0.09 1.69-9.06 18.69-9.06 16.37 0 22.47 6.74 22.47 10.98C148.09 89.02 145.41 98.2 127.47 98.22z" fill="#ff4444" stroke-width="none" opacity="1"></path></g></g></g><rect id="SvgjsRect6908" width="200" height="15" x="0" y="185" fill="#ecf0f1" opacity="0.5" style="display:none;"></rect><text id="SvgjsText6909" font-family="&quot;Roboto&quot;, &quot;Helvetica Neue&quot;, Helvetica, Arial, sans-serif" style="font-size:0.84em;font-family:&quot;Roboto&quot;, &quot;Helvetica Neue&quot;, Helvetica, Arial, sans-serif;text-anchor:middle;font-weight:400;display:none;" font-size="0.84em" text-anchor="middle" font-weight="400" fill="#000000" x="100" y="185"><tspan id="SvgjsTspan6910" dy="1.2em" x="100" style="font-size:0.84em;font-family:&quot;Roboto&quot;, &quot;Helvetica Neue&quot;, Helvetica, Arial, sans-serif;text-anchor:middle;font-weight:400;">Created on AvatarMaker.com</tspan></text></g><defs id="SvgjsDefs6873"><radialGradient id="SvgjsRadialGradient6924" cx="100" cy="114" r="41" gradientUnits="userSpaceOnUse" class="svga-on-canvas-facehighlight-gradient-single-0"><stop id="SvgjsStop6925" stop-opacity="0.5" stop-color="#a27662" offset="0" ></stop><stop id="SvgjsStop6926" stop-opacity="0" stop-color="#93614a" offset="0.9" ></stop></radialGradient><radialGradient id="SvgjsRadialGradient6928" cx="100" cy="54" r="37" gradientUnits="userSpaceOnUse" class="svga-on-canvas-facehighlight-gradient-single-1"><stop id="SvgjsStop6929" stop-opacity="0.5" stop-color="#a27662" offset="0" ></stop><stop id="SvgjsStop6930" stop-opacity="0" stop-color="#93614a" offset="0.9" ></stop></radialGradient><radialGradient id="SvgjsRadialGradient7013" cx="-568.659" cy="-521.042" r="59.751" gradientTransform="matrix(0.096 -0.0248 0.0245 0.0961 141.2814 119.9893)" gradientUnits="userSpaceOnUse" class="svga-on-canvas-eyesiris-gradient-left-1"><stop id="SvgjsStop7014" stop-opacity="1" stop-color="#ffffff" offset="0" ></stop><stop id="SvgjsStop7015" stop-opacity="0" stop-color="#ffffff" offset="1" ></stop></radialGradient><radialGradient id="SvgjsRadialGradient7017" cx="-582.838" cy="-519.099" r="59.745" gradientTransform="matrix(0.0991 8.856319e-004 -0.0011 0.0991 131.1134 135.9855)" gradientUnits="userSpaceOnUse" class="svga-on-canvas-eyesiris-gradient-left-2"><stop id="SvgjsStop7018" stop-opacity="1" stop-color="#ffffff" offset="0" ></stop><stop id="SvgjsStop7019" stop-opacity="0" stop-color="#ffffff" offset="1" ></stop></radialGradient><linearGradient id="SvgjsLinearGradient7023" x1="122.67" y1="88.268" x2="123.606" y2="87.152" gradientTransform="matrix(1 0 0 1 -52 0)" gradientUnits="userSpaceOnUse" class="svga-on-canvas-eyesiris-gradient-left-5"><stop id="SvgjsStop7024" stop-opacity="1" stop-color="#ffffff" offset="0" ></stop><stop id="SvgjsStop7025" stop-opacity="0" stop-color="#ffffff" offset="1" ></stop></linearGradient><linearGradient id="SvgjsLinearGradient7027" x1="127.212" y1="82.296" x2="126.463" y2="83.189" gradientTransform="matrix(1 0 0 1 -52 0)" gradientUnits="userSpaceOnUse" class="svga-on-canvas-eyesiris-gradient-left-6"><stop id="SvgjsStop7028" stop-opacity="1" stop-color="#ffffff" offset="0" ></stop><stop id="SvgjsStop7029" stop-opacity="0" stop-color="#ffffff" offset="1" ></stop></linearGradient><linearGradient id="SvgjsLinearGradient7031" x1="129.636" y1="79.822" x2="127.91" y2="81.879" gradientTransform="matrix(1 0 0 1 -52 0)" gradientUnits="userSpaceOnUse" class="svga-on-canvas-eyesiris-gradient-left-7"><stop id="SvgjsStop7032" stop-opacity="1" stop-color="#ffffff" offset="0" ></stop><stop id="SvgjsStop7033" stop-opacity="0" stop-color="#ffffff" offset="1" ></stop></linearGradient><radialGradient id="SvgjsRadialGradient7036" cx="-568.654" cy="-521.042" r="59.752" gradientTransform="matrix(0.096 -0.0248 0.0245 0.0961 193.2804 119.9894)" gradientUnits="userSpaceOnUse" class="svga-on-canvas-eyesiris-gradient-right-1"><stop id="SvgjsStop7037" stop-opacity="1" stop-color="#ffffff" offset="0" ></stop><stop id="SvgjsStop7038" stop-opacity="0" stop-color="#ffffff" offset="1" ></stop></radialGradient><radialGradient id="SvgjsRadialGradient7040" cx="-582.833" cy="-519.102" r="59.747" gradientTransform="matrix(0.0991 8.856319e-004 -0.0011 0.0991 183.1126 135.9856)" gradientUnits="userSpaceOnUse" class="svga-on-canvas-eyesiris-gradient-right-2"><stop id="SvgjsStop7041" stop-opacity="1" stop-color="#ffffff" offset="0" ></stop><stop id="SvgjsStop7042" stop-opacity="0" stop-color="#ffffff" offset="1" ></stop></radialGradient><linearGradient id="SvgjsLinearGradient7046" x1="122.67" y1="88.268" x2="123.606" y2="87.152" gradientUnits="userSpaceOnUse" class="svga-on-canvas-eyesiris-gradient-right-5"><stop id="SvgjsStop7047" stop-opacity="1" stop-color="#ffffff" offset="0" ></stop><stop id="SvgjsStop7048" stop-opacity="0" stop-color="#ffffff" offset="1" ></stop></linearGradient><linearGradient id="SvgjsLinearGradient7050" x1="127.212" y1="82.296" x2="126.463" y2="83.189" gradientUnits="userSpaceOnUse" class="svga-on-canvas-eyesiris-gradient-right-6"><stop id="SvgjsStop7051" stop-opacity="1" stop-color="#ffffff" offset="0" ></stop><stop id="SvgjsStop7052" stop-opacity="0" stop-color="#ffffff" offset="1" ></stop></linearGradient><linearGradient id="SvgjsLinearGradient7054" x1="129.636" y1="79.822" x2="127.91" y2="81.879" gradientUnits="userSpaceOnUse" class="svga-on-canvas-eyesiris-gradient-right-7"><stop id="SvgjsStop7055" stop-opacity="1" stop-color="#ffffff" offset="0" ></stop><stop id="SvgjsStop7056" stop-opacity="0" stop-color="#ffffff" offset="1" ></stop></linearGradient><linearGradient id="SvgjsLinearGradient7337" x1="100" y1="170" x2="100" y2="132" gradientUnits="userSpaceOnUse" class="svga-on-canvas-chinshadow-gradient-single-0"><stop id="SvgjsStop7338" stop-opacity="0.8" stop-color="#844e35" offset="0" ></stop><stop id="SvgjsStop7339" stop-opacity="1" stop-color="#652e15" offset="0.7" ></stop></linearGradient><radialGradient id="SvgjsRadialGradient7433" cx="125.903" cy="85.096" r="13.25" gradientTransform="matrix(-1.0996 0.0423 0.0635 0.9207 206.5488 0.5932)" gradientUnits="userSpaceOnUse" class="svga-on-canvas-eyesback-gradient-left-0"><stop id="SvgjsStop7434" stop-opacity="1" stop-color="#ffffff" offset="0" ></stop><stop id="SvgjsStop7435" stop-opacity="1" stop-color="#fdfefe" offset="0.544" ></stop><stop id="SvgjsStop7436" stop-opacity="1" stop-color="#f6f8f9" offset="0.74" ></stop><stop id="SvgjsStop7437" stop-opacity="1" stop-color="#eaeff2" offset="0.879" ></stop><stop id="SvgjsStop7438" stop-opacity="1" stop-color="#d9e3e8" offset="0.992" ></stop><stop id="SvgjsStop7439" stop-opacity="1" stop-color="#d8e2e7" offset="1" ></stop></radialGradient><radialGradient id="SvgjsRadialGradient7441" cx="125.541" cy="85.113" r="13.249" gradientTransform="matrix(1.0996 0.0423 -0.0635 0.9207 -6.5488 0.5932)" gradientUnits="userSpaceOnUse" class="svga-on-canvas-eyesback-gradient-right-0"><stop id="SvgjsStop7442" stop-opacity="1" stop-color="#ffffff" offset="0" ></stop><stop id="SvgjsStop7443" stop-opacity="1" stop-color="#fdfefe" offset="0.544" ></stop><stop id="SvgjsStop7444" stop-opacity="1" stop-color="#f6f8f9" offset="0.74" ></stop><stop id="SvgjsStop7445" stop-opacity="1" stop-color="#eaeff2" offset="0.879" ></stop><stop id="SvgjsStop7446" stop-opacity="1" stop-color="#d9e3e8" offset="0.992" ></stop><stop id="SvgjsStop7447" stop-opacity="1" stop-color="#d8e2e7" offset="1" ></stop></radialGradient><radialGradient id="SvgjsRadialGradient7449" cx="125.903" cy="85.096" r="13.25" gradientTransform="matrix(-1.0996 0.0423 0.0635 0.9207 206.5488 0.5932)" gradientUnits="userSpaceOnUse" class="svga-on-canvas-eyesfront-gradient-left-0"><stop id="SvgjsStop7450" stop-opacity="1" stop-color="#ffffff" offset="0" ></stop><stop id="SvgjsStop7451" stop-opacity="1" stop-color="#fdfefe" offset="0.544" ></stop><stop id="SvgjsStop7452" stop-opacity="1" stop-color="#f6f8f9" offset="0.74" ></stop><stop id="SvgjsStop7453" stop-opacity="1" stop-color="#eaeff2" offset="0.879" ></stop><stop id="SvgjsStop7454" stop-opacity="1" stop-color="#d9e3e8" offset="0.992" ></stop><stop id="SvgjsStop7455" stop-opacity="1" stop-color="#d8e2e7" offset="1" ></stop></radialGradient><radialGradient id="SvgjsRadialGradient7459" cx="123.371" cy="81.442" fx="136.805" fy="80.36" r="17.038" gradientTransform="matrix(0.9884 0.1367 0.1336 -0.7354 -56.0677 125.3)" gradientUnits="userSpaceOnUse" class="svga-on-canvas-eyesfront-gradient-left-3"><stop id="SvgjsStop7460" stop-opacity="1" stop-color="#844e35" offset="0" ></stop><stop id="SvgjsStop7461" stop-opacity="0.3" stop-color="#844e35" offset="0.7" ></stop><stop id="SvgjsStop7462" stop-opacity="0" stop-color="#93614a" offset="1" ></stop></radialGradient><radialGradient id="SvgjsRadialGradient7464" cx="78.965" cy="81.143" r="26.237" gradientTransform="matrix(0.7183 -0.06 0.0803 0.6143 8.7915 49.2595)" gradientUnits="userSpaceOnUse" class="svga-on-canvas-eyesfront-gradient-left-4"><stop id="SvgjsStop7465" stop-opacity="0" stop-color="#000000" offset="0.95" ></stop><stop id="SvgjsStop7466" stop-opacity="0.2" stop-color="#000000" offset="1" ></stop></radialGradient><radialGradient id="SvgjsRadialGradient7470" cx="125.541" cy="85.113" r="13.249" gradientTransform="matrix(1.0996 0.0423 -0.0635 0.9207 -6.5488 0.5932)" gradientUnits="userSpaceOnUse" class="svga-on-canvas-eyesfront-gradient-right-0"><stop id="SvgjsStop7471" stop-opacity="1" stop-color="#ffffff" offset="0" ></stop><stop id="SvgjsStop7472" stop-opacity="1" stop-color="#fdfefe" offset="0.544" ></stop><stop id="SvgjsStop7473" stop-opacity="1" stop-color="#f6f8f9" offset="0.74" ></stop><stop id="SvgjsStop7474" stop-opacity="1" stop-color="#eaeff2" offset="0.879" ></stop><stop id="SvgjsStop7475" stop-opacity="1" stop-color="#d9e3e8" offset="0.992" ></stop><stop id="SvgjsStop7476" stop-opacity="1" stop-color="#d8e2e7" offset="1" ></stop></radialGradient><radialGradient id="SvgjsRadialGradient7480" cx="122.972" cy="81.425" fx="136.406" fy="80.344" r="17.037" gradientTransform="matrix(-0.9884 0.1367 -0.1336 -0.7354 255.271 125.3424)" gradientUnits="userSpaceOnUse" class="svga-on-canvas-eyesfront-gradient-right-3"><stop id="SvgjsStop7481" stop-opacity="1" stop-color="#844e35" offset="0" ></stop><stop id="SvgjsStop7482" stop-opacity="0.3" stop-color="#844e35" offset="0.7" ></stop><stop id="SvgjsStop7483" stop-opacity="0" stop-color="#93614a" offset="1" ></stop></radialGradient><radialGradient id="SvgjsRadialGradient7485" cx="79.515" cy="81.186" r="26.237" gradientTransform="matrix(-0.7183 -0.06 -0.0803 0.6143 191.2076 49.2665)" gradientUnits="userSpaceOnUse" class="svga-on-canvas-eyesfront-gradient-right-4"><stop id="SvgjsStop7486" stop-opacity="0" stop-color="#000000" offset="0.95" ></stop><stop id="SvgjsStop7487" stop-opacity="0.2" stop-color="#000000" offset="1" ></stop></radialGradient><linearGradient id="SvgjsLinearGradient7558" x1="100" y1="141" x2="100" y2="137" gradientUnits="userSpaceOnUse" class="svga-on-canvas-mouth-gradient-single-0"><stop id="SvgjsStop7559" stop-opacity="1" stop-color="#8b573f" offset="0.1" ></stop><stop id="SvgjsStop7560" stop-opacity="1" stop-color="#844e35" offset="1" ></stop></linearGradient></defs></svg>